<svg width="62" height="74" viewBox="0 0 62 74" fill="none" xmlns="http://www.w3.org/2000/svg">
<path d="M7.53963 24.405C7.8733 22.786 8.3234 20.8134 9.37622 21.0121C10.429 21.2109 10.7272 21.9645 11.0911 21.718C11.4551 21.4715 11.1678 18.9959 10.0126 17.7609C8.85746 16.5259 6.30656 16.8173 5.8287 19.1086C5.35085 21.3998 4.36585 24.3532 3.45749 24.5844C2.54914 24.8156 5.91104 26.6388 7.53963 24.405Z" fill="#000F30"/>
<path d="M54.6648 27.9867C54.6648 27.9867 55.223 25.2236 56.8697 25.6143C58.5164 26.0051 59.9677 25.2794 59.9677 24.7212C59.9677 24.163 57.3721 22.7396 56.4789 21.9023C55.5858 21.065 52.1808 21.0092 51.3435 24.4979C50.7312 27.049 49.1944 29.5496 48.0501 28.9914C46.9058 28.4332 52.9344 32.7872 54.6648 27.9867Z" fill="#000F30"/>
<path d="M11.7604 2.83719C11.7604 2.83719 12.5893 4.21867 12.4709 5.95538C12.3525 7.69209 14.0497 7.84997 14.0102 8.44204C13.9708 9.0341 11.4446 10.4156 10.0632 10.3761C8.68168 10.3366 8.16856 7.17897 8.83956 5.36332C9.51056 3.54767 7.06338 2.75825 7.06338 2.75825C7.06338 2.75825 9.98421 1.10048 11.7604 2.83719Z" fill="#FFAC17"/>
<path d="M30.0429 57.1599C30.0429 57.1599 22.3855 39.6349 20.1752 38.3718C17.9648 37.1088 9.91279 34.6616 7.14984 35.53C4.38689 36.3983 12.1231 58.1072 12.1231 58.1072L30.0429 57.1599Z" fill="#F4D35E"/>
<path d="M8.53174 46.9234C10.1244 52.4936 12.0847 57.996 12.0847 57.996L29.9718 57.0502C29.9718 57.0502 28.5009 53.684 26.6635 49.7986C19.2504 49.3275 12.6452 47.974 8.53174 46.9234Z" fill="#FFAC17"/>
<path d="M40.9051 24.2467C40.9051 24.2467 36.7744 38.5367 36.7744 44.2303C36.7744 49.9239 41.6866 55.0594 36.6628 55.3943C31.639 55.7292 23.7125 55.171 23.7125 55.171C23.7125 55.171 21.5914 54.6128 23.9358 48.9192C26.2802 43.2255 22.3728 30.2753 21.2564 28.2658C20.14 26.2563 40.9051 24.2467 40.9051 24.2467Z" fill="#000F30"/>
<path d="M33.7884 57.1599C33.7884 57.1599 41.4457 39.6349 43.6561 38.3718C45.8664 37.1088 53.9184 34.6616 56.6814 35.53C59.4443 36.3983 51.7081 58.1072 51.7081 58.1072L33.7884 57.1599Z" fill="#F4D35E"/>
<path d="M55.808 44.5291C50.2384 47.7925 43.6272 49.3011 37.0256 49.7853C35.1853 53.6763 33.7106 57.0503 33.7106 57.0503L51.5978 57.9961C51.5978 57.9961 54.1626 50.7954 55.808 44.5291Z" fill="#FFAC17"/>
<path d="M6.159 69.3169C6.00112 64.5804 4.18547 55.3443 8.76407 53.9233C13.3427 52.5024 19.4212 51.0025 31.4203 51.1604C43.4194 51.3183 55.5763 52.2655 57.1552 56.8442C58.734 61.4228 55.6553 70.1853 55.6553 70.1853L6.159 69.3169Z" fill="#163F8E"/>
<path d="M36.4777 73.1227H9.41294H2.74676C2.74676 73.1227 -2.18622 72.4161 1.48018 69.8163C2.59465 69.026 5.7909 67.9116 12.3611 67.5501C27.4056 66.7224 52.5611 67.474 56.8762 68.2164C63.0757 69.283 62.9415 73.1227 59.7088 73.1227H36.4777Z" fill="#F4D35E"/>
<path d="M41.5146 2.06921C39.989 2.46564 38.6819 2.98194 37.7748 3.64584L11.5928 22.8071C7.59831 25.7305 20.9275 42.779 23.9351 40.5779L50.4224 20.9275C51.3363 20.2495 52.2314 19.137 53.0782 17.7783C52.0361 17.822 50.7235 17.8205 49.585 17.6442C47.2683 17.2855 49.0735 14.1386 48.3494 12.0057C47.6253 9.87285 41.7038 10.0981 41.7024 8.12107C41.7013 6.62364 41.5641 3.57557 41.5146 2.06921Z" fill="#F4D35E"/>
<path d="M58.677 3.52087C55.4726 7.83434 47.7026 17.8545 42.2674 21.2116C35.2726 25.532 26.3138 33.4578 25.0226 34.1365C23.7314 34.8152 22.1932 35.1043 22.1932 35.1043C22.1932 35.1043 20.6189 31.6536 17.2723 28.0164C15.8294 26.4482 13.5111 24.6151 11.3402 23.0355C8.21745 26.5191 20.9979 42.7273 23.935 40.5778L50.4223 20.9274C54.1878 18.1339 57.6354 7.98348 58.677 3.52087Z" fill="#FFAC17"/>
<path d="M58.1075 1.1716C55.4153 0.770634 47.0332 0.635141 41.5146 2.06917C41.5641 3.57552 41.328 7.04901 41.329 8.54644C41.3305 10.5235 47.252 10.2982 47.976 12.4311C48.7001 14.5639 46.895 17.7109 49.2116 18.0695C50.3501 18.2458 52.0361 17.822 53.0782 17.7783C56.6459 12.0539 59.3528 1.94529 58.9607 1.40965C58.9001 1.3268 58.5984 1.24471 58.1075 1.1716Z" fill="#FEAC7C"/>
<path d="M58.1076 1.17159C56.8837 0.989339 54.48 0.86398 51.7079 0.913941C53.8077 2.54779 56.1584 5.59131 57.1857 8.60333C58.4604 4.86397 59.1754 1.70277 58.9609 1.40965C58.9002 1.3268 58.5985 1.24471 58.1076 1.17159Z" fill="#000F30"/>
<path d="M41.8271 9.01894L17.2586 28.6733L14.9829 26.9152L41.01 7.48669L41.8271 9.01894Z" fill="#FFAC17"/>
<path d="M41.5144 2.06921C41.5144 2.06921 40.1293 8.67075 41.365 9.91822C42.6008 11.1657 47.6578 11.607 47.6165 13.278C47.5753 14.949 46.5779 18.1804 48.5169 18.698C50.4558 19.2157 53.078 17.7783 53.078 17.7783L53.6087 16.9082C53.6087 16.9082 51.0474 18.0026 49.3042 17.8259C47.561 17.6492 49.5024 13.1351 48.3671 11.841C47.2317 10.547 42.2033 9.51993 41.8588 8.53472C41.5144 7.5495 41.5144 2.06921 41.5144 2.06921Z" fill="white"/>
<path d="M11.17 24.6835C16.81 28.509 24.6857 38.5437 21.5777 41.9196C19.2527 44.3761 16.741 47.6361 13.5827 46.8118C10.4245 45.9875 -0.283365 35.0335 2.15488 30.1134C4.59312 25.1933 8.69839 23.2582 11.17 24.6835Z" fill="#FB491A"/>
<path d="M2.88654 31.0063C10.4938 36.8783 12.7598 43.4656 14.7954 43.3113C16.8311 43.1571 19.0517 39.2092 19.8617 40.4746C20.6716 41.74 16.1432 45.8671 13.4933 45.6579C10.8433 45.4488 5.91176 39.1865 3.95975 36.2019C2.00774 33.2173 2.88654 31.0063 2.88654 31.0063Z" fill="#CF1531"/>
<path d="M21.7107 54.7916C26.605 54.318 37.1437 54.1996 39.3935 54.6337C41.6434 55.0679 41.9591 63.5936 40.4987 64.4225C39.0383 65.2514 23.0527 64.9751 21.316 64.6198C19.5792 64.2646 17.4084 55.1469 21.7107 54.7916Z" fill="white"/>
<path d="M23.2921 57.3138C25.9174 57.1719 38.6183 56.3914 39.1859 57.5622C39.7535 58.7329 27.7977 59.1941 24.1436 58.9813C20.4894 58.7684 20.9151 57.5267 23.2921 57.3138Z" fill="#F4D35E"/>
<path d="M26.4607 61.008C27.9039 60.93 34.8861 60.5009 35.1981 61.1445C35.5102 61.7881 28.9376 62.0417 26.9287 61.9247C24.9199 61.8077 25.1539 61.125 26.4607 61.008Z" fill="#F4D35E"/>
<path d="M11.7604 2.83719C11.7604 2.83719 10.221 2.08724 9.27375 3.3503C8.32645 4.61337 8.01069 4.5739 6.82657 3.82395C5.64244 3.07401 4.81356 2.9556 4.8925 2.60036C4.97144 2.24513 5.99768 0.942592 8.1291 0.903121C10.2605 0.863648 11.0499 1.45571 11.7604 2.83719Z" fill="#F4D35E"/>
<path d="M44.6453 27.4843C44.6453 27.4843 48.4969 25.4468 49.1667 26.3679C49.8366 27.2889 50.2273 30.4427 52.2926 29.6892C54.358 28.9356 54.665 27.9866 54.665 27.9866C54.2899 28.2367 54.2822 31.7864 50.4785 32.0894C45.9045 32.4538 43.5289 28.0425 44.6453 27.4843Z" fill="#163F8E"/>
<path d="M3.36919 24.5099C2.26184 23.8798 1.9252 22.5246 1.68406 23.0814C1.44292 23.6383 0.726821 25.7162 2.24079 26.8861C3.75477 28.056 5.85501 27.5327 6.55799 26.5881C7.26097 25.6434 7.54009 24.4049 7.54009 24.4049C7.54009 24.4049 6.38346 25.7785 3.36919 24.5099Z" fill="#163F8E"/>
<path d="M59.5234 36.0036C59.5234 36.7573 59.224 37.4802 58.6911 38.0131C58.1581 38.5461 57.4353 38.8455 56.6816 38.8455C55.9278 38.8455 55.205 38.5461 54.672 38.0131C54.1391 37.4802 53.8397 36.7573 53.8397 36.0036C53.8397 35.2499 54.1391 34.527 54.672 33.9941C55.205 33.4611 55.9278 33.1617 56.6816 33.1617C57.4353 33.1617 58.1581 33.4611 58.6911 33.9941C59.224 34.527 59.5234 35.2499 59.5234 36.0036Z" fill="#FB491A"/>
<path d="M4.58033 48.0027C4.58033 48.4842 4.38904 48.946 4.04854 49.2865C3.70804 49.627 3.24622 49.8183 2.76468 49.8183C2.28314 49.8183 1.82132 49.627 1.48082 49.2865C1.14032 48.946 0.949028 48.4842 0.949028 48.0027C0.949028 47.5211 1.14032 47.0593 1.48082 46.7188C1.82132 46.3783 2.28314 46.187 2.76468 46.187C3.24622 46.187 3.70804 46.3783 4.04854 46.7188C4.38904 47.0593 4.58033 47.5211 4.58033 48.0027Z" fill="#FB491A"/>
<path d="M60.9444 16.6629C60.9444 17.1445 60.7531 17.6063 60.4126 17.9468C60.0721 18.2873 59.6103 18.4786 59.1287 18.4786C58.6472 18.4786 58.1854 18.2873 57.8449 17.9468C57.5044 17.6063 57.3131 17.1445 57.3131 16.6629C57.3131 16.1814 57.5044 15.7196 57.8449 15.3791C58.1854 15.0386 58.6472 14.8473 59.1287 14.8473C59.6103 14.8473 60.0721 15.0386 60.4126 15.3791C60.7531 15.7196 60.9444 16.1814 60.9444 16.6629Z" fill="#F4D35E"/>
<path d="M20.6842 5.05851C20.6842 5.54005 20.4929 6.00187 20.1524 6.34237C19.8119 6.68287 19.3501 6.87416 18.8686 6.87416C18.387 6.87416 17.9252 6.68287 17.5847 6.34237C17.2442 6.00187 17.0529 5.54005 17.0529 5.05851C17.0529 4.57697 17.2442 4.11515 17.5847 3.77465C17.9252 3.43415 18.387 3.24286 18.8686 3.24286C19.3501 3.24286 19.8119 3.43415 20.1524 3.77465C20.4929 4.11515 20.6842 4.57697 20.6842 5.05851Z" fill="#163F8E"/>
<path d="M23.9885 12.4563C25.0212 11.5074 26.1096 11.0329 25.7747 9.88861C25.4398 8.7443 27.254 9.21877 28.482 9.27459C29.71 9.33041 29.7379 10.6143 29.5426 11.5632C29.3472 12.5122 28.9565 13.0703 28.9565 13.0703C28.9565 13.0703 27.0307 14.1588 26.8632 14.1588C26.6958 14.1588 23.9885 12.4563 23.9885 12.4563Z" fill="#CF1531"/>
<path d="M21.3372 12.6518C21.3372 12.6518 23.7096 11.2842 25.1609 11.9819C26.6122 12.6797 26.6122 13.517 27.7844 13.2937C28.9566 13.0704 28.9566 13.0704 28.9566 13.0704C28.9566 13.0704 27.9519 16.7266 25.4958 15.5265C23.0397 14.3264 22.0071 15.5544 21.5884 15.6939C21.1698 15.8335 20.3045 13.21 21.3372 12.6518Z" fill="#FB491A"/>
</svg>
