<svg width="54" height="68" viewBox="0 0 54 68" fill="none" xmlns="http://www.w3.org/2000/svg">
<path d="M27.7212 48.9013L19.1197 66.4862C18.8121 67.1119 17.9318 67.1331 17.5924 66.518L12.5757 57.4074C12.406 57.0998 12.056 56.9195 11.706 56.9725L1.43935 58.3089C0.739353 58.3938 0.240868 57.6725 0.55905 57.0468L1.23784 55.7528L5.78784 47.0135L9.7545 39.3877L15.8954 42.6331L26.3 48.1377L27.7212 48.9013Z" fill="#FF7A43"/>
<path d="M16.0016 44.3089C15.8107 45.2741 14.9516 46.1544 13.9546 46.1013C13.3925 46.0695 12.894 45.7619 12.3743 45.5498C11.844 45.3271 11.2076 45.221 10.7622 45.5604C10.2849 45.921 10.2319 46.6104 9.94553 47.1301C9.57431 47.7665 8.80007 48.1059 8.05765 48.0847C7.31522 48.0634 6.61522 47.7135 6.03189 47.2468C5.94704 47.1725 5.86219 47.1089 5.77734 47.0135L9.74401 39.3877L15.8849 42.6331C16.0546 43.1847 16.1076 43.7468 16.0016 44.3089Z" fill="#F26636"/>
<path d="M8.21673 51.9879C7.48492 51.9879 6.74249 51.7545 6.15916 51.3621C5.51219 50.9379 4.95007 50.3227 4.37734 49.4424C4.3031 49.3258 4.33492 49.1667 4.45158 49.0818C4.56825 49.0076 4.72734 49.0394 4.81219 49.1561C5.34249 49.9727 5.86219 50.5348 6.44552 50.9273C7.43189 51.5848 8.94855 51.7333 9.77583 50.853C10.1364 50.4712 10.3273 49.9727 10.5289 49.4424C10.6031 49.2515 10.6667 49.0712 10.7516 48.8909C11.1758 47.9152 11.844 47.3212 12.5864 47.2682C13.1379 47.2364 13.7001 47.5015 14.294 48.053C14.4001 48.1591 14.5061 48.2652 14.6016 48.3606C14.8986 48.6682 15.1849 48.9545 15.5349 49.1455C16.2879 49.5379 17.3592 49.347 18.0804 48.6894C18.7061 48.1061 19.1092 47.1833 19.2046 46.1121C19.247 45.6348 19.2364 45.1258 19.1728 44.5424C19.1304 44.0439 19.0455 43.5348 18.9819 43.1212C18.9607 42.9833 19.0561 42.8455 19.194 42.8242C19.3425 42.803 19.4698 42.8985 19.491 43.0364C19.5546 43.4606 19.6395 43.9803 19.6819 44.4894C19.7455 45.0939 19.7561 45.6455 19.7137 46.1545C19.6076 47.3636 19.1516 48.3924 18.4304 49.0712C17.5395 49.8879 16.2455 50.1 15.291 49.6121C14.8667 49.3894 14.5486 49.0606 14.2304 48.7318C14.1349 48.6364 14.0395 48.5303 13.9334 48.4348C13.4455 47.9788 13.0107 47.7773 12.6076 47.7879C11.844 47.8409 11.3773 48.7212 11.2182 49.103C11.144 49.2727 11.0698 49.453 11.0061 49.6333C10.794 50.1848 10.5713 50.7682 10.147 51.2136C9.64855 51.7545 8.93795 51.9879 8.21673 51.9879Z" fill="#F26636"/>
<path d="M27.7212 48.9015L19.1197 66.4863C18.8121 67.1121 17.9318 67.1333 17.5924 66.5181L12.5757 57.4075C12.406 57.1 12.056 56.9197 11.706 56.9727L1.43935 58.309C0.739353 58.3939 0.240868 57.6727 0.55905 57.0469L1.23784 55.753L1.36511 55.9651C2.43632 57.2166 4.41966 57.5666 5.85148 56.7606C7.01814 56.103 7.84541 54.7878 9.16057 54.5545C10.306 54.353 11.3984 55.053 12.4166 55.6151C13.4454 56.1772 14.7606 56.6121 15.7257 55.9545C16.4151 55.4878 16.7333 54.5651 17.4757 54.2045C18.4939 53.706 19.65 54.4803 20.7636 54.7348C22.8424 55.2121 24.9848 53.6636 25.8015 51.6909C26.2575 50.5772 26.3848 49.3681 26.3 48.1484L27.7212 48.9015Z" fill="#F26636"/>
<path d="M14.0924 60.4408C13.9969 60.4408 13.9121 60.3878 13.8697 60.3029L12.353 57.5454C12.2363 57.3226 11.9924 57.206 11.7485 57.2378L1.47118 58.5635C1.04694 58.6166 0.654512 58.4469 0.410572 58.0969C0.166633 57.7575 0.134815 57.312 0.325724 56.9302L9.52118 39.2711C9.553 39.2075 9.60603 39.1651 9.66966 39.1438C9.7333 39.1226 9.80754 39.1332 9.87118 39.1651L27.8485 48.6787C27.9757 48.7423 28.0182 48.9014 27.9545 49.0287C27.8909 49.156 27.7318 49.209 27.6045 49.1348L9.86057 39.7484L0.781784 57.1635C0.675724 57.3651 0.696936 57.609 0.824208 57.7893C0.951481 57.9802 1.17421 58.0651 1.39694 58.0438L11.6636 56.7181C12.1091 56.6545 12.5651 56.8772 12.7878 57.2908L14.3045 60.0484C14.3681 60.1757 14.3257 60.3348 14.1985 60.3984C14.1772 60.4302 14.1348 60.4408 14.0924 60.4408Z" fill="black"/>
<path d="M52.5605 58.5424L42.3045 57.2166C41.9438 57.1742 41.6045 57.3439 41.4348 57.6515L36.4181 66.7727C36.0893 67.3772 35.1878 67.3666 34.8908 66.7303L28.3151 53.2712L26.2893 49.1454L34.7848 44.4045L44.0438 39.2288L47.9257 46.6848L50.6938 52.0091L53.4514 57.2909C53.759 57.906 53.2605 58.6272 52.5605 58.5424Z" fill="#FF7A43"/>
<path d="M47.9152 46.6742C47.7349 46.9075 47.5228 47.1303 47.2894 47.3212C46.3773 48.0742 45.094 48.4136 43.9697 48.053C43.1319 47.7879 42.4425 47.1939 41.6788 46.7697C40.9046 46.3454 39.9288 46.0803 39.1758 46.5257C38.7409 46.7803 38.4122 47.2575 37.9243 47.3742C37.394 47.4909 36.8743 47.1515 36.4819 46.7909C35.75 46.1227 35.1667 45.306 34.7637 44.4045L44.0228 39.2288L47.9152 46.6742Z" fill="#F26636"/>
<path d="M45.1046 50.8318C44.0122 50.8318 42.9198 50.5348 42.0076 49.9621C41.9228 49.9091 41.8485 49.856 41.7637 49.803C41.4349 49.5909 41.1273 49.3894 40.7985 49.3576C40.2789 49.2939 39.8016 49.5909 39.2925 49.8985C38.9955 50.0788 38.6986 50.2697 38.3698 50.397C37.2455 50.8318 35.8243 50.4924 34.7319 49.5273C33.7773 48.6788 33.1622 47.5015 32.6213 46.4515C32.5576 46.3242 32.6001 46.1651 32.7273 46.1015C32.8546 46.0379 33.0137 46.0803 33.0773 46.2076C33.597 47.2045 34.191 48.35 35.0819 49.1348C36.0258 49.9727 37.2561 50.2803 38.1895 49.9091C38.4758 49.803 38.741 49.6333 39.0273 49.453C39.5895 49.103 40.1622 48.7424 40.8728 48.8379C41.3289 48.8909 41.7001 49.1348 42.0607 49.3682C42.1349 49.4212 42.2198 49.4742 42.294 49.5167C43.6834 50.3757 45.4864 50.5454 47.0137 49.9621C47.7137 49.6864 48.3713 49.2621 48.9122 48.7106C49.0076 48.6045 49.1773 48.6045 49.2728 48.7106C49.3789 48.806 49.3789 48.9757 49.2728 49.0712C48.6789 49.6651 47.9576 50.1424 47.194 50.4394C46.5152 50.7045 45.8152 50.8318 45.1046 50.8318Z" fill="#F26636"/>
<path d="M52.5606 58.5423L42.3046 57.2166C41.944 57.1742 41.6046 57.3439 41.4349 57.6514L36.4182 66.7726C36.0894 67.3772 35.1879 67.3666 34.8909 66.7302L28.3152 53.2711C29.5455 54.9257 30.9773 56.2832 32.7485 57.4817C33.597 58.0651 34.7212 58.5848 35.6228 58.0757C36.3015 57.6832 36.5667 56.8666 36.8531 56.1242C37.1394 55.4029 37.6379 54.6181 38.4122 54.5439C39.6531 54.4378 40.5228 56.2514 41.7425 55.9969C42.6334 55.806 42.9622 54.6181 43.7894 54.2363C44.3197 53.9923 44.9349 54.1196 45.4652 54.3423C45.9955 54.5651 46.4834 54.8939 47.0455 55.0529C48.0955 55.3605 49.3152 54.9999 50.0258 54.1832C50.5455 53.5893 50.7788 52.7726 50.7046 51.9878L53.4622 57.2696C53.7591 57.906 53.2606 58.6272 52.5606 58.5423Z" fill="#F26636"/>
<path d="M32.4304 61.9893C32.3349 61.9893 32.2395 61.9363 32.1971 61.8408L26.0455 49.2514C25.9819 49.1242 26.0349 48.9757 26.1516 48.9121L43.9061 38.9954C43.9698 38.9636 44.044 38.953 44.1077 38.9742C44.1713 38.9954 44.2349 39.0378 44.2667 39.1014L53.6743 57.1636C53.8652 57.5348 53.8334 57.9802 53.6001 58.3302C53.3561 58.6802 52.9637 58.8499 52.5395 58.7969C52.4016 58.7757 52.2955 58.6484 52.3167 58.5105C52.338 58.3727 52.4652 58.2666 52.6031 58.2878C52.8258 58.3196 53.0486 58.2242 53.1758 58.0333C53.3137 57.8424 53.3243 57.609 53.2183 57.3969L43.938 39.5681L26.6289 49.2408L32.6849 61.6181C32.7486 61.7454 32.6955 61.9045 32.5683 61.9681C32.5152 61.9893 32.4728 61.9893 32.4304 61.9893Z" fill="black"/>
<path d="M34.5622 47.2786C33.3425 47.1619 32.1864 46.4301 31.0197 47.1407C30.3516 47.5438 29.8531 48.1907 29.3228 48.7635C28.7925 49.3468 28.1561 49.8983 27.3819 50.0256C26.0561 50.2483 24.9106 49.1983 23.9455 48.265C22.9803 47.3422 21.6864 46.3877 20.4243 46.8331C19.5652 47.1301 18.9394 48.0422 18.0273 48.0953C16.9349 48.1589 16.2137 46.9816 15.8955 45.9422C15.5773 44.8922 15.3016 43.6725 14.3364 43.1635C13.1591 42.5377 11.547 43.3225 10.4546 42.5589C8.88489 41.4665 10.1258 38.6029 8.74701 37.2665C7.65459 36.2165 5.50156 36.7362 4.7061 35.4422C4.25004 34.6998 4.51519 33.7347 4.86519 32.9286C5.21519 32.1225 5.62883 31.2741 5.42731 30.4256C5.06671 28.9513 3.07277 28.3998 2.58489 26.968C2.15004 25.6847 3.10459 24.3695 3.97428 23.3301C4.61065 22.5559 5.3955 21.5271 5.35307 20.4665C5.31065 19.5119 4.47277 18.7589 4.30307 17.7725C4.12277 16.7862 4.43034 15.6513 5.28944 15.1422C5.97883 14.7286 6.86974 14.7922 7.52732 14.3362C8.39701 13.7316 8.49247 12.5013 8.46065 11.4407C8.42883 10.3801 8.38641 9.18164 9.13944 8.43921C10.5394 7.06042 13.1591 8.52406 14.7819 7.42103C15.5879 6.86952 15.8955 5.85133 16.2349 4.93921C16.5743 4.02709 17.1152 3.03012 18.0591 2.79679C19.6288 2.41497 21.1667 4.34527 22.6728 3.76194C23.8394 3.30588 24.1258 1.60891 25.2925 1.15285C26.247 0.781638 27.297 1.42861 28.0076 2.17103C28.7182 2.91346 29.3758 3.80436 30.3516 4.10133C31.3803 4.41952 32.4622 3.98467 33.4803 3.63467C34.4985 3.28467 35.6864 3.01952 36.5773 3.61346C38.4864 4.88618 37.9243 7.65436 40.8728 7.47406C41.9546 7.41043 43.1955 7.1983 44.0122 7.90891C44.7758 8.57709 44.797 9.73315 44.7122 10.7407C44.6273 11.7483 44.5319 12.8725 45.1682 13.6574C46.144 14.8665 48.3925 14.7074 48.9652 16.1498C49.5379 17.5922 47.8091 18.9816 47.8197 20.5195C47.8303 22.4498 50.4606 23.5528 50.5667 25.4832C50.6728 27.5089 47.9788 28.7286 47.7985 30.7544C47.7137 31.6983 48.2016 32.5786 48.5516 33.4695C48.8909 34.3498 49.0713 35.4529 48.4455 36.1741C47.597 37.1498 45.8682 36.7786 44.9349 37.6801C44.2985 38.3059 44.2667 39.3135 44.2455 40.2044C44.2137 41.1059 44.0546 42.1347 43.291 42.6013C42.1773 43.2907 40.6182 42.2725 39.4409 42.8559C38.2637 43.4392 38.2849 45.1468 37.4894 46.1862C36.8213 47.0665 35.644 47.3847 34.5622 47.2786Z" fill="#FFCD3B"/>
<path d="M27.0318 50.312C25.6954 50.312 24.5499 49.209 23.7651 48.456C22.4712 47.215 21.4106 46.7696 20.509 47.0772C20.1802 47.1938 19.8833 47.406 19.5757 47.6393C19.1196 47.9681 18.653 48.3181 18.0484 48.3499C16.8287 48.4241 16.0121 47.1938 15.6515 46.0166L15.556 45.6984C15.2802 44.765 14.9939 43.7999 14.2196 43.3863C13.7212 43.1211 13.1166 43.1423 12.4696 43.1635C11.7272 43.1847 10.953 43.2166 10.306 42.7711C9.38328 42.1347 9.31964 40.9999 9.25601 39.9075C9.20298 38.9423 9.14995 38.0302 8.55601 37.4575C8.11055 37.0226 7.44237 36.8847 6.73177 36.7363C5.86207 36.556 4.96055 36.3757 4.47268 35.5802C3.92116 34.6893 4.29237 33.5863 4.61055 32.8332L4.6848 32.6529C5.00298 31.9317 5.32116 31.1893 5.15146 30.4893C4.98177 29.8105 4.40904 29.3332 3.80449 28.8347C3.19995 28.3363 2.57419 27.8166 2.30904 27.0529C1.85298 25.706 2.72267 24.3908 3.74086 23.1605C4.45146 22.312 5.09843 21.3893 5.05601 20.4772C5.0348 20.0211 4.80146 19.6075 4.55752 19.162C4.32419 18.7484 4.09086 18.3135 4.00601 17.815C3.8257 16.8075 4.10146 15.5241 5.10904 14.9196C5.46964 14.7075 5.86207 14.612 6.25449 14.5166C6.65752 14.4211 7.02874 14.3257 7.33631 14.1135C8.12116 13.562 8.1848 12.3954 8.15298 11.4408C8.12116 10.3908 8.07874 9.08626 8.92722 8.24838C9.74389 7.44232 10.8999 7.50596 12.0136 7.5696C12.9893 7.62263 13.9015 7.67566 14.6015 7.19838C15.2696 6.74232 15.5772 5.90444 15.8742 5.08778L15.9696 4.83323C16.4681 3.49687 17.1151 2.74384 17.9742 2.53172C18.8227 2.3196 19.6181 2.70141 20.3924 3.06202C21.156 3.42263 21.8772 3.76202 22.5454 3.49687C23.0545 3.29535 23.3833 2.80747 23.7333 2.28778C24.1151 1.72566 24.5075 1.14232 25.1651 0.887778C26.4484 0.389293 27.6893 1.47111 28.1666 1.95899C28.3045 2.10747 28.4424 2.25596 28.5803 2.40444C29.1424 3.0196 29.6727 3.60293 30.4045 3.82566C31.2848 4.09081 32.2393 3.75141 33.1621 3.43323L33.3742 3.35899C34.3075 3.0302 35.6651 2.6802 36.7045 3.3696C37.5106 3.91051 37.9136 4.69535 38.2636 5.38475C38.7939 6.44535 39.2181 7.28323 40.8515 7.18778C40.9999 7.17717 41.1484 7.16657 41.2969 7.15596C42.2727 7.08172 43.3863 6.99687 44.1712 7.68626C45.0302 8.43929 45.0409 9.71202 44.956 10.7408C44.8712 11.7484 44.7863 12.7772 45.359 13.4772C45.7515 13.9757 46.4302 14.2302 47.0878 14.4741C47.9469 14.8029 48.8484 15.1423 49.1984 16.0332C49.559 16.9454 49.1136 17.8151 48.6893 18.6529C48.3818 19.2575 48.0636 19.8832 48.0636 20.4984C48.0636 20.6363 47.9469 20.7635 47.809 20.7635C47.6712 20.7635 47.5545 20.6469 47.5545 20.509C47.5545 19.7666 47.8939 19.0878 48.2333 18.4196C48.6257 17.6454 48.9969 16.9241 48.7212 16.2241C48.4454 15.5454 47.703 15.259 46.9075 14.9514C46.1863 14.6757 45.4439 14.3999 44.9666 13.7954C44.2666 12.9257 44.3727 11.7484 44.4575 10.6984C44.5318 9.78626 44.5318 8.66202 43.8424 8.06808C43.2166 7.52717 42.2727 7.60141 41.3499 7.66505C41.1909 7.67566 41.0424 7.68626 40.8939 7.69687C38.9318 7.81354 38.3696 6.68929 37.8181 5.60747C37.4787 4.93929 37.1287 4.2499 36.4393 3.78323C35.5909 3.22111 34.3924 3.53929 33.5651 3.82566L33.3636 3.8999C32.409 4.23929 31.3272 4.62111 30.2878 4.30293C29.4287 4.03778 28.8242 3.3802 28.2409 2.73323C28.103 2.58475 27.9757 2.43626 27.8378 2.29838C27.5196 1.9696 26.4166 0.940808 25.3984 1.34384C24.8787 1.58778 24.5499 2.08626 24.1999 2.59535C23.8181 3.16808 23.4257 3.75141 22.7575 4.00596C21.8772 4.34535 21.0181 3.94232 20.1909 3.5499C19.4696 3.21051 18.7803 2.88172 18.1121 3.05141C17.4333 3.22111 16.8924 3.86808 16.4681 5.02414L16.3727 5.26808C16.0651 6.11657 15.7151 7.08172 14.909 7.63323C14.0606 8.20596 13.0106 8.14232 12.003 8.08929C10.953 8.03626 9.96661 7.98323 9.30904 8.6196C8.61964 9.29838 8.66207 10.4757 8.68328 11.4196C8.7151 12.512 8.63025 13.8378 7.64389 14.5272C7.26207 14.7923 6.81661 14.8984 6.39237 15.0044C6.03177 15.0893 5.68177 15.1741 5.3954 15.3438C4.59995 15.8211 4.38783 16.9029 4.53631 17.709C4.61055 18.1226 4.81207 18.4938 5.0348 18.8969C5.29995 19.3741 5.5651 19.862 5.59692 20.4347C5.64995 21.5272 4.93934 22.5454 4.1651 23.4787C3.24237 24.5817 2.44692 25.759 2.81813 26.8726C3.03025 27.4984 3.57116 27.9438 4.14389 28.4211C4.79086 28.9514 5.45904 29.5029 5.66055 30.3514C5.87267 31.2211 5.49086 32.0802 5.16207 32.8438L5.08783 33.0241C4.64237 34.0529 4.58934 34.7741 4.90752 35.2938C5.27874 35.8878 6.03177 36.0469 6.82722 36.2166C7.58025 36.3757 8.35449 36.5347 8.90601 37.065C9.63783 37.7757 9.70146 38.8363 9.75449 39.8544C9.80752 40.8726 9.86055 41.8272 10.5818 42.3257C11.0803 42.6757 11.7378 42.6544 12.4272 42.6226C13.106 42.6014 13.8166 42.5802 14.4424 42.909C15.4075 43.4181 15.7363 44.5423 16.0333 45.5287L16.1287 45.8363C16.4257 46.8226 17.0939 47.862 17.9954 47.809C18.4409 47.7878 18.8333 47.5014 19.2469 47.1938C19.5757 46.9499 19.9151 46.706 20.3181 46.5575C21.4212 46.1757 22.6621 46.6635 24.1045 48.0529C25.1439 49.0499 26.1727 49.9302 27.3181 49.7393C28.0606 49.612 28.6651 49.0499 29.1106 48.562C29.2166 48.4454 29.3121 48.3393 29.4181 48.2226C29.8424 47.7347 30.2878 47.2363 30.8606 46.8969C31.7727 46.3454 32.653 46.5681 33.5121 46.7908C33.8621 46.8757 34.2121 46.9711 34.5621 47.0029C35.4424 47.0878 36.609 46.8757 37.256 46.0272C37.3409 45.9105 37.4999 45.8893 37.6166 45.9741C37.7333 46.059 37.7545 46.2181 37.6696 46.3347C37.0227 47.1832 35.8136 47.6393 34.5196 47.512C34.1272 47.4696 33.756 47.3741 33.3848 47.2893C32.5681 47.0772 31.8575 46.9075 31.1257 47.3423C30.6166 47.6499 30.2242 48.0954 29.7999 48.5726C29.6939 48.6893 29.5878 48.806 29.4924 48.9226C28.9939 49.4635 28.3045 50.1105 27.403 50.259C27.2969 50.3014 27.159 50.312 27.0318 50.312Z" fill="black"/>
<path d="M44.8075 25.0695C44.8075 35.1241 36.662 43.2695 26.6075 43.2695C22.2908 43.2695 18.3347 41.7635 15.2166 39.2604C14.665 38.8256 14.1453 38.3483 13.6575 37.8498C13.4453 37.6377 13.2332 37.4256 13.0423 37.2029C12.109 36.1635 11.2923 35.0074 10.6241 33.7771C9.88171 32.4195 9.30899 30.9559 8.92717 29.4074C8.58777 28.018 8.40747 26.565 8.40747 25.0801C8.40747 21.9301 9.21353 18.9604 10.6241 16.3619C12.2893 13.3074 14.8029 10.8044 17.8363 9.12861C20.106 7.8771 22.6726 7.10285 25.3984 6.92255C25.8014 6.89073 26.1938 6.88013 26.6075 6.88013C30.8287 6.88013 34.7105 8.31195 37.7969 10.7301C39.8014 12.2998 41.4772 14.2726 42.6757 16.5422C44.0332 19.0665 44.8075 21.9832 44.8075 25.0695Z" fill="#509DFF"/>
<path d="M15.5879 13.2544C15.4076 13.7529 15.4818 14.3468 15.7682 14.7923C16.0015 15.1317 16.3409 15.3756 16.6909 15.6089C17.0303 15.8423 17.3909 16.065 17.6561 16.3832C17.9212 16.7014 18.0803 17.1362 17.9636 17.5286C17.847 17.9317 17.3909 18.2286 16.9985 18.0801C16.6379 17.9423 16.3939 17.465 16.0015 17.5074C15.6939 17.5392 15.5242 17.8786 15.4712 18.1862C15.4182 18.4938 15.4182 18.8226 15.2273 19.0559C14.9091 19.4377 14.2939 19.3423 13.8273 19.1408C12.4909 18.5892 11.3455 17.5817 10.603 16.3408C12.2682 13.2862 14.7818 10.7832 17.8151 9.10742C18.0167 9.34076 18.197 9.60591 18.3348 9.87106C18.4939 10.1786 18.6212 10.518 18.6318 10.8574C18.6424 11.2074 18.5151 11.568 18.2394 11.7801C17.8258 12.1195 17.2212 12.0347 16.7121 12.1832C16.2136 12.3423 15.7788 12.7453 15.5879 13.2544Z" fill="#308CEF"/>
<path d="M15.1954 22.9696C14.9621 22.9696 14.7288 22.9377 14.4848 22.8741C13.806 22.6938 13.2333 22.2802 12.7136 21.8559C11.4939 20.8696 10.4333 19.7029 9.56362 18.3983C9.48938 18.2817 9.5212 18.1226 9.63786 18.0377C9.75453 17.9635 9.91362 17.9953 9.99847 18.112C10.8363 19.3741 11.8651 20.509 13.0424 21.4635C13.5197 21.8453 14.0394 22.2271 14.6333 22.3862C15.2379 22.5559 15.853 22.4499 16.2454 22.1105C16.5 21.8877 16.6591 21.5696 16.8394 21.2302C16.8924 21.1347 16.9348 21.0393 16.9879 20.9438C17.3379 20.3074 17.7409 19.9468 18.2182 19.8514C18.8439 19.7241 19.4803 20.0635 20.1379 20.859L20.1909 20.9332C20.5727 21.4105 20.9757 21.8983 21.506 21.962C21.7606 21.9938 22.0257 21.8983 22.2485 21.718C22.5242 21.4847 22.7151 21.1241 22.7257 20.7847C22.7682 20.1696 22.45 19.5014 21.8454 18.9605C21.4424 18.5893 20.9651 18.3135 20.4667 18.0271C20.2863 17.9211 20.1167 17.8256 19.947 17.7196C19.3 17.3165 18.5894 16.8074 18.1863 16.0544C17.7303 15.2059 17.8045 14.1877 18.3773 13.5832C18.7697 13.1696 19.3 13.0105 19.8197 12.8514C20.2545 12.7241 20.6682 12.5968 20.9651 12.3317C21.3045 12.0241 21.506 11.5256 21.4848 10.9953C21.4636 10.5286 21.2939 10.0408 20.9757 9.53168C20.6894 9.07562 20.3288 8.68319 19.8939 8.35441C19.7773 8.26956 19.756 8.11047 19.8409 7.9938C19.9257 7.87713 20.0848 7.85592 20.2015 7.94077C20.6894 8.30138 21.0924 8.74683 21.4106 9.25592C21.7818 9.83925 21.9727 10.4226 21.9939 10.9741C22.0257 11.6635 21.7606 12.3105 21.3045 12.7135C20.9121 13.0529 20.4348 13.2014 19.9682 13.3393C19.4909 13.4877 19.0454 13.615 18.7485 13.9332C18.2818 14.4317 18.3348 15.2483 18.6318 15.8105C18.9818 16.4574 19.6288 16.9241 20.2121 17.2847C20.3818 17.3908 20.5515 17.4862 20.7212 17.5923C21.2197 17.8893 21.7394 18.1862 22.1848 18.5893C22.906 19.2362 23.2879 20.0529 23.2348 20.8271C23.203 21.315 22.9591 21.8029 22.5666 22.1317C22.2273 22.418 21.8242 22.5347 21.4318 22.5029C20.7 22.418 20.2121 21.8135 19.7773 21.2832L19.7242 21.209C19.2045 20.5726 18.7273 20.2968 18.3136 20.3817C17.9848 20.4453 17.6985 20.7211 17.4333 21.2196C17.3803 21.315 17.3379 21.3999 17.2848 21.4953C17.0939 21.8559 16.903 22.2377 16.5742 22.5241C16.2136 22.7999 15.7151 22.9696 15.1954 22.9696Z" fill="#308CEF"/>
<path d="M37.8289 10.7196C37.8076 10.8681 37.7546 11.006 37.6486 11.1227C37.3622 11.4408 36.8637 11.4302 36.4395 11.3454C35.1455 11.1014 33.9364 10.4863 32.6319 10.2424C31.9955 10.1151 30.447 9.94539 30.0016 10.603C29.641 11.1227 30.4789 11.2818 30.8076 11.5681C31.2849 11.9924 31.5289 12.6287 31.7092 13.2227C31.8895 13.8272 32.0167 14.4636 32.3137 15.0257C32.8016 15.9696 33.7031 16.6272 34.2652 17.5393C34.9652 18.6742 35.0395 20.1696 34.4773 21.3681C33.9046 22.5666 32.6955 23.4469 31.3804 23.6166C30.8925 23.6802 30.3516 23.6378 29.991 23.309C29.5773 22.9166 29.5455 22.2378 29.7683 21.7181C29.991 21.1878 30.394 20.7742 30.7864 20.3711C31.3486 19.7772 31.9001 19.109 32.0273 18.303C32.1546 17.5075 31.6455 16.553 30.8395 16.4787C30.0546 16.4151 29.4501 17.1575 29.1107 17.8787C28.7713 18.5999 28.5061 19.4166 27.838 19.8302C27.2864 20.1696 26.5334 20.1378 26.0137 19.756C25.494 19.3742 25.2395 18.6636 25.4092 18.0272C25.5152 17.656 25.738 17.3378 25.8546 16.9666C25.9607 16.606 25.9289 16.1287 25.6001 15.9272C25.1016 15.6196 24.5289 16.1393 24.0092 16.3833C23.2667 16.7227 22.3016 16.4469 21.8561 15.7681C21.4107 15.0893 21.538 14.0924 22.1531 13.5514C22.6834 13.0848 23.4258 12.9893 24.094 12.756C24.7516 12.5227 25.441 11.9817 25.388 11.2817C25.3561 10.8681 25.0592 10.5181 24.8683 10.1575C24.4864 9.4363 24.4546 8.52417 24.7834 7.78175C24.9425 7.45296 25.1546 7.15599 25.4304 6.91205C25.8334 6.88023 26.2258 6.86963 26.6395 6.86963C30.8607 6.86963 34.7425 8.31205 37.8289 10.7196Z" fill="#D3DC5E"/>
<path d="M42.697 26.9575C42.1773 28.8136 40.5864 30.3303 38.7091 30.7651C37.9667 30.9242 37.044 31.0621 36.8106 31.7833C36.5667 32.5045 37.2667 33.3424 36.9379 34.0212C36.7152 34.4772 36.1318 34.6363 35.6228 34.6257C35.1137 34.6151 34.594 34.4878 34.1061 34.6151C33.5546 34.753 33.1091 35.1772 32.7167 35.5803C32.3137 35.9833 31.9 36.4181 31.3591 36.5772C30.4894 36.8318 30.044 36.153 29.4925 35.6651C29.397 35.5803 29.3122 35.506 29.2167 35.4212C28.6864 34.9121 28.294 34.3606 28.3364 33.5439C28.3894 32.5575 29.1425 31.6454 30.097 31.4121C30.5425 31.306 31.0197 31.3272 31.4546 31.2212C32.2712 31.0197 32.9394 30.3939 33.3743 29.6621C33.7985 28.9409 34.0318 28.1136 34.2546 27.2969L35.0182 24.5394C35.1773 23.9666 35.9515 23.8606 36.2379 24.3909L37.5 26.6606L37.9243 27.4348C38.094 27.7424 38.3379 28.0924 38.6879 28.0818C39.0803 28.0712 39.2925 27.6257 39.4091 27.2439L40.8409 22.8106C41.0212 22.2803 41.7425 22.1742 42.0394 22.6515C42.8349 23.9242 43.0894 25.5151 42.697 26.9575Z" fill="#D3DC5E"/>
<path d="M27.7212 38.0513C27.6894 38.4438 27.4561 38.7938 27.1803 39.0695C26.0455 40.2468 24.1682 40.6392 22.6622 40.0135C21.6864 39.6104 20.9122 38.8468 20.0743 38.1998C19.6712 37.8816 19.247 37.5847 18.7909 37.3725C18.2925 37.1286 17.7622 36.9801 17.2106 37.0013C16.8076 37.0119 16.4894 37.1604 16.2243 37.4044C15.747 37.8286 15.4712 38.5392 15.2485 39.2498C14.697 38.815 14.1773 38.3377 13.6894 37.8392C13.4773 37.6271 13.2652 37.415 13.0743 37.1922C12.8409 36.9377 12.6182 36.6619 12.3955 36.3968C12.3849 36.3862 12.3637 36.365 12.3637 36.3544C11.9606 35.8453 11.5894 35.315 11.25 34.7741C11.2076 34.6998 11.1546 34.6256 11.1122 34.5513C10.9531 34.2968 10.8046 34.0422 10.6667 33.7771C9.92427 32.4195 9.35154 30.9559 8.96973 29.4074C9.11821 29.3968 9.25609 29.3756 9.40457 29.3438C10.1682 29.1316 10.794 28.4953 11.0061 27.7316C11.2182 26.9468 10.9955 26.1301 11.0485 25.3135C11.1121 24.5074 11.6531 23.5953 12.4591 23.6589C13.1379 23.7013 13.5515 24.3801 13.8167 25.0059C14.0818 25.621 14.347 26.3316 14.9622 26.5968C15.5031 26.8407 16.15 26.6392 16.6697 26.3422C17.1788 26.0347 17.6455 25.6316 18.197 25.4195C18.7591 25.2074 19.4803 25.2604 19.8303 25.7483C20.2864 26.3635 19.894 27.3074 20.2652 27.965C20.7955 28.8983 22.4818 28.7498 22.7894 29.7786C22.9591 30.3301 22.5773 30.9135 22.0894 31.2104C21.6015 31.518 21.0288 31.6453 20.5091 31.8892C19.9788 32.1225 19.4697 32.5256 19.3849 33.0983C19.247 33.9362 20.0849 34.6044 20.8909 34.8695C21.1773 34.965 21.4637 35.0286 21.7606 35.1135C22.2909 35.2513 22.8212 35.4104 23.2349 35.7604C23.6697 36.1316 23.9243 36.6725 24.2743 37.118C24.6349 37.5741 25.197 37.9453 25.7591 37.7968C26.2364 37.6589 26.6182 37.118 27.1167 37.1922C27.4985 37.2347 27.7531 37.6589 27.7212 38.0513Z" fill="#D3DC5E"/>
<path d="M44.8394 25.0696C44.8394 35.1242 36.694 43.2696 26.6394 43.2696C22.3228 43.2696 18.3667 41.7636 15.2485 39.2605C15.4713 38.5393 15.747 37.8287 16.2243 37.4151C17.0834 37.5848 17.9743 37.5954 18.791 37.3833C19.247 37.5954 19.6819 37.8923 20.0743 38.2105C20.9016 38.8575 21.6758 39.6211 22.6622 40.0242C24.1682 40.6499 26.0455 40.2575 27.1804 39.0802C27.4561 38.7939 27.6894 38.4545 27.7213 38.062C27.7531 37.6696 27.4985 37.2454 27.1061 37.1923C26.6076 37.1287 26.2364 37.659 25.7485 37.7969C25.197 37.956 24.6243 37.5742 24.2637 37.1181C23.9031 36.662 23.6591 36.1211 23.2243 35.7605C22.8107 35.3999 22.2804 35.2514 21.75 35.1136C22.1743 34.6045 22.6197 34.1378 23.2243 33.8726C25.144 33.0666 27.2016 34.912 29.2061 35.4317C29.291 35.5166 29.3864 35.5908 29.4819 35.6757C30.0334 36.1636 30.4788 36.8423 31.3485 36.5878C31.8894 36.4287 32.3137 35.9939 32.7061 35.5908C33.1091 35.1878 33.544 34.7636 34.0955 34.6257C34.5834 34.509 35.1031 34.6257 35.6122 34.6363C36.1107 34.6469 36.7046 34.4984 36.9273 34.0317C37.2561 33.3423 36.5561 32.5151 36.8001 31.7939C37.0334 31.0726 37.9667 30.9454 38.6985 30.7757C40.5758 30.3514 42.1667 28.8242 42.6864 26.9681C43.0788 25.5363 42.8243 23.9348 42.0394 22.662C41.7425 22.1848 41.0213 22.2908 40.841 22.8211L39.4091 27.2545C39.2925 27.6363 39.0804 28.0711 38.6879 28.0923C38.3379 28.103 38.094 27.7529 37.9243 27.4454L37.5001 26.6711C38.1682 26.5863 38.8046 26.459 39.2288 25.9605C40.4591 24.5287 38.3591 22.1848 39.2076 20.4878C39.6637 19.5757 40.7879 19.2469 41.5516 18.5787C42.1561 18.059 42.5379 17.3272 42.7076 16.5317C44.0758 19.0666 44.8394 21.9833 44.8394 25.0696Z" fill="#308CEF"/>
<path d="M14.8242 36.9591C15.2697 37.1606 15.7469 37.3197 16.2348 37.4151C15.7575 37.8394 15.4818 38.55 15.2591 39.2606C14.7075 38.8257 14.1879 38.3485 13.7 37.85C13.4879 37.6378 13.2757 37.4257 13.0848 37.203C12.8515 36.9484 12.6288 36.6727 12.406 36.4075C12.3954 36.3969 12.3742 36.3757 12.3742 36.3651C11.9712 35.856 11.6 35.3257 11.2606 34.7848C11.2182 34.7106 11.1651 34.6363 11.1227 34.5621C10.9636 34.3075 10.8151 34.053 10.6772 33.7878C11.9075 35.0288 13.2121 36.2484 14.8242 36.9591Z" fill="#C6C945"/>
<path d="M26.6499 43.5241C26.5121 43.5241 26.3954 43.4074 26.3954 43.2695C26.3954 43.1317 26.5121 43.015 26.6499 43.015C36.5454 43.015 44.5848 34.965 44.5848 25.0695C44.5848 22.1317 43.853 19.215 42.4848 16.6589C41.3181 14.4635 39.6636 12.4801 37.6696 10.9317C34.4984 8.44984 30.6802 7.13469 26.6393 7.13469C26.2363 7.13469 25.8439 7.14529 25.4515 7.17711C17.2742 7.70741 10.5075 13.6998 9.00145 21.7604C8.96964 21.8983 8.84236 21.9938 8.70448 21.962C8.56661 21.9407 8.47115 21.8029 8.50297 21.665C10.0515 13.3711 17.009 7.20893 25.4196 6.65741C25.8227 6.6256 26.2257 6.61499 26.6393 6.61499C30.7969 6.61499 34.7211 7.96196 37.9878 10.518C40.0242 12.1195 41.7424 14.1559 42.9408 16.415C44.3515 19.0559 45.1045 22.0468 45.1045 25.0695C45.1045 35.2514 36.8211 43.5241 26.6499 43.5241Z" fill="black"/>
<path d="M27.7211 38.0515C27.6893 38.4439 27.4559 38.7939 27.1802 39.0697C26.0453 40.247 24.168 40.6394 22.662 40.0136C21.6862 39.6106 20.912 38.847 20.0741 38.2C19.6711 37.8818 19.2468 37.5848 18.7908 37.3727C19.4271 37.2136 20.0105 36.9167 20.5196 36.4924C20.9862 36.0894 21.368 35.5697 21.7605 35.103C22.2908 35.2409 22.8211 35.4 23.2347 35.75C23.6696 36.1212 23.9241 36.6621 24.2741 37.1076C24.6347 37.5636 25.1968 37.9348 25.759 37.7864C26.2362 37.6485 26.618 37.1076 27.1165 37.1818C27.4983 37.2348 27.7529 37.6591 27.7211 38.0515Z" fill="#C6C945"/>
<path d="M42.6969 26.9576C42.1772 28.8136 40.5863 30.3303 38.709 30.7651C37.9666 30.9242 37.0438 31.0621 36.8105 31.7833C36.5666 32.5045 37.2666 33.3424 36.9378 34.0212C36.715 34.4773 36.1317 34.6363 35.6226 34.6257C35.1135 34.6151 34.5938 34.4879 34.1059 34.6151C33.5544 34.753 33.109 35.1773 32.7166 35.5803C32.3135 35.9833 31.8999 36.4182 31.359 36.5773C30.4893 36.8318 30.0438 36.153 29.4923 35.6651C29.3969 35.5803 29.312 35.506 29.2166 35.4212C29.8635 35.5909 30.4999 35.6227 31.1363 35.3788C32.6953 34.7742 33.2044 32.8545 33.4802 31.2106C33.7666 29.556 34.2438 27.647 35.7923 27.0106C36.312 26.7985 36.9166 26.756 37.4999 26.6818L37.9241 27.456C38.0938 27.7636 38.3378 28.1136 38.6878 28.103C39.0802 28.0924 39.2923 27.647 39.409 27.2651L40.8408 22.8318C41.0211 22.3015 41.7423 22.1954 42.0393 22.6727C42.8347 23.9242 43.0893 25.5151 42.6969 26.9576Z" fill="#C6C945"/>
<path d="M37.8287 27.1803C37.2878 27.1803 36.7999 27.4349 36.4499 27.8591C36.0999 28.2833 35.8772 28.8561 35.8772 29.4818C35.8772 28.2091 35.0075 27.1803 33.9363 27.1803C34.4772 27.1803 34.9545 26.9258 35.3151 26.5121C35.6651 26.0879 35.8772 25.5152 35.8772 24.8894C35.8772 25.5258 36.0999 26.0985 36.4499 26.5121C36.7999 26.9258 37.2878 27.1803 37.8287 27.1803Z" fill="white"/>
<path d="M18.3243 55.2545C17.7834 55.2545 17.2955 55.5091 16.9455 55.9333C16.5955 56.3576 16.3728 56.9303 16.3728 57.556C16.3728 56.2833 15.5031 55.2545 14.4319 55.2545C14.9728 55.2545 15.4501 55 15.8107 54.5863C16.1607 54.1621 16.3728 53.5894 16.3728 52.9636C16.3728 53.6 16.5955 54.1727 16.9455 54.5863C17.2955 55 17.7834 55.2545 18.3243 55.2545Z" fill="white"/>
<path d="M45.8682 48.1908C45.55 48.1908 45.2636 48.3393 45.0621 48.5833C44.85 48.8272 44.7227 49.1666 44.7227 49.5378C44.7227 48.7954 44.2136 48.1802 43.5879 48.1802C43.9061 48.1802 44.1818 48.0317 44.394 47.7878C44.5955 47.5439 44.7227 47.2045 44.7227 46.8333C44.7227 47.2045 44.85 47.5439 45.0621 47.7878C45.2636 48.0423 45.55 48.1908 45.8682 48.1908Z" fill="white"/>
<path d="M34.9862 29.3439C34.6999 29.3439 34.4347 29.4818 34.2438 29.7045C34.0529 29.9273 33.9362 30.2348 33.9362 30.5848C33.9362 29.8955 33.4696 29.3439 32.8862 29.3439C33.1726 29.3439 33.4377 29.2061 33.6287 28.9833C33.8196 28.7606 33.9362 28.453 33.9362 28.103C33.9362 28.4424 34.0529 28.75 34.2438 28.9833C34.4347 29.1955 34.6999 29.3439 34.9862 29.3439Z" fill="white"/>
<path d="M36.0469 13.6998C35.7181 14.0816 34.2863 13.371 32.5787 12.5544C30.8817 11.7165 29.4393 11.0483 29.5348 10.5498C29.609 10.0726 31.4226 9.99832 33.3635 10.9423C35.3151 11.8756 36.3757 13.3392 36.0469 13.6998Z" fill="white"/>
<path d="M38.3485 15.9802C38.1788 16.1181 37.7334 15.8423 37.3197 15.3969C36.9061 14.9514 36.6515 14.4954 36.8 14.3363C36.9485 14.1772 37.447 14.3893 37.8924 14.856C38.3273 15.3333 38.5076 15.8529 38.3485 15.9802Z" fill="white"/>
<path d="M30.7226 52.0727C31.1468 51.8076 32.0483 52.5288 32.7483 53.6742C33.4483 54.8197 33.6604 55.9439 33.2256 56.1985C32.7907 56.4424 31.8892 55.7318 31.1998 54.597C30.5104 53.4621 30.2983 52.3379 30.7226 52.0727Z" fill="white"/>
<path d="M29.609 50.2484C29.7893 50.1317 30.1075 50.3226 30.3302 50.6726C30.5424 51.0226 30.5742 51.4045 30.3833 51.5211C30.203 51.6378 29.8742 51.4469 29.6621 51.0969C29.4499 50.7363 29.4287 50.3651 29.609 50.2484Z" fill="white"/>
</svg>
