<svg width="74" height="72" viewBox="0 0 74 72" fill="none" xmlns="http://www.w3.org/2000/svg">
<path d="M46.0063 23.7031C46.3688 26.2171 47.6845 32.7953 53.297 37.3968C59.0704 42.1312 68.6798 44.189 72.172 40.3984C73.5673 38.8843 74.0095 36.4124 73.6735 34.5015C73.1907 31.7609 71.236 30.8953 69.7063 28.389C68.511 26.4312 67.4892 23.3343 68.2876 18.3484C60.5195 18.1487 52.8354 19.9953 46.0063 23.7031Z" fill="#383333"/>
<path d="M20.558 39.6344C16.6267 39.6344 12.808 38.6078 9.57359 36.5094C5.0939 33.6078 1.85484 28.6297 0.687649 22.8516C-0.626413 16.3469 0.7939 9.41406 4.5939 3.84374C4.81379 3.52314 5.10099 3.25438 5.43547 3.05623C5.76994 2.85807 6.14363 2.7353 6.53045 2.69647C6.91727 2.65764 7.30791 2.70369 7.67509 2.8314C8.04228 2.95912 8.37717 3.16543 8.6564 3.43593L36.1298 30.1187C36.4025 30.3827 36.6158 30.7018 36.7555 31.0547C36.8952 31.4076 36.958 31.7862 36.9398 32.1653C36.9216 32.5444 36.8228 32.9153 36.65 33.2532C36.4772 33.5911 36.2344 33.8883 35.9376 34.125C31.3908 37.7594 25.872 39.6344 20.558 39.6344ZM6.79234 4.71406H6.72515C6.63326 4.72264 6.5444 4.75148 6.46498 4.79848C6.38555 4.84549 6.31752 4.90951 6.26577 4.98593C2.77984 10.1109 1.47202 16.4766 2.67202 22.45C3.7314 27.6953 6.64703 32.1984 10.672 34.8047C17.547 39.2625 27.4189 38.3266 34.6689 32.5297C34.7396 32.4732 34.7971 32.402 34.8376 32.3211C34.8781 32.2401 34.9005 32.1514 34.9033 32.0609C34.9081 31.9692 34.8932 31.8775 34.8595 31.792C34.8258 31.7066 34.7741 31.6293 34.708 31.5656L7.24077 4.89531C7.121 4.77818 6.95985 4.71305 6.79234 4.71406Z" fill="#FF832F"/>
<path d="M25.1266 45.603H12.7656C12.0925 45.603 11.5469 46.1487 11.5469 46.8218V48.0452C11.5469 48.7183 12.0925 49.264 12.7656 49.264H25.1266C25.7997 49.264 26.3453 48.7183 26.3453 48.0452V46.8218C26.3453 46.1487 25.7997 45.603 25.1266 45.603Z" fill="#FF832F"/>
<path d="M46.3472 6.32646C45.9815 6.49693 45.6438 6.72189 45.3456 6.99365C44.7429 7.55693 44.3205 8.28599 44.1315 9.08896C44.1128 8.37261 43.8448 7.68523 43.3737 7.14522C42.9771 6.70367 42.4601 6.38761 41.8862 6.23584C42.3837 6.16513 42.8542 5.96646 43.2519 5.65928C43.8171 5.2025 44.1951 4.55427 44.3144 3.8374C44.3242 4.34698 44.4822 4.84267 44.769 5.26397C45.1476 5.79902 45.709 6.17697 46.3472 6.32646Z" fill="#FFB833"/>
<path d="M42.6379 8.42808C42.4497 8.51638 42.2844 8.6469 42.1548 8.8095C42.0253 8.9721 41.935 9.1624 41.891 9.36558C41.8848 9.1241 41.7941 8.89244 41.6348 8.71089C41.5024 8.55986 41.3285 8.45116 41.1348 8.39839C41.3024 8.37467 41.4608 8.30732 41.5941 8.20308C41.7852 8.05027 41.9127 7.83201 41.952 7.59058C41.9561 7.7623 42.0104 7.92905 42.1082 8.07026C42.2346 8.25075 42.4233 8.37818 42.6379 8.42808Z" fill="#FFB833"/>
<path d="M46.5848 4.60459C46.5 4.6442 46.4219 4.69693 46.3535 4.76084C46.2153 4.89115 46.1181 5.05894 46.0738 5.24365C46.0689 5.07848 46.0071 4.92007 45.8988 4.79522C45.8075 4.69375 45.6886 4.62101 45.5566 4.58584C45.6707 4.56982 45.7785 4.52401 45.8691 4.45303C45.9998 4.34781 46.0871 4.19819 46.1145 4.03271C46.1176 4.15027 46.1539 4.26454 46.2191 4.3624C46.3078 4.48464 46.4376 4.57067 46.5848 4.60459Z" fill="#FFB833"/>
<path d="M44.4453 34.9202C44.1794 35.0437 43.9339 35.2071 43.7172 35.4046C43.2795 35.8139 42.9724 36.3433 42.8344 36.9265C42.8252 36.4504 42.6609 35.9904 42.3665 35.6162C42.0721 35.2419 41.6636 34.974 41.2031 34.853C41.565 34.8035 41.9073 34.659 42.1953 34.4343C42.6058 34.1024 42.8804 33.6316 42.9672 33.1108C42.975 33.4814 43.09 33.8418 43.2984 34.1483C43.574 34.5366 43.9818 34.8111 44.4453 34.9202Z" fill="#FFB833"/>
<path d="M41.7484 36.4484C41.6121 36.5115 41.4922 36.6052 41.3982 36.7223C41.3041 36.8394 41.2384 36.9767 41.2062 37.1234C41.203 36.963 41.1476 36.8081 41.0483 36.682C40.9491 36.556 40.8114 36.4658 40.6562 36.425C40.7781 36.4082 40.8934 36.3598 40.9906 36.2844C41.1274 36.1736 41.2195 36.0171 41.25 35.8438C41.2517 35.9688 41.2903 36.0906 41.3609 36.1937C41.4553 36.3224 41.5929 36.4129 41.7484 36.4484Z" fill="#FFB833"/>
<path d="M44.6175 33.6687C44.5561 33.6964 44.4997 33.7339 44.4503 33.7796C44.3495 33.8743 44.2788 33.9966 44.2472 34.1312C44.2433 34.0108 44.198 33.8955 44.119 33.8046C44.054 33.7285 43.9674 33.674 43.8706 33.6484C43.954 33.6371 44.0328 33.6037 44.0987 33.5515C44.1952 33.4733 44.2587 33.3618 44.2769 33.239C44.2794 33.3243 44.3059 33.4072 44.3534 33.4781C44.4158 33.5711 44.5095 33.6388 44.6175 33.6687Z" fill="#FFB833"/>
<mask id="mask0_1_1276" style="mask-type:luminance" maskUnits="userSpaceOnUse" x="3" y="0" width="36" height="36">
<path d="M21.2625 35.8531C30.9301 35.8531 38.7672 28.016 38.7672 18.3484C38.7672 8.68087 30.9301 0.84375 21.2625 0.84375C11.5949 0.84375 3.75781 8.68087 3.75781 18.3484C3.75781 28.016 11.5949 35.8531 21.2625 35.8531Z" fill="white"/>
</mask>
<g mask="url(#mask0_1_1276)">
<path d="M21.2625 35.8531C30.9301 35.8531 38.7672 28.016 38.7672 18.3484C38.7672 8.68087 30.9301 0.84375 21.2625 0.84375C11.5949 0.84375 3.75781 8.68087 3.75781 18.3484C3.75781 28.016 11.5949 35.8531 21.2625 35.8531Z" fill="#FFDB99"/>
<path d="M16.0576 -0.81256C16.0576 -0.81256 16.2951 2.68588 18.8795 3.74838C21.4639 4.81088 20.1061 6.18119 20.7545 7.68275C21.4029 9.18431 24.9529 10.1124 25.4842 8.37963C26.0154 6.64682 26.5451 5.49838 28.692 5.77338C30.8389 6.04838 32.4014 5.30463 32.6904 4.23275C32.9795 3.16088 33.2795 2.2015 33.2795 2.2015C33.2795 2.2015 22.3186 -3.26412 16.0576 -0.81256Z" fill="#FFB833"/>
<path d="M4.8249 4.05005C4.8249 4.05005 8.93896 4.97974 10.1983 6.7063C11.4577 8.43286 9.80146 10.0235 11.1358 11.1516C12.4702 12.2797 14.5858 12.2125 14.9171 14.2032C15.2483 16.1938 12.8608 17.3282 11.7327 19.3782C10.6046 21.4282 11.8577 23.0313 10.4687 25.8782C9.07959 28.725 8.7499 21.5235 6.5624 20.9485C4.3749 20.3735 4.84365 22.4282 2.78115 22.7594C0.718652 23.0907 -0.271973 21.9641 -0.271973 21.9641L4.8249 4.05005Z" fill="#FFB833"/>
<path d="M13.32 38.475C13.32 38.475 12.2012 32.9469 14.5841 32.2797C16.9669 31.6125 18.3966 32.3266 19.2075 31.186C20.0184 30.0454 18.8387 26.7547 21.2622 26.2782C23.6856 25.8016 24.0747 28.4219 26.0231 27.6125C27.9716 26.8032 28.5481 23.85 27.6903 22.3704C26.8325 20.8907 24.2528 20.3391 24.0216 18.3516C23.7903 16.3641 25.7403 16.8422 26.5465 15.65C27.3528 14.4579 29.2637 13.8391 30.5981 14.8407C31.9325 15.8422 31.0262 19.1766 32.5997 20.3204C34.1731 21.4641 33.5528 24.1813 32.9809 26.1344C32.4091 28.0875 36.6981 29.75 36.6981 29.75L32.8372 34.1344L24.8778 37.5188L13.32 38.475Z" fill="#FFB833"/>
</g>
<path d="M51.1051 36.011C50.3322 36.2384 49.6047 36.5984 48.9551 37.075C47.0801 38.4641 46.4176 40.4954 46.1145 41.4719C44.4051 46.9688 42.9973 53.4704 41.7707 57.45C40.983 59.9975 39.9783 62.4727 38.7676 64.8485C39.5752 65.3625 40.4289 65.8003 41.3176 66.1563C42.8957 66.7813 45.077 67.375 47.4957 67.2141L54.2316 41.8L51.1051 36.011Z" fill="#FFB833"/>
<path d="M34.2421 53.6564C34.1398 53.6564 34.0403 53.623 33.9588 53.5612C33.8772 53.4994 33.8182 53.4127 33.7905 53.3142L24.5062 20.0501C24.4726 19.9304 24.488 19.8022 24.5489 19.6937C24.6099 19.5853 24.7114 19.5056 24.8312 19.472C24.9509 19.4384 25.0791 19.4538 25.1875 19.5148C25.296 19.5757 25.3757 19.6772 25.4093 19.797L34.6874 53.0548C34.7206 53.1744 34.705 53.3022 34.6441 53.4102C34.5831 53.5183 34.4819 53.5978 34.3624 53.6314C34.3237 53.6453 34.2832 53.6537 34.2421 53.6564Z" fill="#383333"/>
<path d="M39.1957 46.2453C38.4921 45.9067 37.8273 45.4928 37.2129 45.011C36.8292 44.7019 36.464 44.3706 36.1191 44.0188C33.9191 41.8922 32.4504 41.1297 32.0301 40.9219C30.5754 40.2016 30.1863 40.4219 30.0597 40.5391C29.8707 40.7141 29.8254 41.0563 29.7988 41.2641C29.7254 41.8188 29.9426 42.0453 29.7644 42.3828C29.6332 42.6344 29.4894 42.5531 29.3566 42.8125C29.1316 43.2453 29.3566 43.8172 29.4191 43.9703C29.5347 44.2625 29.6129 44.2563 29.6379 44.4641C29.6457 44.7199 29.6098 44.9751 29.5316 45.2188C29.4839 45.393 29.4769 45.5758 29.5113 45.7531C29.5551 46.0453 29.7894 46.3969 29.8504 46.5125C30.0582 46.9078 29.8238 47.2266 29.8238 47.6531C29.8238 48.3703 30.4988 48.9031 31.2301 49.4891C32.02 50.1301 32.9792 50.528 33.991 50.6344C34.5176 50.6797 34.6269 50.5922 35.0629 50.6891C35.9082 50.8735 36.5113 51.4203 36.8972 51.8688C36.9019 51.8672 39.4816 49.25 39.1957 46.2453Z" fill="#D89071"/>
<path d="M48.2609 20.5624C48.1437 20.4484 47.5031 19.8452 46.5859 19.9124C46.4515 19.9234 45.9171 19.9624 45.5578 20.2984C44.6203 21.1718 44.9812 23.9281 46.5937 24.6374C47.4953 25.0327 48.4531 24.6374 48.7812 24.4921C48.6051 23.1827 48.4317 21.8729 48.2609 20.5624Z" fill="#D17352"/>
<path d="M47.2377 23.7812C47.2224 23.7809 47.2079 23.7747 47.1971 23.764C46.7955 23.3765 46.6127 22.9749 46.6564 22.5687C46.7096 22.0718 47.083 21.703 47.3033 21.5249L45.9424 21.5874C45.9346 21.5878 45.9269 21.5867 45.9196 21.5841C45.9124 21.5815 45.9057 21.5774 45.9 21.5722C45.8943 21.5669 45.8898 21.5606 45.8866 21.5535C45.8834 21.5465 45.8816 21.5389 45.8814 21.5312C45.881 21.5234 45.8821 21.5155 45.8847 21.5082C45.8873 21.5008 45.8914 21.494 45.8966 21.4882C45.9018 21.4824 45.9081 21.4777 45.9152 21.4743C45.9222 21.471 45.9299 21.4691 45.9377 21.4687L47.4924 21.3968C47.5054 21.3962 47.5183 21.4 47.5289 21.4075C47.5396 21.415 47.5475 21.4258 47.5514 21.4383C47.5554 21.4508 47.5551 21.4641 47.5506 21.4764C47.5461 21.4887 47.5377 21.4991 47.5267 21.5062C47.5189 21.5062 46.8408 21.9405 46.7736 22.5796C46.7346 22.9483 46.9049 23.3171 47.2783 23.6733C47.2891 23.6844 47.2951 23.6993 47.2951 23.7147C47.2951 23.7302 47.2891 23.7451 47.2783 23.7562C47.2738 23.763 47.2678 23.7689 47.2608 23.7732C47.2538 23.7775 47.2459 23.7802 47.2377 23.7812Z" fill="#383333"/>
<path d="M66.6566 20.5624C66.7738 20.4484 67.4145 19.8452 68.3316 19.9124C68.466 19.9234 68.9988 19.9624 69.3598 20.2984C70.2973 21.1718 69.9348 23.9281 68.3223 24.6374C67.4223 25.0327 66.4645 24.6374 66.1348 24.4921L66.6566 20.5624Z" fill="#D17352"/>
<path d="M67.6797 23.7813C67.6717 23.7813 67.6638 23.7797 67.6566 23.7765C67.6493 23.7732 67.6428 23.7685 67.6375 23.7625C67.6267 23.7515 67.6206 23.7366 67.6206 23.7211C67.6206 23.7057 67.6267 23.6908 67.6375 23.6797C68.0125 23.3188 68.1828 22.95 68.1437 22.586C68.0765 21.9469 67.3968 21.5157 67.3906 21.5125C67.3795 21.5058 67.371 21.4955 67.3664 21.4833C67.3619 21.4711 67.3616 21.4577 67.3656 21.4454C67.3688 21.4327 67.3764 21.4216 67.3869 21.4139C67.3975 21.4062 67.4104 21.4024 67.4234 21.4032L68.9859 21.475C68.9944 21.4737 69.0031 21.4741 69.0114 21.4764C69.0197 21.4787 69.0274 21.4828 69.0339 21.4884C69.0405 21.494 69.0458 21.5009 69.0494 21.5087C69.053 21.5165 69.0549 21.525 69.0549 21.5336C69.0549 21.5423 69.053 21.5508 69.0494 21.5586C69.0458 21.5664 69.0405 21.5733 69.0339 21.5789C69.0274 21.5845 69.0197 21.5885 69.0114 21.5909C69.0031 21.5932 68.9944 21.5936 68.9859 21.5922L67.6265 21.5297C67.8468 21.7079 68.2203 22.0766 68.2734 22.5735C68.3156 22.9797 68.1343 23.3813 67.7328 23.7688C67.7254 23.7748 67.7169 23.779 67.7077 23.7812C67.6985 23.7833 67.6889 23.7834 67.6797 23.7813Z" fill="#383333"/>
<path d="M57.4814 29.1531C63.4487 29.1531 68.2861 24.3157 68.2861 18.3484C68.2861 12.3811 63.4487 7.5437 57.4814 7.5437C51.5142 7.5437 46.6768 12.3811 46.6768 18.3484C46.6768 24.3157 51.5142 29.1531 57.4814 29.1531Z" fill="#D89071"/>
<path d="M56.0032 26.911C56.4267 29.211 56.5751 32.2235 54.8235 34.2032C53.4376 35.7657 51.9845 35.4438 50.4595 36.6282C47.3142 39.0719 48.2313 44.5641 48.3657 49.7282C48.4751 53.9641 48.1048 59.8235 46.0063 66.9938C49.0499 68.3311 52.2602 69.2509 55.5501 69.7282C61.3127 70.5416 67.1854 70.0095 72.7079 68.1735C72.3751 65.2047 72.0251 61.3626 71.8204 56.8844C71.2501 44.5172 72.3032 38.2626 68.5267 35.6876C66.5782 34.3547 64.8563 35.0329 63.1345 33.0844C61.347 31.0626 61.2767 28.1547 61.5392 25.8969C61.5392 25.8922 59.0048 24.2813 56.0032 26.911Z" fill="#D89071"/>
<path d="M46.9609 21C46.9609 21 49.1969 31.8297 57.6094 31.4828C66.0219 31.1359 68.0953 22.6688 68.2625 17.6484C68.2625 17.6469 54.4422 7.77189 46.9609 21Z" fill="#D89071"/>
<path d="M50.6922 19.6157C51.2551 19.201 51.9323 18.9702 52.6312 18.9548C53.1 18.9376 53.7469 18.9142 53.9484 19.2829C53.9948 19.3623 54.0193 19.4527 54.0193 19.5446C54.0193 19.6366 53.9948 19.7269 53.9484 19.8064C53.7297 20.1079 53.1672 19.8454 52.2656 19.847C51.0766 19.847 50.3094 20.3157 50.2344 20.1423C50.1656 20.0189 50.5422 19.7298 50.6922 19.6157Z" fill="#383333"/>
<path d="M64.3844 19.4374C63.8055 19.0449 63.1197 18.8403 62.4204 18.8515C61.9516 18.8515 61.3047 18.8515 61.1172 19.2312C61.0746 19.3126 61.0546 19.404 61.0593 19.4958C61.0639 19.5875 61.0931 19.6764 61.1438 19.7531C61.3735 20.0453 61.925 19.7624 62.8266 19.7296C64.0141 19.6874 64.7985 20.1171 64.8719 19.9437C64.9266 19.8187 64.5313 19.5437 64.3844 19.4374Z" fill="#383333"/>
<path d="M58.0316 24.0874C57.5519 24.0874 56.9066 24.0343 56.7957 23.7593C56.6394 23.3702 57.4129 21.6171 57.5019 21.4155C57.5105 21.3967 57.5261 21.382 57.5454 21.3747C57.5648 21.3674 57.5862 21.368 57.6051 21.3765C57.6145 21.3805 57.6231 21.3864 57.6302 21.3939C57.6373 21.4013 57.6429 21.4101 57.6465 21.4197C57.6502 21.4293 57.6518 21.4396 57.6514 21.4499C57.651 21.4602 57.6485 21.4703 57.6441 21.4796C57.3191 22.2077 56.841 23.453 56.941 23.6999C57.0285 23.9187 57.9097 23.9562 58.5035 23.9124C58.5241 23.9115 58.5443 23.9187 58.5597 23.9324C58.5752 23.9461 58.5847 23.9653 58.5863 23.9858C58.5876 24.0063 58.5808 24.0265 58.5673 24.042C58.5539 24.0575 58.5349 24.067 58.5144 24.0687C58.4379 24.0765 58.2519 24.0874 58.0316 24.0874Z" fill="#383333"/>
<path d="M52.5501 24.5337C52.5524 24.0806 51.9645 23.7104 51.237 23.7068C50.5096 23.7031 49.918 24.0675 49.9157 24.5205C49.9135 24.9736 50.5013 25.3438 51.2288 25.3474C51.9563 25.351 52.5478 24.9867 52.5501 24.5337Z" fill="#D17352"/>
<path d="M64.8943 24.5918C64.8966 24.1387 64.3087 23.7685 63.5813 23.7649C62.8538 23.7612 62.2622 24.1256 62.26 24.5786C62.2577 25.0317 62.8456 25.4019 63.573 25.4055C64.3005 25.4091 64.8921 25.0448 64.8943 24.5918Z" fill="#D17352"/>
<path fill-rule="evenodd" clip-rule="evenodd" d="M62.7721 22.5063C62.6516 22.6477 62.4918 22.7501 62.3129 22.8005C62.1341 22.8509 61.9443 22.8471 61.7676 22.7894C61.591 22.7317 61.4355 22.6229 61.3208 22.4767C61.2062 22.3304 61.1376 22.1534 61.1237 21.9681C61.1098 21.7829 61.1514 21.5976 61.243 21.436C61.3346 21.2743 61.4722 21.1435 61.6383 21.0602C61.8044 20.9769 61.9914 20.9448 62.1758 20.968C62.3602 20.9913 62.5334 21.0688 62.6737 21.1907C62.8601 21.3528 62.975 21.5819 62.9935 21.8282C63.0119 22.0746 62.9324 22.3183 62.7721 22.5063Z" fill="#383333"/>
<path fill-rule="evenodd" clip-rule="evenodd" d="M63.605 21.2531C63.5847 21.2359 63.405 21.5562 63.169 21.5359C62.9956 21.5203 62.9487 21.3312 62.7269 21.1671C62.5336 21.0312 62.3022 20.9601 62.0659 20.964C62.1675 21.1608 62.2964 21.3423 62.4487 21.5031C62.6644 21.7328 62.8034 21.8796 62.9909 21.8812C63.369 21.8812 63.6331 21.2765 63.605 21.2531Z" fill="#383333"/>
<path fill-rule="evenodd" clip-rule="evenodd" d="M53.9674 22.9421C53.8388 23.0762 53.6732 23.169 53.4916 23.2088C53.3101 23.2485 53.1208 23.2334 52.9479 23.1654C52.775 23.0974 52.6261 22.9795 52.5203 22.8268C52.4145 22.674 52.3565 22.4932 52.3536 22.3074C52.3508 22.1216 52.4032 21.9391 52.5042 21.7832C52.6053 21.6272 52.7504 21.5048 52.9212 21.4315C53.092 21.3582 53.2807 21.3373 53.4633 21.3714C53.646 21.4056 53.8144 21.4933 53.9471 21.6233C54.1235 21.7962 54.2246 22.0316 54.2284 22.2785C54.2322 22.5255 54.1384 22.7639 53.9674 22.9421Z" fill="#383333"/>
<path fill-rule="evenodd" clip-rule="evenodd" d="M51.7047 21.7921C51.7234 21.7718 51.9297 22.075 52.1625 22.0328C52.3344 22.0031 52.3641 21.8093 52.5703 21.625C52.751 21.4726 52.9752 21.3812 53.2109 21.364C53.1267 21.569 53.0147 21.7614 52.8781 21.9359C52.6828 22.1843 52.5578 22.3437 52.3719 22.3609C51.9953 22.3953 51.6781 21.8171 51.7047 21.7921Z" fill="#383333"/>
<path d="M57.7594 27.7999C57.4501 27.7992 57.145 27.7281 56.8672 27.5921C56.8535 27.5851 56.8431 27.573 56.8381 27.5584C56.8332 27.5439 56.8341 27.5279 56.8406 27.514C56.844 27.5071 56.8486 27.5009 56.8544 27.4958C56.8601 27.4907 56.8668 27.4868 56.8741 27.4843C56.8814 27.4819 56.8891 27.4809 56.8967 27.4814C56.9044 27.4819 56.9119 27.484 56.9188 27.4874C57.2064 27.6273 57.5243 27.6933 57.8438 27.6796C58.1214 27.6675 58.3929 27.5944 58.6391 27.4656C58.653 27.4588 58.6691 27.4576 58.6839 27.4623C58.6987 27.4669 58.7112 27.477 58.7188 27.4906C58.7259 27.5045 58.7273 27.5206 58.7226 27.5355C58.718 27.5505 58.7076 27.5629 58.6938 27.5703C58.4318 27.7063 58.1433 27.7836 57.8484 27.7968L57.7594 27.7999Z" fill="#383333"/>
<path d="M56.1797 25.936C56.737 25.9873 57.2972 26.0004 57.8563 25.975C58.4592 25.9489 59.0593 25.8773 59.6516 25.761C59.4078 26.7422 58.5063 27.3594 57.6406 27.2422C57.2989 27.1839 56.9806 27.0303 56.7222 26.7993C56.4638 26.5682 56.2758 26.269 56.1797 25.936Z" fill="white"/>
<path d="M65.5359 35.1172C65.5359 35.1172 69.1062 36.0062 70.7156 39.2672C72.325 42.5281 65.1266 56.0375 58.9672 59.3625C52.8078 62.6875 35.6484 51.3203 35.6484 51.3203L38.7594 45.6359C38.7594 45.6359 54 51.5344 56.7812 51.4266C59.5625 51.3188 60.1406 38.4328 65.5359 35.1172Z" fill="#FFB833"/>
<path d="M55.3222 32.611C55.3222 32.611 54.3315 34.3672 53.0847 35.111C51.8378 35.8547 47.8565 36.3844 47.7362 41.6938C47.7362 41.6938 45.6847 44.95 46.8909 47.9266C48.0972 50.9032 49.3909 57.8985 45.3628 66.9891C47.8112 68.4422 54.1128 71.7282 62.4675 71.0641C66.3021 70.7531 70.034 69.6682 73.4378 67.875C73.4378 67.875 71.2659 55.6157 72.069 48.5954C72.8722 41.575 76.019 36.6094 64.9112 33.6938C64.4828 33.6226 64.0814 33.4376 63.749 33.158C63.4167 32.8784 63.1656 32.5147 63.0222 32.1047C63.0222 32.1047 58.8472 33.3344 55.3222 32.611Z" fill="#FFB833"/>
<path d="M47.1877 48.8125C47.1731 48.8126 47.1587 48.8085 47.1463 48.8008C47.1339 48.793 47.1239 48.7819 47.1174 48.7688C46.0237 46.5672 46.2346 44.75 46.6049 43.6125C46.8275 42.8968 47.1908 42.2328 47.6737 41.6594L48.594 38.9375C48.6011 38.918 48.6154 38.9019 48.634 38.8926C48.6526 38.8833 48.6741 38.8815 48.694 38.8875C48.7135 38.8946 48.7295 38.909 48.7385 38.9277C48.7476 38.9464 48.749 38.9678 48.7424 38.9875L47.8127 41.725C47.8091 41.7356 47.8032 41.7452 47.7955 41.7532C47.769 41.7813 45.2096 44.5813 47.2549 48.6969C47.2638 48.7154 47.2651 48.7367 47.2587 48.7562C47.2523 48.7757 47.2387 48.7919 47.2205 48.8016C47.2103 48.8071 47.1992 48.8108 47.1877 48.8125Z" fill="#383333"/>
<path d="M45.3626 67.0719C45.3512 67.0723 45.3398 67.0696 45.3298 67.0641C45.3205 67.0599 45.3121 67.0539 45.3051 67.0464C45.2982 67.0389 45.2928 67.0301 45.2893 67.0205C45.2858 67.0108 45.2842 67.0006 45.2848 66.9904C45.2853 66.9802 45.2878 66.9702 45.2923 66.961C46.6001 64.186 47.8267 57.9407 47.8392 57.8782C47.8414 57.8664 47.8464 57.8553 47.8537 57.8458C47.8611 57.8363 47.8705 57.8286 47.8814 57.8235C47.8923 57.8181 47.9043 57.8153 47.9165 57.8153C47.9287 57.8153 47.9407 57.8181 47.9517 57.8235C48.0126 57.8547 54.1517 60.9938 56.8798 60.4797C58.9501 60.0907 64.5892 58 72.2173 46.9953C72.2296 46.9795 72.2474 46.969 72.2672 46.966C72.287 46.963 72.3072 46.9676 72.3236 46.9791C72.3401 46.9905 72.3515 47.0078 72.3555 47.0274C72.3596 47.047 72.356 47.0674 72.3454 47.0844C64.6892 58.136 58.997 60.2407 56.9079 60.6328C55.7392 60.8532 53.8626 60.4688 51.3314 59.4922C49.7142 58.8672 48.3345 58.1875 47.972 58.0063C47.8157 58.8282 46.6579 64.4282 45.4329 67.0235C45.4273 67.0376 45.4177 67.0498 45.4051 67.0584C45.3926 67.067 45.3778 67.0717 45.3626 67.0719Z" fill="#383333"/>
<path d="M55.3345 52.3218C55.322 52.3216 55.3097 52.3186 55.2986 52.3129C55.2875 52.3072 55.2778 52.299 55.2704 52.289C55.2644 52.2806 55.2601 52.2711 55.2578 52.261C55.2555 52.251 55.2552 52.2406 55.257 52.2304C55.2587 52.2202 55.2625 52.2105 55.268 52.2018C55.2735 52.1931 55.2807 52.1855 55.2892 52.1796C59.861 48.9408 63.5639 44.6249 66.0704 39.614C66.0749 39.6048 66.0812 39.5965 66.0889 39.5897C66.0966 39.5829 66.1056 39.5776 66.1153 39.5743C66.125 39.571 66.1353 39.5696 66.1456 39.5702C66.1558 39.5709 66.1659 39.5735 66.1751 39.5781C66.1932 39.5877 66.2069 39.604 66.2133 39.6235C66.2197 39.643 66.2183 39.6642 66.2095 39.6828C63.6915 44.7169 59.9714 49.0526 55.3782 52.3062C55.3658 52.3161 55.3504 52.3216 55.3345 52.3218Z" fill="#383333"/>
<path d="M47.9155 57.9719C47.9037 57.9715 47.892 57.9689 47.8812 57.9641L41.8546 55.075C41.8358 55.0661 41.8212 55.0501 41.8142 55.0304C41.8071 55.0108 41.8082 54.9892 41.8171 54.9703C41.826 54.9515 41.8421 54.9369 41.8617 54.9299C41.8813 54.9229 41.9029 54.9239 41.9218 54.9328L47.9499 57.8219C47.9706 57.8265 47.9887 57.8391 48.0001 57.8569C48.0116 57.8748 48.0154 57.8965 48.0109 57.9172C48.0063 57.9379 47.9937 57.956 47.9758 57.9674C47.9579 57.9788 47.9363 57.9827 47.9155 57.9781V57.9719Z" fill="#383333"/>
<path d="M58.8218 55.5953C58.8101 55.5951 58.7986 55.5924 58.7881 55.5872C58.7775 55.5821 58.7683 55.5747 58.7609 55.5656C54.9875 50.8156 43.95 47.8344 43.839 47.8047C43.8291 47.8021 43.8197 47.7976 43.8115 47.7915C43.8033 47.7853 43.7963 47.7775 43.7911 47.7687C43.7859 47.7598 43.7825 47.75 43.781 47.7399C43.7796 47.7297 43.7802 47.7193 43.7828 47.7094C43.7886 47.6893 43.8019 47.6723 43.82 47.6619C43.838 47.6514 43.8594 47.6483 43.8797 47.6531C43.9906 47.6828 55.0781 50.6781 58.8797 55.4656C58.8892 55.4771 58.8953 55.491 58.8971 55.5058C58.899 55.5207 58.8966 55.5357 58.8902 55.5492C58.8838 55.5626 58.8736 55.574 58.861 55.5819C58.8483 55.5898 58.8336 55.5939 58.8187 55.5937L58.8218 55.5953Z" fill="#383333"/>
<path d="M57.4814 10.8954C57.4814 10.8954 54.4783 19.0454 45.558 20.2985C45.558 20.2985 44.9236 14.0719 47.4955 9.76882C50.0674 5.46569 57.9158 7.07507 57.9158 7.07507C57.9158 7.07507 62.3736 5.46569 65.4705 8.16882C68.5674 10.8719 68.9767 20.0626 68.9767 20.0626C68.9767 20.0626 63.6642 20.0626 61.3674 15.6454C59.0705 11.2282 57.4814 10.8954 57.4814 10.8954Z" fill="#383333"/>
<path d="M67.3176 18.1327C64.716 18.1327 63.2941 15.4687 62.0379 13.114C61.8973 12.8499 61.7582 12.5905 61.6207 12.3327C61.1116 11.3646 60.2788 10.6059 59.2676 10.189C58.8385 10.0074 58.3812 9.90163 57.916 9.87646C57.8953 9.87646 57.8754 9.86823 57.8608 9.85358C57.8461 9.83893 57.8379 9.81906 57.8379 9.79834C57.8379 9.77762 57.8461 9.75775 57.8608 9.7431C57.8754 9.72845 57.8953 9.72021 57.916 9.72021C57.941 9.72021 60.3848 9.7499 61.7582 12.2546C61.8957 12.5062 62.0348 12.7655 62.1754 13.0358C63.4254 15.3796 64.8457 18.0483 67.4191 17.9702C67.4395 17.9709 67.4589 17.9791 67.4736 17.9933C67.4883 18.0074 67.4973 18.0264 67.4988 18.0468C67.4993 18.0672 67.4916 18.087 67.4776 18.1019C67.4636 18.1168 67.4443 18.1257 67.4238 18.1265L67.3176 18.1327Z" fill="white"/>
<path d="M67.1457 15.6218C66.1019 15.6218 64.8832 14.6999 63.5207 12.8781C62.8127 11.9158 62.1776 10.9021 61.6207 9.84526C61.6159 9.83617 61.613 9.8262 61.6121 9.81595C61.6112 9.8057 61.6124 9.79539 61.6156 9.78562C61.6188 9.77584 61.624 9.76682 61.6308 9.75908C61.6375 9.75134 61.6458 9.74505 61.6551 9.74057C61.6733 9.73119 61.6945 9.72937 61.7141 9.73551C61.7337 9.74165 61.7501 9.75526 61.7597 9.77338C61.791 9.83432 64.9004 15.8671 67.4082 15.4421C67.4287 15.4389 67.4496 15.4438 67.4665 15.4558C67.4834 15.4678 67.495 15.4858 67.4988 15.5062C67.502 15.5267 67.4971 15.5476 67.4851 15.5645C67.4732 15.5814 67.4551 15.593 67.4347 15.5968C67.3392 15.613 67.2426 15.6214 67.1457 15.6218Z" fill="white"/>
<path d="M47.5005 18.1327C47.4798 18.1327 47.4599 18.1245 47.4452 18.1099C47.4306 18.0952 47.4224 18.0753 47.4224 18.0546C47.4224 18.0339 47.4306 18.014 47.4452 17.9994C47.4599 17.9847 47.4798 17.9765 47.5005 17.9765C52.5005 17.7812 55.4833 10.5765 55.513 10.5046C55.5168 10.4951 55.5224 10.4864 55.5296 10.479C55.5367 10.4716 55.5453 10.4658 55.5547 10.4617C55.5641 10.4576 55.5743 10.4555 55.5845 10.4553C55.5948 10.4552 55.605 10.4571 55.6145 10.4609C55.6241 10.4647 55.6328 10.4703 55.6402 10.4775C55.6475 10.4846 55.6534 10.4932 55.6575 10.5026C55.6615 10.512 55.6637 10.5222 55.6638 10.5324C55.664 10.5427 55.6621 10.5529 55.6583 10.5624C55.627 10.6359 52.6067 17.9343 47.5067 18.1327H47.5005Z" fill="white"/>
<path d="M46.6753 15.6203C46.6546 15.6203 46.6347 15.6121 46.6201 15.5974C46.6054 15.5827 46.5972 15.5629 46.5972 15.5422C46.5972 15.5214 46.6054 15.5016 46.6201 15.4869C46.6347 15.4723 46.6546 15.464 46.6753 15.464C50.0862 15.1703 53.4784 11.1656 53.5128 11.125C53.5264 11.1092 53.5456 11.0994 53.5664 11.0977C53.5871 11.0959 53.6077 11.1024 53.6237 11.1156C53.6316 11.1221 53.6382 11.1301 53.643 11.1391C53.6477 11.1482 53.6506 11.1581 53.6515 11.1683C53.6524 11.1785 53.6512 11.1888 53.648 11.1985C53.6449 11.2082 53.6398 11.2172 53.6331 11.225C52.9754 11.9771 52.2562 12.6732 51.4831 13.3062C50.3003 14.275 48.5144 15.4625 46.6878 15.6187L46.6753 15.6203Z" fill="white"/>
<path d="M70.9377 35.7046H70.9127C70.8932 35.6975 70.8772 35.6831 70.8682 35.6644C70.8591 35.6458 70.8577 35.6243 70.8642 35.6046C70.8642 35.5827 71.5596 33.4296 69.1658 31.3999C66.6955 29.3062 66.9908 26.7718 66.9939 26.7468C66.9964 26.7261 67.007 26.7072 67.0234 26.6943C67.0399 26.6814 67.0607 26.6756 67.0814 26.6781C67.1022 26.6805 67.121 26.6912 67.1339 26.7076C67.1468 26.724 67.1527 26.7448 67.1502 26.7656C67.1502 26.7906 66.8642 29.2437 69.2674 31.2812C70.5596 32.3749 70.9658 33.5046 71.0799 34.2577C71.1606 34.7227 71.1371 35.1998 71.0111 35.6546C71.0056 35.6695 70.9956 35.6824 70.9824 35.6914C70.9692 35.7003 70.9536 35.705 70.9377 35.7046Z" fill="white"/>
<path d="M67.7487 33.8014H67.7252C64.669 32.8546 65.0924 29.1842 65.0971 29.1483C65.0998 29.1277 65.1105 29.109 65.1269 29.0961C65.1432 29.0833 65.1639 29.0773 65.1846 29.0796C65.2051 29.0823 65.2237 29.093 65.2363 29.1094C65.2489 29.1258 65.2544 29.1465 65.2518 29.1671C65.2518 29.203 64.8408 32.7436 67.7721 33.6514C67.7918 33.6579 67.8082 33.6718 67.8179 33.6902C67.8275 33.7086 67.8296 33.73 67.8237 33.7499C67.8179 33.7651 67.8076 33.7782 67.7942 33.7874C67.7808 33.7966 67.7649 33.8015 67.7487 33.8014Z" fill="white"/>
<path d="M52.9238 33.2514C52.9125 33.2545 52.9007 33.2545 52.8894 33.2514C49.6753 31.6889 48.5941 26.8264 48.5847 26.7764C48.5826 26.7662 48.5824 26.7556 48.5844 26.7453C48.5863 26.735 48.5903 26.7251 48.596 26.7164C48.6017 26.7076 48.6091 26.7 48.6178 26.6941C48.6264 26.6882 48.6362 26.684 48.6464 26.6819C48.6567 26.6797 48.6673 26.6796 48.6776 26.6815C48.6879 26.6835 48.6977 26.6874 48.7065 26.6932C48.7153 26.6989 48.7228 26.7063 48.7287 26.7149C48.7347 26.7236 48.7388 26.7333 48.741 26.7436C48.7519 26.792 49.8175 31.578 52.9597 33.1108C52.9757 33.1185 52.9885 33.1314 52.9961 33.1474C53.0038 33.1634 53.0058 33.1815 53.0018 33.1987C52.9978 33.216 52.988 33.2314 52.9741 33.2424C52.9603 33.2533 52.943 33.2593 52.9253 33.2592L52.9238 33.2514Z" fill="white"/>
<path d="M18.9736 48.5906C18.7043 48.5906 18.4459 48.4836 18.2555 48.2932C18.065 48.1027 17.958 47.8444 17.958 47.575V38.4297C17.958 38.1603 18.065 37.902 18.2555 37.7115C18.4459 37.5211 18.7043 37.4141 18.9736 37.4141C19.243 37.4141 19.5013 37.5211 19.6918 37.7115C19.8823 37.902 19.9893 38.1603 19.9893 38.4297V47.575C19.9893 47.8444 19.8823 48.1027 19.6918 48.2932C19.5013 48.4836 19.243 48.5906 18.9736 48.5906Z" fill="#FF832F"/>
<path d="M56.9566 31.5391C56.4769 31.5391 56.1566 31.5204 56.1129 31.5173C56.1026 31.5165 56.0926 31.5138 56.0834 31.5092C56.0742 31.5046 56.066 31.4983 56.0592 31.4905C56.0456 31.4748 56.0388 31.4544 56.0402 31.4337C56.0417 31.4129 56.0513 31.3936 56.067 31.38C56.0827 31.3664 56.1031 31.3596 56.1238 31.361C56.1613 31.361 59.9176 31.5891 61.7223 30.4094C61.7399 30.3982 61.7613 30.3944 61.7818 30.3987C61.8022 30.4031 61.8201 30.4154 61.8316 30.4329C61.8428 30.4503 61.8466 30.4714 61.8422 30.4916C61.8378 30.5118 61.8256 30.5295 61.8082 30.5407C60.477 31.411 58.1894 31.5391 56.9566 31.5391Z" fill="#383333"/>
</svg>
