<svg width="70" height="70" viewBox="0 0 70 70" fill="none" xmlns="http://www.w3.org/2000/svg">
<path d="M35 70C25.6512 70 16.8619 66.3593 10.2513 59.7487C3.64068 53.1381 0 44.3488 0 35C0 25.6512 3.64068 16.8618 10.2513 10.2512C16.8619 3.64068 25.6512 0 35 0C44.3488 0 53.1381 3.64068 59.7488 10.2512C66.3593 16.8618 70 25.6512 70 35C70 44.3488 66.3593 53.1381 59.7488 59.7487C53.1382 66.3593 44.3488 70 35 70Z" fill="white"/>
<path d="M68.5604 34.9999C68.5604 46.918 62.3477 57.3848 52.9843 63.3397C51.0835 64.5486 49.5022 58.7693 47.3678 59.5803C45.2333 60.3913 42.5456 67.7926 40.2286 68.1551C38.5251 68.4222 36.7787 68.5604 34.9999 68.5604C16.4651 68.5604 1.43945 53.5348 1.43945 34.9999C1.43945 16.4651 16.4651 1.43945 34.9999 1.43945C53.5348 1.43945 68.5604 16.4651 68.5604 34.9999Z" fill="#6E72FF"/>
<path d="M10.1799 47.7898L8.84307 41.8262L11.7222 46.7616L15.5267 44.6024L14.0872 48.2011L18.5085 51.0803L12.7504 50.052L11.9279 54.6791L10.694 49.9492L6.58105 49.435L10.1799 47.7898Z" fill="#F8BDFF"/>
<path d="M37.4282 7.89447L36.0915 1.93066L38.9705 6.86621L42.775 4.70687L41.3355 8.30572L45.757 11.1849L39.9988 10.1566L39.1761 14.7836L37.9423 10.0537L33.8293 9.53961L37.4282 7.89447Z" fill="#F8BDFF"/>
<path d="M60.4208 34.9297L63.2327 29.5032L62.2633 35.1342L66.5653 35.9275L63.1484 37.7574L64.6826 42.8056L60.9345 38.3151L57.3288 41.3293L59.4259 36.9137L56.6069 33.875L60.4208 34.9297Z" fill="#F8BDFF"/>
<path d="M40.9813 7.79181L10.6829 13.2119L18.5914 57.4208L48.8898 52.0007L40.9813 7.79181Z" fill="white"/>
<path d="M13.8464 20.8445C13.7507 20.8445 13.6659 20.776 13.6484 20.6785C13.6289 20.569 13.7018 20.4644 13.8111 20.4449L40.3614 15.6958C40.4706 15.6763 40.5753 15.749 40.595 15.8585C40.6146 15.968 40.5417 16.0726 40.4323 16.0922L13.8821 20.8413C13.8702 20.8434 13.8582 20.8445 13.8464 20.8445Z" fill="#412945"/>
<path d="M14.2326 23.004C14.1371 23.004 14.0522 22.9355 14.0347 22.838C14.0151 22.7285 14.088 22.6239 14.1974 22.6044L40.7476 17.8553C40.8567 17.8355 40.9617 17.9085 40.9812 18.018C41.0008 18.1275 40.9279 18.2321 40.8186 18.2516L14.2683 23.0007C14.2564 23.0029 14.2445 23.004 14.2326 23.004Z" fill="#412945"/>
<path d="M15.0166 27.3868C14.921 27.3868 14.8361 27.3183 14.8186 27.2208C14.7991 27.1113 14.8719 27.0067 14.9813 26.9872L41.5314 22.2381C41.6404 22.2183 41.7455 22.2913 41.765 22.4008C41.7846 22.5103 41.7117 22.6149 41.6024 22.6345L15.0524 27.3837C15.0404 27.3857 15.0285 27.3868 15.0166 27.3868Z" fill="#412945"/>
<path d="M15.403 29.5465C15.3073 29.5465 15.2226 29.478 15.2051 29.3805C15.1855 29.271 15.2584 29.1664 15.3678 29.1469L41.918 24.3978C42.0274 24.3779 42.1321 24.451 42.1517 24.5606C42.1712 24.6702 42.0983 24.7747 41.989 24.7943L15.4387 29.5434C15.4267 29.5454 15.4148 29.5465 15.403 29.5465Z" fill="#412945"/>
<path d="M17.0714 33.3774C16.9757 33.3774 16.8909 33.3089 16.8734 33.2115L16.4189 30.6708C16.3994 30.5613 16.4723 30.4567 16.5816 30.4372L19.1224 29.9827C19.2318 29.963 19.3365 30.0359 19.3561 30.1454L19.8105 32.686C19.8301 32.7956 19.7572 32.9001 19.6478 32.9197L17.107 33.3741C17.095 33.3763 17.0831 33.3774 17.0714 33.3774ZM16.8508 30.7981L17.2343 32.9424L19.3786 32.5589L18.9951 30.4146L16.8508 30.7981Z" fill="#412945"/>
<path d="M22.026 32.4912C21.9851 32.4912 21.9449 32.4788 21.9109 32.4551C21.8671 32.4247 21.8372 32.3779 21.8277 32.3254L21.3733 29.7846C21.3537 29.6751 21.4266 29.5705 21.536 29.551L24.0766 29.0965C24.1855 29.0767 24.2907 29.1497 24.3103 29.2592L24.7647 31.7998C24.774 31.8523 24.7623 31.9065 24.7318 31.9504C24.7013 31.9941 24.6545 32.0241 24.602 32.0335L22.0614 32.4881C22.0496 32.4901 22.0379 32.4912 22.026 32.4912ZM21.8053 29.9119L22.1888 32.0562L24.3331 31.6726L23.9495 29.5284L21.8053 29.9119Z" fill="#412945"/>
<path d="M26.9801 31.6053C26.8845 31.6053 26.7996 31.5368 26.7821 31.4393L26.3276 28.8987C26.3081 28.7892 26.381 28.6846 26.4903 28.665L29.031 28.2106C29.1399 28.1906 29.2451 28.2637 29.2646 28.3733L29.7191 30.9139C29.7386 31.0234 29.6658 31.128 29.5564 31.1475L27.0157 31.602C27.0037 31.6042 26.9918 31.6053 26.9801 31.6053ZM26.7595 29.0258L27.143 31.1701L29.2873 30.7866L28.9038 28.6423L26.7595 29.0258Z" fill="#412945"/>
<path d="M16.5959 36.2153C16.5003 36.2153 16.4154 36.1468 16.3979 36.0494C16.3784 35.9399 16.4513 35.8353 16.5606 35.8157L43.1107 31.0668C43.2197 31.0467 43.3248 31.1201 43.3444 31.2295C43.3639 31.339 43.2911 31.4436 43.1817 31.4631L16.6316 36.2121C16.6197 36.2144 16.6078 36.2153 16.5959 36.2153Z" fill="#412945"/>
<path d="M16.9824 38.375C16.8867 38.375 16.8019 38.3066 16.7844 38.2091C16.7649 38.0996 16.8377 37.995 16.9471 37.9754L43.4972 33.2264C43.606 33.2067 43.7113 33.2795 43.7309 33.3891C43.7504 33.4986 43.6775 33.6032 43.5682 33.6227L17.0181 38.3718C17.006 38.374 16.9941 38.375 16.9824 38.375Z" fill="#412945"/>
<path d="M18.651 42.2062C18.6101 42.2062 18.5699 42.1938 18.5359 42.17C18.4921 42.1395 18.4622 42.0928 18.4527 42.0403L17.9983 39.4996C17.9787 39.3901 18.0516 39.2855 18.161 39.266L20.7016 38.8115C20.7543 38.8021 20.8083 38.814 20.8522 38.8446C20.8959 38.8751 20.9258 38.9218 20.9353 38.9743L21.3897 41.515C21.4093 41.6245 21.3364 41.7291 21.2269 41.7486L18.6863 42.2031C18.6746 42.2051 18.6627 42.2062 18.651 42.2062ZM18.4302 39.627L18.8137 41.7712L20.958 41.3874L20.5745 39.2433L18.4302 39.627Z" fill="#412945"/>
<path d="M23.6051 41.3202C23.5094 41.3202 23.4246 41.2518 23.4071 41.1543L22.9526 38.6136C22.9331 38.5041 23.006 38.3995 23.1153 38.38L25.656 37.9255C25.7087 37.9161 25.7628 37.928 25.8065 37.9586C25.8503 37.989 25.8802 38.0359 25.8896 38.0884L26.3441 40.6291C26.3535 40.6816 26.3416 40.7359 26.3111 40.7797C26.2805 40.8234 26.2339 40.8534 26.1814 40.8628L23.6407 41.3171C23.6288 41.3192 23.6168 41.3202 23.6051 41.3202ZM23.3845 38.741L23.768 40.8852L25.9123 40.5016L25.5288 38.3573L23.3845 38.741Z" fill="#412945"/>
<path d="M28.5594 40.434C28.4637 40.434 28.3789 40.3655 28.3614 40.268L27.907 37.7274C27.8874 37.6179 27.9603 37.5133 28.0697 37.4937L30.6103 37.0393C30.6628 37.0299 30.7171 37.0418 30.7608 37.0724C30.8046 37.1027 30.8345 37.1496 30.844 37.2021L31.2984 39.7429C31.3079 39.7954 31.296 39.8495 31.2655 39.8934C31.235 39.9372 31.1882 39.9671 31.1357 39.9766L28.5951 40.431C28.5831 40.4329 28.5712 40.434 28.5594 40.434ZM28.3389 37.8548L28.7224 39.999L30.8667 39.6153L30.4832 37.471L28.3389 37.8548Z" fill="#412945"/>
<path d="M18.2319 45.362C18.1362 45.362 18.0514 45.2936 18.0339 45.196C18.0144 45.0865 18.0873 44.9819 18.1966 44.9623L44.7467 40.2133C44.8556 40.1941 44.9608 40.2665 44.9804 40.3761C44.9999 40.4856 44.9271 40.5902 44.8177 40.6098L18.2676 45.3588C18.2556 45.361 18.2437 45.362 18.2319 45.362Z" fill="#412945"/>
<path d="M18.6181 47.5216C18.5224 47.5216 18.4377 47.4531 18.4202 47.3556C18.4006 47.2461 18.4735 47.1415 18.583 47.1219L45.1331 42.373C45.2419 42.3536 45.3472 42.4262 45.3667 42.5358C45.3863 42.6454 45.3134 42.7499 45.2041 42.7695L18.654 47.5184C18.6419 47.5205 18.6299 47.5216 18.6181 47.5216Z" fill="#412945"/>
<path d="M20.2867 51.3527C20.191 51.3527 20.1062 51.2843 20.0887 51.1867L19.6343 48.6461C19.6147 48.5365 19.6876 48.432 19.797 48.4124L22.3376 47.958C22.3903 47.9487 22.4444 47.9603 22.4881 47.991C22.5319 48.0214 22.562 48.0683 22.5713 48.1208L23.0257 50.6616C23.0352 50.7142 23.0233 50.7683 22.9928 50.8121C22.9623 50.8558 22.9155 50.8858 22.863 50.8952L20.3224 51.3497C20.3105 51.3516 20.2985 51.3527 20.2867 51.3527ZM20.0662 48.7735L20.4497 50.9176L22.594 50.534L22.2105 48.3897L20.0662 48.7735Z" fill="#412945"/>
<path d="M25.2413 50.4667C25.2004 50.4667 25.1602 50.4542 25.1262 50.4304C25.0824 50.4 25.0525 50.3532 25.0431 50.3007L24.5886 47.7599C24.5792 47.7073 24.5911 47.6531 24.6216 47.6094C24.652 47.5656 24.6988 47.5357 24.7513 47.5263L27.2919 47.072C27.4008 47.0527 27.506 47.1251 27.5256 47.2348L27.9801 49.7754C27.9996 49.8849 27.9267 49.9895 27.8174 50.0091L25.2766 50.4635C25.265 50.4656 25.2531 50.4667 25.2413 50.4667ZM25.0205 47.8873L25.404 50.0316L27.5483 49.6479L27.1648 47.5037L25.0205 47.8873Z" fill="#412945"/>
<path d="M30.1957 49.5805C30.1548 49.5805 30.1146 49.568 30.0805 49.5443C30.0368 49.5139 30.0068 49.467 29.9974 49.4145L29.543 46.8737C29.5335 46.8212 29.5454 46.7671 29.5759 46.7232C29.6064 46.6794 29.6532 46.6495 29.7057 46.6401L32.2463 46.1858C32.3553 46.1663 32.4604 46.2389 32.4799 46.3486L32.9344 48.8892C32.954 48.9987 32.8811 49.1033 32.7716 49.1229L30.2309 49.5773C30.2193 49.5795 30.2074 49.5805 30.1957 49.5805ZM29.9748 47.0011L30.3583 49.1454L32.5026 48.7617L32.1191 46.6175L29.9748 47.0011Z" fill="#412945"/>
<path d="M17.6603 32.9817L17.884 31.6299L17.2371 30.4924L17.649 30.4187L18.0608 31.1843L18.1888 30.3221L18.558 30.2561L18.3457 31.5474L19.024 32.738L18.612 32.8117L18.1674 31.986L18.0296 32.9158L17.6603 32.9817Z" fill="#E05D4F"/>
<path d="M24.3324 40.9651L24.5559 39.6133L23.9089 38.4758L24.321 38.4021L24.7327 39.1675L24.8608 38.3055L25.23 38.2395L25.0176 39.5307L25.6958 40.7212L25.2841 40.7949L24.8396 39.9693L24.7018 40.899L24.3324 40.9651Z" fill="#E05D4F"/>
<path d="M20.7714 51.1069L20.995 49.755L20.3481 48.6174L20.7601 48.5437L21.1719 49.3093L21.2998 48.4471L21.6691 48.3811L21.4568 49.6724L22.1351 50.863L21.7231 50.9367L21.2787 50.111L21.1407 51.0407L20.7714 51.1069Z" fill="#E05D4F"/>
<path d="M43.123 47.7611C43.094 47.6538 42.9832 47.5903 42.8761 47.6192L42.5089 47.7183C41.9535 46.7384 41.5152 45.9534 41.4641 45.8306C41.4374 45.7402 41.3486 45.676 41.2549 45.6843C41.0716 45.6981 41.066 45.8227 41.0526 46.1235C41.0456 46.2812 41.037 46.5063 41.0277 46.7763C41.0144 47.1584 40.9994 47.6313 40.9842 48.1299L40.6599 48.2176C40.5526 48.2466 40.489 48.357 40.518 48.4645C40.5422 48.5543 40.6235 48.6134 40.7123 48.6134C40.7296 48.6134 40.7474 48.6112 40.7649 48.6064L40.9715 48.5506C40.9694 48.6175 40.9675 48.6843 40.9655 48.7515C40.9231 50.1872 40.8843 51.6227 40.8843 51.6227C40.8813 51.7339 40.969 51.8264 41.0802 51.8293C41.082 51.8294 41.0839 51.8294 41.0858 51.8294C41.1945 51.8294 41.284 51.7427 41.2869 51.6334C41.313 50.6677 41.3464 49.4825 41.3777 48.4408L42.3116 48.1886C42.691 48.8569 43.1858 49.7227 43.8351 50.8517C43.8904 50.9481 44.0136 50.9809 44.11 50.926C44.2064 50.8705 44.2396 50.7474 44.1842 50.6509C43.7394 49.8773 43.1974 48.9304 42.7141 48.0799L42.9811 48.0079C43.0886 47.9789 43.152 47.8684 43.123 47.7611ZM41.3905 48.0203C41.4071 47.4794 41.4227 46.9953 41.4358 46.6286C41.5867 46.903 41.8016 47.2879 42.1067 47.827L41.3905 48.0203Z" fill="#E05D4F"/>
<path d="M44.9776 46.2027C44.1816 44.8288 42.4561 43.6494 40.6986 44.0537C40.5901 44.0786 40.5226 44.1867 40.5475 44.295C40.5725 44.4034 40.6804 44.4717 40.7889 44.4461C42.3559 44.0849 43.9072 45.1584 44.6292 46.4045C45.4643 47.846 45.4621 49.6729 44.6235 50.9502C43.7343 52.3048 41.8801 52.9083 40.4903 52.2953C39.4409 51.8325 38.6695 50.7302 38.5249 49.4872C38.3929 48.352 38.7629 47.1101 39.5401 46.0797C40.0966 45.3422 41.0942 44.5834 42.0729 44.8735C42.1799 44.9051 42.2915 44.8441 42.3231 44.7376C42.3546 44.6308 42.2938 44.519 42.1872 44.4873C41.0101 44.1389 39.8526 44.9968 39.2186 45.8372C38.3795 46.9494 37.9809 48.2966 38.1248 49.5335C38.2856 50.9158 39.1502 52.1445 40.3276 52.6636C40.7449 52.8476 41.1988 52.9347 41.6593 52.9347C42.9222 52.9347 44.2327 52.2791 44.9601 51.1712C45.8802 49.7697 45.8873 47.7727 44.9776 46.2027Z" fill="#E05D4F"/>
<path d="M33.9853 30.0898C33.941 30.0898 33.8974 30.0752 33.8617 30.0474L32.4911 28.9816C32.4033 28.9132 32.3874 28.7868 32.4558 28.699C32.524 28.6111 32.6505 28.5954 32.7384 28.6637L33.8927 29.5614L35.2157 26.0245C35.2546 25.9203 35.3711 25.8674 35.4748 25.9064C35.579 25.9453 35.6319 26.0613 35.5928 26.1654L34.1738 29.959C34.1514 30.019 34.1018 30.0648 34.0401 30.0822C34.0221 30.0874 34.0036 30.0898 33.9853 30.0898Z" fill="#E05D4F"/>
<path d="M35.7122 39.7442C35.6679 39.7442 35.6244 39.7297 35.5886 39.7019L34.2181 38.636C34.1304 38.5676 34.1145 38.4412 34.1829 38.3534C34.2512 38.2656 34.3775 38.2499 34.4655 38.318L35.6198 39.2157L36.9428 35.6788C36.9816 35.5747 37.098 35.5217 37.2019 35.5606C37.3061 35.5997 37.359 35.7157 37.3199 35.8199L35.9009 39.6134C35.8784 39.6734 35.8288 39.7192 35.7672 39.7366C35.749 39.7418 35.7305 39.7442 35.7122 39.7442Z" fill="#E05D4F"/>
<path d="M35.1452 48.3017C35.1009 48.3017 35.0574 48.2871 35.0216 48.2593L33.651 47.1934C33.5632 47.1252 33.5474 46.9986 33.6156 46.9108C33.684 46.8231 33.8103 46.8073 33.8982 46.8754L35.0525 47.7731L36.3755 44.2364C36.4145 44.1322 36.5306 44.0794 36.6346 44.1182C36.7388 44.1573 36.7917 44.2733 36.7526 44.3774L35.3336 48.1708C35.3112 48.2309 35.2616 48.2767 35.1999 48.294C35.1821 48.2992 35.1637 48.3017 35.1452 48.3017Z" fill="#E05D4F"/>
<path d="M24.6654 16.6322L24.2204 14.0986L23.7347 14.184L23.6606 13.7618L25.0962 13.5095L25.1704 13.9317L24.6848 14.017L25.1298 16.5506L24.6654 16.6322Z" fill="#412945"/>
<path d="M25.8392 16.4262L25.3201 13.4705L26.5868 13.248L26.6609 13.6702L25.8586 13.8112L25.9959 14.5925L26.6335 14.4806L26.7076 14.9025L26.0701 15.0145L26.2295 15.9223L27.0318 15.7813L27.1059 16.2036L25.8392 16.4262Z" fill="#412945"/>
<path d="M27.16 15.4715L27.1304 15.3026L27.5695 15.2255L27.6052 15.4281C27.6386 15.6183 27.7358 15.7013 27.8963 15.6731C28.061 15.6442 28.1242 15.5331 28.0893 15.3345C28.0677 15.212 28.0197 15.1118 27.9443 15.0291C27.873 14.9459 27.7475 14.8504 27.5675 14.7426C27.3478 14.6073 27.186 14.4789 27.0813 14.3537C26.9808 14.2278 26.9161 14.0826 26.8856 13.9093C26.8033 13.4405 26.9972 13.1324 27.4491 13.0529C27.8923 12.9751 28.1713 13.2003 28.2552 13.6776L28.2768 13.8L27.8375 13.8771L27.8108 13.7252C27.7768 13.5309 27.6837 13.4471 27.5275 13.4746C27.3713 13.5019 27.3074 13.6091 27.3408 13.7991C27.3594 13.9046 27.4065 14.0008 27.4813 14.079C27.556 14.1575 27.6816 14.2529 27.8615 14.3605C28.0854 14.4953 28.2479 14.6278 28.3443 14.7545C28.4448 14.8806 28.511 15.0344 28.5436 15.2201C28.6289 15.7057 28.4307 16.0147 27.9746 16.0948C27.5228 16.1738 27.2438 15.9486 27.16 15.4715Z" fill="#412945"/>
<path d="M29.2888 15.82L28.8438 13.2865L28.3583 13.3718L28.2842 12.9496L29.7197 12.6975L29.7938 13.1197L29.3082 13.205L29.7532 15.7385L29.2888 15.82Z" fill="#412945"/>
<path d="M59.1152 55.2423C57.2385 58.2492 53.4462 60.4723 53.4462 60.4723L52.9843 63.3397C49.1826 65.7574 44.8627 67.43 40.2288 68.1549L40.8892 62.9839C40.8892 62.9839 41.3309 46.6172 42.3659 45.3016C43.4009 43.9873 44.93 42.9228 44.93 42.9228C44.93 42.9228 44.9782 42.7415 45.0709 42.4448C45.0723 42.4407 45.0737 42.4368 45.0749 42.4328C45.4481 41.2353 46.5301 38.2042 48.1047 37.4672C48.1061 37.4658 48.1087 37.4658 48.11 37.4644C48.2323 37.408 48.3583 37.365 48.4859 37.3382C48.4859 37.3382 48.4859 37.3382 48.4873 37.3382C48.4953 37.3355 48.502 37.3343 48.5101 37.3329C48.5101 37.3329 49.082 35.9972 50.1317 35.3957C50.1344 35.3944 50.1357 35.393 50.1384 35.3904C50.615 35.1193 51.1895 34.9998 51.854 35.2239C51.8553 35.2239 51.8567 35.2253 51.8579 35.2253C51.8579 35.2253 52.219 34.5795 53.0688 34.4104C53.0769 34.4077 53.0836 34.4064 53.0917 34.4051C53.3575 34.3567 53.6716 34.3541 54.0368 34.4306C54.0516 34.4334 54.0663 34.4373 54.0825 34.4414C54.3254 34.4964 54.5912 34.5877 54.8798 34.7247C55.2369 34.8925 55.4361 35.2337 55.7651 35.5881C56.6484 36.5398 57.4895 37.8136 57.4895 37.8136C57.4895 37.8136 58.0494 36.3839 59.4468 36.2081C59.6468 36.1813 59.8643 36.1826 60.0992 36.2162C60.0992 36.2162 60.9932 52.2339 59.1152 55.2423Z" fill="#FFA291"/>
<path d="M51.4759 52.4703C51.4528 52.4703 51.4293 52.4663 51.4063 52.458C51.302 52.4196 51.2484 52.3038 51.2868 52.1995C52.2243 49.6517 53.819 47.3829 55.8984 45.6381C55.9837 45.5667 56.1107 45.5779 56.1821 45.6629C56.2536 45.7481 56.2424 45.8751 56.1573 45.9466C54.1316 47.6463 52.5782 49.8565 51.6649 52.3385C51.6349 52.42 51.5578 52.4703 51.4759 52.4703Z" fill="#412945"/>
<path d="M58.6697 40.2285C57.9094 38.7677 56.8515 36.8949 55.8782 35.7309L56.9987 29.2476L60.6305 30.09L58.6697 40.2285Z" fill="#E05D4F"/>
<path d="M56.2214 47.5296L55.2833 47.7864L54.5626 47.0131L53.8789 45.291C54.2074 44.4349 54.6347 43.2553 54.722 42.7028C54.7564 42.4891 54.7026 42.026 54.583 41.4282L54.9378 39.8679C55.6661 40.9252 56.9726 42.7233 57.6575 43.0517C57.8051 43.1225 57.9539 43.1563 58.1019 43.1642L57.508 46.2353L56.2214 47.5296Z" fill="#E05D4F"/>
<path d="M57.5081 46.4369C57.4292 46.4369 57.3543 46.3903 57.322 46.3127C57.0911 45.7567 56.7312 45.3758 56.2523 45.1803C55.2675 44.7785 54.0811 45.2733 54.0692 45.2783C53.9668 45.3217 53.8487 45.2741 53.805 45.1721C53.7614 45.0698 53.8087 44.9517 53.9109 44.908C53.9654 44.8846 55.2593 44.3415 56.4019 44.8064C56.9853 45.0436 57.4199 45.4986 57.6937 46.1583C57.7364 46.2609 57.6877 46.3788 57.585 46.4214C57.56 46.4321 57.5338 46.4369 57.5081 46.4369Z" fill="#412945"/>
<path d="M55.1823 48.574L54.563 47.0132C54.8766 46.8763 55.6634 46.6484 56.18 47.4574C56.1955 47.4813 56.21 47.5061 56.2218 47.5297L55.1823 48.574Z" fill="#412945"/>
<path d="M59.9132 42.2954C59.9088 42.2861 59.4772 41.3444 58.8484 40.1355C58.1151 38.7264 57.0313 36.7959 56.0327 35.6017C55.675 35.1747 55.3457 34.8624 55.0539 34.6736C53.1766 33.4585 51.9911 34.7521 51.8138 34.9669C51.505 34.8051 51.1721 34.7634 50.8218 34.8451C49.5312 35.1457 48.4373 37.0405 48.3913 37.121C48.3849 37.1322 48.38 37.1437 48.376 37.1555C46.468 37.5946 44.9512 42.1419 44.7736 42.6942C44.7619 42.7306 44.7619 42.7678 44.7701 42.8024C44.7185 42.8703 44.7133 42.9659 44.7652 43.0394C44.8293 43.1302 44.9548 43.1521 45.0457 43.0881C45.0689 43.0716 47.3975 41.4497 48.8551 42.0265C48.9872 42.0787 49.1347 42.1616 49.294 42.2689C49.3201 42.3031 49.3552 42.3284 49.3953 42.3403C50.1874 42.9071 51.2348 44.0208 52.1235 45.0437C52.1376 45.0694 52.1567 45.0921 52.1808 45.1098C52.9783 46.0313 53.6381 46.8658 53.8505 47.1377C53.6963 47.4716 53.1187 48.4834 51.9347 48.0645C50.4026 47.5227 48.3077 45.8887 48.2868 45.8721C48.2271 45.8254 48.1465 45.8159 48.0776 45.848L46.7403 46.4709C46.6396 46.5178 46.5958 46.6377 46.6428 46.7385C46.6899 46.8393 46.8095 46.8831 46.9104 46.8358L48.1366 46.2648C48.5785 46.6023 50.3816 47.9424 51.8006 48.4441C52.0438 48.5301 52.2696 48.5677 52.4783 48.5677C53.4699 48.5677 54.0704 47.7179 54.2708 47.1771C54.2949 47.112 54.2839 47.0391 54.2415 46.9843C54.2086 46.9414 54.0075 46.6812 53.6985 46.2976C53.7558 46.1559 53.8985 45.8003 54.0669 45.3632C54.407 44.477 54.8313 43.3017 54.9209 42.7348C54.9685 42.439 54.8707 41.8395 54.7803 41.3883C54.6811 40.8983 54.5135 40.23 54.2931 39.5077L54.3862 39.4112C54.4782 39.55 54.6114 39.7488 54.7719 39.9821C55.6678 41.2827 56.8805 42.9026 57.5704 43.2333C57.7324 43.3111 57.9075 43.3555 58.0918 43.3654C58.1159 43.3666 58.1398 43.3672 58.1637 43.3672C59.0551 43.367 59.8417 42.5534 59.8756 42.518C59.9326 42.4584 59.9475 42.3702 59.9132 42.2954ZM49.605 41.9997C49.3344 41.456 48.4957 40.4932 48.4586 40.4508C48.3852 40.367 48.2579 40.3585 48.1745 40.4318C48.0908 40.5049 48.0822 40.6321 48.1555 40.7159C48.3062 40.8883 48.6138 41.2557 48.8733 41.6069C47.6427 41.217 46.0511 42.0058 45.2761 42.4645C45.8704 40.7648 47.3519 37.3823 48.7576 37.5278C50.2678 37.6839 51.9805 40.9405 52.4694 41.935C52.6311 42.2641 52.6713 42.6402 52.5825 42.9943L52.1999 44.518C51.3458 43.5523 50.3764 42.5487 49.605 41.9997ZM54.5235 42.6715C54.4577 43.0871 54.1621 43.992 53.6912 45.2187C53.5797 45.5083 53.4795 45.7615 53.4081 45.9402C53.1513 45.6267 52.8496 45.2655 52.5226 44.8872L52.9731 43.0925C53.085 42.6461 53.0346 42.172 52.8307 41.7574C52.0251 40.1187 50.4449 37.36 48.8545 37.1358C49.1546 36.666 50.0089 35.4474 50.9134 35.2372C51.2146 35.1672 51.4867 35.2183 51.7453 35.3933C52.8603 36.1477 53.98 39.4644 54.3856 41.468C54.5008 42.0419 54.5523 42.4917 54.5235 42.6715ZM58.1129 42.9633C57.9808 42.9562 57.8603 42.9258 57.7447 42.8702C57.2757 42.6453 56.3131 41.5094 55.1038 39.7538C54.7939 39.3032 54.5876 38.9841 54.5855 38.9808C54.5522 38.9291 54.4971 38.8956 54.4358 38.8896C54.3746 38.8837 54.3141 38.906 54.2713 38.9502L54.1553 39.0705C53.6568 37.5427 52.9435 35.8892 52.1454 35.1963C52.3269 34.9803 53.2753 34.0019 54.835 35.0113C55.0929 35.1784 55.3919 35.4638 55.7237 35.8598C56.6989 37.0263 57.7668 38.9298 58.491 40.3212C58.9795 41.2602 59.3477 42.0359 59.4866 42.3329C59.2631 42.5348 58.6909 42.9932 58.1129 42.9633Z" fill="#412945"/>
<path d="M56.1938 23.7131C58.6834 21.2235 58.6834 17.1871 56.1938 14.6975C53.7042 12.2079 49.6678 12.2079 47.1782 14.6975C44.6886 17.1871 44.6886 21.2235 47.1782 23.7131C49.6678 26.2027 53.7042 26.2027 56.1938 23.7131Z" fill="#BB91FF"/>
<path d="M51.6636 21.2345C47.4453 21.2345 42.9622 20.4913 42.9622 19.1137C42.9622 17.7363 47.4453 16.9929 51.6636 16.9929C55.8818 16.9929 60.3651 17.7361 60.3651 19.1137C60.365 20.4911 55.8818 21.2345 51.6636 21.2345ZM51.6636 17.3957C46.5219 17.3957 43.3648 18.3963 43.3648 19.1137C43.3648 19.8311 46.5219 20.8317 51.6636 20.8317C56.8052 20.8317 59.9623 19.8311 59.9623 19.1137C59.9622 18.3963 56.8052 17.3957 51.6636 17.3957Z" fill="#412945"/>
<path d="M11.8557 34.6273C12.2529 32.622 10.9493 30.6744 8.94394 30.2771C6.93861 29.8799 4.99097 31.1835 4.59374 33.1889C4.19652 35.1942 5.50015 37.1418 7.50547 37.5391C9.51079 37.9363 11.4584 36.6327 11.8557 34.6273Z" fill="#FFC569"/>
<path d="M32.3325 60.22C32.3325 60.8563 33.7136 61.1932 33.5029 61.7556C32.8492 63.5102 31.2691 64.8124 29.3563 65.0688C29.1294 65.0997 28.843 64.2644 28.6081 64.2644C25.7541 64.2644 24.2896 62.5028 24.2896 59.6488C24.2896 59.1641 23.5625 58.9956 23.686 58.5512C24.1209 57.0021 25.258 55.7482 26.7333 55.1536H26.7347C27.3308 54.9147 27.1723 56.6555 27.8543 56.6555C30.708 56.6555 32.3325 57.3662 32.3325 60.22Z" fill="#F8BDFF"/>
<path d="M33.8292 59.9489C33.8292 60.5852 33.7138 61.1933 33.503 61.7558C33.0586 61.7101 32.621 61.4819 32.2572 61.2067C31.9323 60.9597 31.6236 60.647 31.5471 60.2469C31.5108 60.063 31.527 59.8711 31.4813 59.6898C31.3738 59.2724 30.9671 59.0079 30.5739 58.832C29.9697 58.5609 29.3254 58.3971 28.7066 58.1621C28.0877 57.9272 27.4797 57.6077 27.0582 57.0988C26.45 56.3645 26.4272 55.6906 26.7333 55.1536H26.7347C27.3308 54.9146 27.9805 54.7817 28.6624 54.7817C31.5162 54.7819 33.8292 57.0949 33.8292 59.9489Z" fill="#BB91FF"/>
<path d="M29.3564 65.0689C29.1295 65.0998 28.8973 65.1159 28.6624 65.1159C25.8084 65.1159 23.4954 62.8029 23.4954 59.9489C23.4954 59.4642 23.5625 58.9958 23.6859 58.5513C23.8108 58.55 23.9531 58.5714 24.1128 58.6226C25.7143 59.1273 24.2738 61.0214 25.1237 61.9532C25.4083 62.2673 25.8647 62.3384 26.2768 62.4378C26.8648 62.5788 27.4312 62.8097 27.9494 63.1198C28.4045 63.3936 28.8314 63.7373 29.0999 64.1964C29.2542 64.4607 29.3483 64.7655 29.3564 65.0689Z" fill="#BB91FF"/>
<path d="M26.6889 60.271C27.1463 60.7835 27.9817 60.8213 28.4251 61.3459C28.642 61.6027 28.732 61.9393 28.8577 62.2511C29.0325 62.6854 29.3039 63.1041 29.715 63.3279C30.1261 63.5517 30.6965 63.5258 31.0065 63.1748C31.3148 62.8258 31.2814 62.2934 31.1571 61.8445C30.7986 60.5505 29.7819 59.4812 28.5469 58.9777C28.1192 58.8032 27.2887 58.4799 26.8279 58.7008C26.2646 58.971 26.3233 59.8616 26.6889 60.271Z" fill="#BB91FF"/>
</svg>
