<svg width="71" height="70" viewBox="0 0 71 70" fill="none" xmlns="http://www.w3.org/2000/svg">
<g clip-path="url(#clip0_1_1229)">
<path d="M0.508244 12.7779H70.4924C70.5437 11.6035 70.2547 10.4184 69.6235 9.377L64.449 0.845947L64.4148 0.820312H6.56714L1.37716 9.377C0.745366 10.4184 0.456974 11.6035 0.508244 12.7779Z" fill="#FC4E51"/>
<path d="M4.10312 4.88232L1.77783 8.7158H69.2215L66.8967 4.88232H4.10312Z" fill="#F3E8D7"/>
<path d="M36.103 49.3738L46.4312 55.4001L69.6756 15.5619C70.7934 13.6463 70.7731 11.2729 69.6232 9.37701L64.4327 0.820312L36.103 49.3738Z" fill="#EA3942"/>
<path d="M66.83 4.77222L41.6587 47.9124L44.9699 49.8441L69.1884 8.6607L66.83 4.77222Z" fill="#F3E8D7"/>
<path d="M34.897 49.3738L24.5689 55.4001L1.32394 15.5619C0.206689 13.6463 0.226983 11.2729 1.37681 9.37701L6.5668 0.820312L34.897 49.3738Z" fill="#FC4E51"/>
<path d="M1.86475 8.57311L26.0304 49.8441L29.341 47.9124L4.17028 4.77222L1.86475 8.57311Z" fill="#F3E8D7"/>
<path d="M38.0364 42.5713C38.8364 43.2885 39.9029 43.6351 40.9721 43.5251C42.907 43.3259 44.6822 44.6157 45.0908 46.5175C45.3167 47.5685 45.9752 48.4748 46.905 49.0147C48.5878 49.991 49.2655 52.0775 48.4783 53.8565C48.0431 54.8397 48.0431 55.9601 48.4783 56.9434C49.2655 58.7223 48.5878 60.8089 46.905 61.7851C45.9752 62.3245 45.3167 63.2314 45.0908 64.2824C44.6822 66.1842 42.907 67.4739 40.9721 67.2747C39.9029 67.1647 38.837 67.5113 38.0364 68.2286C36.5875 69.5274 34.3936 69.5274 32.9452 68.2286C32.1447 67.5113 31.0787 67.1647 30.0095 67.2747C28.0741 67.4739 26.2994 66.1842 25.8908 64.2824C25.6649 63.2314 25.0059 62.3245 24.0766 61.7851C22.3938 60.8083 21.7156 58.7223 22.5033 56.9434C22.938 55.9601 22.938 54.8397 22.5033 53.8565C21.7156 52.0775 22.3938 49.991 24.0766 49.0147C25.0059 48.4753 25.6649 47.5685 25.8908 46.5175C26.2994 44.6151 28.0741 43.3259 30.0095 43.5251C31.0787 43.6351 32.1447 43.2885 32.9452 42.5713C34.3936 41.2725 36.5875 41.2725 38.0364 42.5713Z" fill="#FCB038"/>
<path d="M48.4782 56.9434C48.043 55.9601 48.043 54.8397 48.4782 53.8565C49.2655 52.0775 48.5872 49.991 46.9049 49.0147C45.9751 48.4753 45.3161 47.5685 45.0902 46.5175C44.6816 44.6157 42.9069 43.3259 40.9715 43.5251C39.9023 43.6351 38.8363 43.2885 38.0358 42.5713C36.5874 41.2725 34.3935 41.2725 32.9451 42.5713C32.8346 42.6701 32.7192 42.7609 32.5996 42.8458C37.5124 44.895 40.9656 49.7442 40.9656 55.3999C40.9656 61.0561 37.5124 65.9049 32.5996 67.9546C32.7192 68.039 32.8346 68.1298 32.9451 68.2286C34.3935 69.5274 36.5874 69.5274 38.0358 68.2286C38.8363 67.5113 39.9023 67.1647 40.9715 67.2747C42.9069 67.4739 44.6816 66.1842 45.0902 64.2824C45.3161 63.2314 45.9751 62.3251 46.9049 61.7851C48.5877 60.8089 49.2655 58.7223 48.4782 56.9434Z" fill="#FD8F31"/>
<path d="M43.6132 55.4001C43.6132 59.8862 39.9768 63.5226 35.4907 63.5226C31.0051 63.5226 27.3682 59.8862 27.3682 55.4001C27.3682 50.9145 31.0051 47.2776 35.4907 47.2776C39.9768 47.2776 43.6132 50.9145 43.6132 55.4001Z" fill="#FFE285"/>
</g>
<defs>
<clipPath id="clip0_1_1229">
<rect width="70" height="70" fill="white" transform="translate(0.5)"/>
</clipPath>
</defs>
</svg>
