<svg width="64" height="64" viewBox="0 0 64 64" fill="none" xmlns="http://www.w3.org/2000/svg">
<path d="M54.5392 45.0652C54.5392 45.0652 59.2285 55.1275 58.9354 56.4952C58.6423 57.8629 46.1377 63.6073 40.4715 63.6073C34.8053 63.6073 23.473 63.6073 23.473 63.6073L17.3184 48.7775L54.5392 45.0652Z" fill="#7738C7"/>
<path d="M16.2713 22.6287C13.3051 23.4817 6.66929 23.803 4.3206 23.803C1.97191 23.803 6.66929 38.5169 7.49824 43.4215C8.32719 48.3261 23.7317 31.7277 23.7317 31.7277L16.2713 22.6287Z" fill="#7738C7"/>
<path d="M54.4425 44.9844L51.173 45.3105C44.5137 48.0496 34.0315 52.5847 34.0315 52.5847C34.0315 52.5847 48.6176 52.4173 56.941 50.6441C55.7505 47.7946 54.4425 44.9844 54.4425 44.9844Z" fill="#171D8F"/>
<path d="M23.87 22.3523C23.87 22.3523 7.67114 28.5695 4.04431 29.1912C0.417481 29.8129 0.41748 30.9182 0.41748 32.7833C0.41748 34.6484 7.63642 55.234 10.6068 57.859C13.5772 60.484 16.6167 63.6071 24.6299 63.6071C32.6431 63.6071 51.2944 56.4774 52.6069 55.3722C53.9194 54.2669 33.6102 21.3162 33.6102 21.3162L23.87 22.3523Z" fill="#FFC517"/>
<path d="M37.0708 44.7478C35.6556 44.7472 30.8701 45.9945 27.739 46.8832C23.7311 48.0208 19.1192 49.1644 17.3151 49.9036C15.511 50.6429 15.49 51.3149 16.811 51.0611C16.811 51.0611 36.2483 46.1337 37.3567 45.0772C37.5991 44.846 37.4671 44.748 37.0708 44.7478ZM38.4751 49.1674C37.0599 49.1669 32.2747 50.4141 29.1435 51.3029C25.1357 52.4404 20.5238 53.5841 18.7197 54.3233C16.9155 55.0625 16.8943 55.7348 18.2153 55.481C18.2153 55.481 37.6526 50.5534 38.761 49.4968C39.0034 49.2657 38.8714 49.1676 38.4751 49.1674ZM41.0943 54.0887C39.6791 54.0882 34.8939 55.3354 31.7627 56.2242C27.7549 57.3617 23.143 58.5051 21.3389 59.2443C19.5347 59.9835 19.5135 60.6559 20.8345 60.4021C20.8345 60.4021 40.2718 55.4744 41.3801 54.4178C41.6226 54.1867 41.4906 54.0889 41.0943 54.0887Z" fill="#FF4B3D"/>
<path d="M27.2839 28.1638C25.8711 28.1631 21.0937 29.4084 17.9678 30.2956C13.9667 31.4313 9.36257 32.573 7.56147 33.311C5.76037 34.0489 5.73941 34.7199 7.05824 34.4665C7.05824 34.4665 26.4628 29.5474 27.5693 28.4926C27.8113 28.2619 27.6795 28.164 27.2839 28.1638ZM28.6859 32.576C27.273 32.5753 22.4959 33.8206 19.37 34.7078C15.3689 35.8435 10.7648 36.9852 8.96366 37.7232C7.16257 38.4611 7.14133 39.1324 8.46017 38.879C8.46017 38.879 27.8647 33.9596 28.9712 32.9048C29.2133 32.6741 29.0815 32.5762 28.6859 32.576ZM31.3006 37.489C29.8878 37.4883 25.1106 38.7336 21.9848 39.6209C17.9837 40.7565 13.3795 41.898 11.5784 42.6359C9.77735 43.3739 9.75611 44.0451 11.075 43.7917C11.075 43.7917 30.4795 38.8724 31.586 37.8176C31.828 37.5868 31.6962 37.4892 31.3006 37.489Z" fill="#7738C7"/>
<path d="M48.4423 46.4446C41.9861 49.144 34.0315 52.5846 34.0315 52.5846C34.0315 52.5846 43.2103 52.4791 51.161 51.5509C50.4524 50.1276 49.5157 48.3788 48.4423 46.4446Z" fill="#FFAA17"/>
<path d="M60.9505 35.6956C60.9505 35.6956 62.4132 37.4508 62.0719 38.3772C61.7306 39.3036 63.0958 39.0598 62.6082 39.9861C62.1206 40.9125 63.2908 40.5712 62.9983 41.3026C62.7057 42.0339 64.6072 43.3991 61.7793 44.228C58.9515 45.0568 38.5712 51.4927 32.5741 52.1266C26.577 52.7604 21.6038 49.2012 25.3581 45.2519C29.1124 41.3026 60.9505 35.6956 60.9505 35.6956Z" fill="#171D8F"/>
<path d="M44.6452 0.419703C38.5151 0.495287 18.8157 4.82736 13.7434 6.42946L16.425 24.8435L24.975 41.9438L29.2892 45.8119C29.3195 45.7947 29.348 45.777 29.3791 45.7602C32.3513 44.1502 60.3278 37.1971 61.5663 36.0825C62.8047 34.9679 48.122 2.30299 46.3882 0.693007C46.1714 0.49176 45.5592 0.408433 44.6452 0.419703ZM62.0678 43.2266C56.4939 44.339 32.0418 52.5068 29.1314 50.8378C28.9627 50.741 28.7615 50.7522 28.5965 50.6826L27.147 51.6659L28.9484 53.7012C37.1785 53.4771 64.0538 46.5582 63.6071 43.8252C63.542 43.4268 62.9719 43.0462 62.0678 43.2266Z" fill="#7738C7"/>
<path d="M13.7435 6.42944C13.5216 6.49954 13.3188 6.5661 13.1553 6.62516C8.69686 8.23514 10.0593 12.5696 10.0593 12.5696C11.7932 17.5853 20.5346 52.0888 27.2404 53.5988C27.6444 53.6898 28.2258 53.7208 28.9485 53.7012C28.378 52.8137 28.3764 51.7123 28.5966 50.6826C26.8636 49.9514 26.6691 47.2942 29.2893 45.8119L13.7435 6.42944Z" fill="#FFC517"/>
<path d="M10.8404 8.1748C9.27934 10.0811 10.0594 12.5695 10.0594 12.5695C11.7932 17.5852 20.5346 52.0888 27.2405 53.5987C27.6445 53.6897 28.2258 53.7208 28.9486 53.7011C28.3781 52.8136 28.3764 51.7122 28.5966 50.6825C27.7649 50.3316 27.2891 49.5368 27.3072 48.6414C25.3175 47.2445 23.8847 44.8542 22.6309 42.1506C20.4244 37.3929 13.1844 19.2583 12.1501 15.9486C11.4975 13.8603 10.8713 10.6232 10.8404 8.1748Z" fill="#FFAA17"/>
<path d="M23.1153 10.537C32.9641 7.5141 41.0577 5.85637 42.0329 6.53896C43.008 7.22156 44.0807 11.2196 43.8856 12.2922C43.6906 13.3649 26.5283 16.4853 25.0656 16.1928C23.6029 15.9002 22.0426 11.3171 23.1153 10.537Z" fill="white"/>
<path d="M29.9708 34.5431C32.2198 33.5208 39.0692 31.2717 39.0692 32.294C39.0692 33.3163 32.1176 35.5654 30.5841 35.7698C29.0507 35.9743 29.9708 34.5431 29.9708 34.5431Z" fill="#FFC517"/>
<path d="M30.7476 37.3685C32.9967 36.3462 39.846 34.0972 39.846 35.1195C39.846 36.1417 32.8944 38.3908 31.361 38.5952C29.8276 38.7997 30.7476 37.3685 30.7476 37.3685Z" fill="#FFC517"/>
<path d="M14.7045 9.53426C14.3631 9.54638 13.6413 9.69995 12.2191 10.4326C9.94372 11.6048 9.63337 12.6736 9.25413 13.9493C8.87489 15.2249 10.047 17.6726 10.5641 20.4307C11.0813 23.1888 13.3052 23.4818 13.3052 23.4818L12.4949 20.7755C12.4949 20.7755 12.15 19.3965 13.1153 17.2934C14.0807 15.1904 16.9077 14.3975 16.9077 14.3975L14.9773 9.57079C14.9773 9.57079 14.9093 9.52698 14.7045 9.53426ZM23.7318 31.7279C23.7318 31.7279 22.594 31.7969 20.3185 32.9691C18.0431 34.1413 17.7328 35.2099 17.3535 36.4855C16.9743 37.7611 18.1466 40.2091 18.6638 42.9672C19.1809 45.7253 21.4046 46.0183 21.4046 46.0183L20.5945 43.312C20.5945 43.312 20.2496 41.9327 21.215 39.8297C22.1803 37.7266 25.6625 36.5546 25.6625 36.5546L23.7318 31.7279Z" fill="#FF4B3D"/>
<path d="M58.7454 39.4594C58.125 39.5219 29.7078 46.2581 29.5006 46.8671C29.2935 47.476 52.4713 42.052 56.2089 40.9402C59.9465 39.8283 60.9317 38.9449 58.7454 39.4594Z" fill="white"/>
<path d="M60.2852 41.4115C59.6648 41.4741 31.2476 48.2103 31.0404 48.8192C30.8333 49.4282 54.0111 44.0042 57.7487 42.8923C61.4863 41.7805 62.4715 40.8971 60.2852 41.4115Z" fill="white"/>
<path d="M11.0918 11.1143C9.82132 12.033 9.55881 12.9243 9.25413 13.9492C8.87489 15.2248 10.047 17.6725 10.5641 20.4306C11.0813 23.1887 13.3052 23.4817 13.3052 23.4817L12.4949 20.7754C12.4949 20.7754 12.2231 19.6756 12.8497 17.945C12.5291 17.0727 12.2849 16.3799 12.1501 15.9487C11.7386 14.632 11.3399 12.859 11.0918 11.1143ZM19.0677 33.7438C17.9051 34.6298 17.6479 35.4952 17.3535 36.4854C16.9743 37.761 18.1466 40.209 18.6638 42.9671C19.1809 45.7252 21.4046 46.0182 21.4046 46.0182L20.5945 43.3119C20.5945 43.3119 20.2497 41.9326 21.215 39.8296C21.2779 39.6925 21.352 39.5595 21.4347 39.4304C20.7537 37.836 19.9369 35.8703 19.0677 33.7438Z" fill="#CF1531"/>
<path d="M8.54883 54.6416C9.32577 56.1478 10.0292 57.2665 10.5841 57.7569C13.5495 60.3775 16.584 63.4953 24.5837 63.4953C26.1689 63.4953 28.1743 63.2129 30.3762 62.7561C23.8323 60.8001 22.4298 55.5866 21.4803 54.8605C20.4053 54.0385 14.5173 57.3323 8.54883 54.6416Z" fill="#FFAA17"/>
</svg>
