<svg width="80" height="72" viewBox="0 0 80 72" fill="none" xmlns="http://www.w3.org/2000/svg">
<path d="M74.94 2.54426H67.5395C64.441 -0.221773 59.9289 -0.111207 56.627 2.54426H7.54728C6.45091 2.54426 5.39945 2.97979 4.62421 3.75504C3.84896 4.53029 3.41343 5.58175 3.41343 6.67812V13.5885C2.66221 13.8947 2.02318 14.4242 1.58282 15.1055C1.14245 15.7868 0.922007 16.5869 0.951316 17.3976L1.21545 25.0966C1.24208 25.8213 1.4593 26.5261 1.84519 27.14C2.23108 27.7539 2.77201 28.2553 3.41344 28.5934V56.1568C3.41344 57.2532 3.84898 58.3047 4.62424 59.0799C5.3995 59.8552 6.45099 60.2907 7.54738 60.2907H32.3849V66.0962H29.4199C29.1401 66.0962 28.8718 66.2073 28.674 66.4051C28.4761 66.603 28.365 66.8713 28.365 67.1511V70.4355C28.365 70.5741 28.3923 70.7112 28.4453 70.8392C28.4983 70.9672 28.576 71.0835 28.674 71.1814C28.7719 71.2794 28.8882 71.3571 29.0162 71.4101C29.1442 71.4631 29.2813 71.4904 29.4199 71.4904H53.0673C53.2058 71.4904 53.343 71.4631 53.471 71.4101C53.5989 71.3571 53.7152 71.2794 53.8132 71.1814C53.9112 71.0835 53.9889 70.9672 54.0419 70.8392C54.0949 70.7112 54.1222 70.5741 54.1222 70.4355V67.1511C54.1222 67.0125 54.0949 66.8754 54.0419 66.7474C53.9889 66.6194 53.9112 66.5031 53.8132 66.4051C53.7152 66.3072 53.5989 66.2295 53.471 66.1765C53.343 66.1235 53.2058 66.0962 53.0673 66.0962H50.1024V60.2907H74.9399C76.0363 60.2907 77.0878 59.8552 77.8631 59.0799C78.6384 58.3046 79.0739 57.2531 79.0739 56.1567V6.67812C79.0739 6.13526 78.967 5.59771 78.7592 5.09616C78.5515 4.59462 78.247 4.13891 77.8631 3.75504C77.4793 3.37118 77.0236 3.06668 76.522 2.85893C76.0205 2.65119 75.4829 2.54426 74.94 2.54426Z" fill="white"/>
<path d="M75.3036 4.4043H7.18344C6.12857 4.4043 5.27344 5.25943 5.27344 6.3143V56.5205C5.27344 57.5754 6.12857 58.4305 7.18344 58.4305H75.3036C76.3585 58.4305 77.2136 57.5754 77.2136 56.5205V6.3143C77.2136 5.25943 76.3585 4.4043 75.3036 4.4043Z" fill="#00ABFE"/>
<path d="M48.2422 68.9514H34.245V58.4305H48.2422V68.9514Z" fill="#824CD8"/>
<path d="M30.2251 67.9563H52.2621V69.6304H30.2251V67.9563Z" fill="#A369F7"/>
<path d="M41.2438 56.4626C42.2154 56.4626 43.0031 55.6749 43.0031 54.7032C43.0031 53.7315 42.2154 52.9438 41.2438 52.9438C40.2721 52.9438 39.4844 53.7315 39.4844 54.7032C39.4844 55.6749 40.2721 56.4626 41.2438 56.4626Z" fill="white"/>
<path d="M74.2476 8.85957V49.2342C74.2473 49.6497 74.0821 50.048 73.7883 50.3418C73.4946 50.6355 73.0962 50.8007 72.6808 50.801H9.80563C9.5271 50.8014 9.25375 50.7257 9.01513 50.582C8.77905 50.4453 8.58323 50.2486 8.44744 50.012C8.31164 49.7753 8.24068 49.5071 8.24171 49.2342V8.85957C8.24159 8.65416 8.28197 8.45075 8.36052 8.26095C8.43907 8.07115 8.55426 7.8987 8.69951 7.75346C8.84476 7.60821 9.01721 7.49302 9.207 7.41446C9.3968 7.33591 9.60022 7.29554 9.80563 7.29565H72.6808C73.0959 7.29531 73.4942 7.45988 73.788 7.75316C74.0819 8.04645 74.2471 8.44443 74.2476 8.85957Z" fill="#EAE5DB"/>
<path d="M2.81032 17.334L3.07444 25.0331C3.09399 25.6032 3.32908 26.1445 3.73225 26.5479C4.13542 26.9514 4.67664 27.1868 5.24664 27.2067L28.4623 28.0176C29.2381 28.0447 29.9958 27.7791 30.5848 27.2736C31.1739 26.768 31.5514 26.0594 31.6423 25.2885L32.2582 20.0657L35.195 17.4223C35.2722 17.3528 35.3269 17.262 35.3523 17.1614C35.3777 17.0607 35.3726 16.9548 35.3376 16.8571C35.3026 16.7594 35.2394 16.6743 35.1559 16.6126C35.0724 16.5509 34.9725 16.5155 34.8688 16.5108L5.01677 15.1521C4.72558 15.1388 4.4348 15.186 4.16274 15.2906C3.89068 15.3953 3.64322 15.5551 3.43596 15.7601C3.22869 15.965 3.0661 16.2107 2.95843 16.4816C2.85076 16.7524 2.80033 17.0427 2.81032 17.334Z" fill="#7AD001"/>
<path d="M5.2755 19.1749C5.26819 19.2828 5.28256 19.391 5.31776 19.4932C5.35296 19.5954 5.40827 19.6895 5.48043 19.77C5.5526 19.8505 5.64016 19.9157 5.73793 19.9618C5.83571 20.0079 5.94173 20.0339 6.04973 20.0383L27.7614 20.9313C27.8686 20.9357 27.9756 20.9188 28.0762 20.8815C28.1768 20.8442 28.269 20.7872 28.3473 20.714C28.4257 20.6407 28.4888 20.5526 28.5328 20.4548C28.5768 20.3569 28.6009 20.2513 28.6038 20.1441C28.6093 19.9335 28.5326 19.7291 28.3899 19.5742C28.2472 19.4193 28.0497 19.3262 27.8394 19.3146L6.14843 18.1152C5.21594 18.0637 5.26929 19.1906 5.2755 19.1749Z" fill="white"/>
<path d="M5.2755 23.298C5.26819 23.4058 5.28256 23.5141 5.31776 23.6163C5.35296 23.7185 5.40827 23.8126 5.48043 23.8931C5.5526 23.9735 5.64016 24.0387 5.73793 24.0848C5.83571 24.1309 5.94173 24.1569 6.04973 24.1614L27.7614 25.0544C27.8686 25.0588 27.9756 25.0418 28.0762 25.0045C28.1768 24.9672 28.269 24.9103 28.3473 24.837C28.4257 24.7638 28.4888 24.6757 28.5328 24.5778C28.5768 24.48 28.6009 24.3744 28.6038 24.2671C28.6093 24.0566 28.5326 23.8522 28.3899 23.6973C28.2472 23.5424 28.0497 23.4492 27.8394 23.4376L6.14843 22.2383C5.21594 22.1867 5.26929 23.3136 5.2755 23.298Z" fill="white"/>
<path d="M66.6782 7.29565L23.1729 50.801H9.80563C9.52711 50.8014 9.25376 50.7257 9.01514 50.582L52.3015 7.29565H66.6782Z" fill="white"/>
<path d="M56.7914 4.96201C55.8678 6.03753 56.0856 7.61942 57.2371 7.85458C58.6524 8.14365 59.5099 6.34385 60.558 5.74088C61.9732 4.92674 64.0666 6.04469 64.1772 7.67364C64.2454 8.67905 63.6743 9.63659 62.9287 10.3145C61.4387 11.6691 58.9613 12.3014 57.4485 14.5178C56.7088 15.6017 56.3571 17.0124 56.7784 18.2552C56.8875 18.5769 57.0695 18.9051 57.3822 19.038C58.0741 19.332 58.6964 18.5313 59.077 17.883C61.746 13.336 64.9684 13.0344 66.6853 11.3318C71.8129 6.2467 62.7412 -1.96711 56.7914 4.96201Z" fill="#FFB020"/>
<path d="M54.7889 21.914C54.63 22.1734 54.5263 22.4627 54.4842 22.764C54.4421 23.0653 54.4625 23.372 54.5443 23.665C54.733 24.2417 55.2893 24.7116 55.8958 24.6915C56.9281 24.6572 58.3292 22.9601 57.8878 21.7569C57.4442 20.5481 55.6537 20.395 54.7889 21.914Z" fill="#FFB020"/>
<path d="M68.2003 15.3723C67.4152 15.631 67.0473 16.4862 67.5513 16.9506C68.1707 17.5213 69.141 16.8812 69.8459 16.896C71.2667 16.9258 72.0605 19.418 69.6513 19.8934C68.6735 20.0863 64.76 19.4029 64.1887 22.0043C64.1594 22.0991 64.1501 22.199 64.1614 22.2975C64.1727 22.3961 64.2043 22.4913 64.2543 22.577C64.5111 22.9322 65.063 22.72 65.4483 22.5111C68.1506 21.0454 69.8501 21.8657 71.2201 21.533C75.3144 20.5388 73.2545 13.7071 68.2003 15.3723Z" fill="#FFB020"/>
<path d="M63.2337 23.1688C62.5628 22.8107 61.6059 23.3286 61.4437 24.0317C61.4007 24.204 61.4129 24.3854 61.4784 24.5503C61.544 24.7153 61.6596 24.8556 61.8091 24.9513C62.0803 25.103 62.4186 25.0588 62.715 24.9655C63.9182 24.5867 63.9381 23.5448 63.2337 23.1688Z" fill="#FFB020"/>
<path d="M62.7002 46.6524C60.6947 46.7473 58.6957 46.9495 56.7118 47.258C56.7033 48.4381 56.7023 49.6191 56.709 50.801H35.5676C35.5335 48.2049 35.6785 45.8107 35.8235 43.4165C35.0798 44.3106 34.4609 45.3016 33.9838 46.3623C32.5251 44.7586 31.2086 43.2572 29.7612 41.8924C30.5659 38.9039 31.692 35.9239 32.9658 33.0065C33.3781 32.0624 33.8274 31.0985 34.6037 30.4246C35.434 29.7052 36.5373 29.4066 37.6007 29.1308C39.0066 28.7635 41.6925 28.0595 43.3758 27.7148C44.9096 27.378 46.4594 27.1189 48.0193 26.9385C50.4332 27.9052 51.0916 27.8975 53.1574 28.5735C54.7924 29.1081 56.4218 29.8872 57.4881 31.2378C58.1307 32.0539 58.5316 33.0264 58.8899 34.0017C59.5752 35.8613 60.1354 37.7636 60.6955 39.6659C61.3808 41.989 62.0661 44.315 62.7002 46.6524Z" fill="#FF605B"/>
<path d="M35.7114 43.6535H35.7111C35.6075 43.6534 35.5082 43.6121 35.435 43.5388C35.3618 43.4655 35.3207 43.3661 35.3208 43.2625C35.3229 40.8252 35.3937 38.3535 35.5311 35.916C35.534 35.8648 35.5469 35.8147 35.5692 35.7684C35.5914 35.7222 35.6226 35.6809 35.6608 35.6467C35.6991 35.6125 35.7437 35.5862 35.7921 35.5693C35.8406 35.5523 35.8918 35.5451 35.9431 35.548C35.9943 35.5509 36.0444 35.5638 36.0906 35.5861C36.1368 35.6083 36.1782 35.6395 36.2124 35.6778C36.2466 35.716 36.2729 35.7606 36.2898 35.809C36.3068 35.8575 36.314 35.9088 36.3111 35.96C36.1745 38.3831 36.1042 40.8403 36.1021 43.2631C36.102 43.3667 36.0608 43.466 35.9875 43.5392C35.9143 43.6124 35.815 43.6535 35.7114 43.6535Z" fill="#C72F55"/>
<path d="M48.4441 39.6366C48.3445 39.6082 48.2603 39.5414 48.21 39.451C48.1596 39.3605 48.1472 39.2538 48.1755 39.1542C48.2038 39.0546 48.2705 38.9703 48.3609 38.9199C48.4513 38.8694 48.5581 38.8569 48.6577 38.8851C49.8986 39.233 51.2113 39.2337 52.4526 38.887C52.5522 38.859 52.6588 38.8716 52.7491 38.9222C52.8394 38.9727 52.906 39.057 52.9342 39.1565C52.9624 39.2561 52.95 39.3628 52.8996 39.4532C52.8493 39.5436 52.7651 39.6103 52.6656 39.6387C51.2855 40.03 49.8237 40.0293 48.4441 39.6366Z" fill="#C72F55"/>
<path d="M56.1195 47.0685L54.0831 38.7903C54.0708 38.7405 54.0685 38.6888 54.0763 38.6381C54.084 38.5874 54.1016 38.5387 54.1282 38.4948C54.1818 38.4062 54.2685 38.3425 54.3691 38.3177C54.4697 38.293 54.576 38.3092 54.6647 38.3628C54.7533 38.4165 54.817 38.5031 54.8418 38.6037L56.8782 46.8819C56.9026 46.9824 56.8861 47.0884 56.8324 47.1768C56.7788 47.2652 56.6923 47.3287 56.5919 47.3534C56.4915 47.378 56.3854 47.3619 56.2968 47.3085C56.2083 47.2552 56.1445 47.1689 56.1195 47.0685Z" fill="#C72F55"/>
<path d="M48.2956 22.7798C48.4676 24.7442 48.7131 26.7021 48.9301 28.5727C46.5404 30.3727 43.908 30.0887 42.5835 28.6219C42.7589 27.2161 42.9344 25.8102 43.2218 24.3499C44.9266 24.5191 46.5358 23.6243 48.2956 22.7798Z" fill="#FFAD92"/>
<path d="M48.2955 22.7798L43.2218 24.3499L43.0342 25.3839C43.0342 25.3839 44.1854 26.7839 45.9422 26.1995C46.9867 25.8534 47.8707 25.141 48.431 24.1939L48.2955 22.7798Z" fill="#ED6C4D"/>
<path d="M50.6833 21.1099C51.6728 19.3634 52.1421 18.7948 52.5594 16.8313C52.6984 16.1772 52.9969 14.7019 52.5594 14.1962C52.1191 13.6874 51.3484 13.048 50.5701 13.2855C50.2427 12.186 49.2115 11.3953 48.0998 11.1121C44.5567 10.2095 40.9635 13.7057 37.9736 12.2358C37.9931 13.8264 38.0833 15.1682 39.4351 16.1146L38.5923 16.011C38.6562 16.5767 38.8924 17.109 39.269 17.536C39.6456 17.9629 40.1444 18.2637 40.6977 18.3976C48.709 17.9817 46.4559 19.2054 47.8276 21.3575C48.1512 21.8651 48.7564 22.261 49.339 22.1093C49.6204 22.0459 49.8855 21.9242 50.117 21.7521C50.3485 21.5799 50.5414 21.3612 50.6833 21.1099Z" fill="#1D1D3D"/>
<path d="M39.6158 16.8959C39.6158 16.8959 39.5524 25.98 43.9977 25.5437C48.4429 25.1074 49.4573 23.0522 49.4573 23.0522C49.4573 23.0522 50.5112 23.1368 51.1585 21.7732C51.8058 20.4095 50.8796 19.3031 49.9793 19.8318L49.157 21.5044L48.8543 19.4203C48.8543 19.4203 48.0967 19.118 47.7929 16.9926C47.7929 16.9926 47.409 17.2823 45.3336 17.3506L46.3902 15.8599C46.3902 15.8599 43.7793 18.4917 39.6158 16.8959Z" fill="#FFAD92"/>
<path d="M42.3574 23.115C43.3221 22.9764 44.2669 22.7233 45.1717 22.3611C45.1679 22.7825 45.0376 23.1931 44.7977 23.5395C44.4551 24.0341 44.036 24.1899 43.5458 24.0967C43.2837 24.0398 43.0391 23.921 42.8324 23.7502C42.6256 23.5794 42.4628 23.3616 42.3574 23.115Z" fill="white"/>
<path d="M46.1365 32.0056C45.4143 37.92 46.4351 43.9027 46.4351 49.965C46.1451 50.2551 45.8465 50.5366 45.5365 50.801H43.2106C42.8836 50.5167 42.5623 50.2408 42.2324 49.9735C43.33 43.8316 42.6419 37.5959 44.22 31.7724C43.9044 31.3772 43.6115 30.9904 43.3186 30.6037C43.3044 30.5838 43.2902 30.5668 43.276 30.5468C43.5988 29.8279 43.7858 29.4584 43.9925 29.0284C44.9131 28.9703 45.6062 28.9266 46.5346 28.9374C46.7387 29.523 46.9077 30.1203 47.0408 30.726C46.6701 31.0991 46.3644 31.5316 46.1365 32.0056Z" fill="#FFB020"/>
<path d="M48.8376 26.1995C47.933 27.2111 46.9131 28.1134 45.7988 28.8881C46.3004 29.7561 46.827 30.6089 47.3788 31.4466C48.177 30.1924 48.8254 28.849 49.3107 27.4438C49.1224 27.0413 48.9643 26.6254 48.8376 26.1995Z" fill="#C72F55"/>
<path d="M42.6687 26.6936C43.1735 27.6151 43.9143 28.3858 44.8153 28.9264C44.1676 29.5705 43.5678 30.261 43.0205 30.9924C42.8024 29.9852 42.505 28.9968 42.1309 28.0365C42.4758 26.8124 42.4121 26.8483 42.6687 26.6936Z" fill="#C72F55"/>
<path d="M62.1433 46.6816L61.145 50.801H56.2163L57.2446 47.169C57.2446 47.169 60.7091 46.633 62.1433 46.6816Z" fill="#FFAD92"/>
<path d="M30.4999 42.6114L23.7969 33.3008C23.7969 33.3008 23.4084 31.1218 22.6651 30.3109C22.2442 29.8098 21.8898 29.2564 21.6108 28.6644C21.5834 28.6097 21.5395 28.5649 21.4853 28.5365C21.4311 28.5081 21.3693 28.4975 21.3087 28.5061C21.2481 28.5147 21.1917 28.5422 21.1476 28.5846C21.1035 28.627 21.0738 28.6823 21.0628 28.7425C20.9228 29.4402 21.1048 29.666 21.2462 30.4799C21.2462 30.4799 19.4894 30.4123 18.7124 30.3109C17.9354 30.2096 15.638 29.4721 15.0975 29.641C14.557 29.8099 14.8948 30.1816 14.8948 30.1816C14.8948 30.1816 14.9962 31.8032 16.1448 32.3437C17.2935 32.8843 17.9691 33.1826 17.9691 33.1826C17.9691 33.1826 20.0975 34.365 21.1111 34.3988C21.1111 34.3988 26.6178 47.3719 29.253 47.7435C31.8881 48.1151 33.7584 46.114 33.7584 46.114C33.7584 46.114 32.4562 43.8984 30.4999 42.6114Z" fill="#FFAD92"/>
</svg>
