<svg width="78" height="80" viewBox="0 0 78 80" fill="none" xmlns="http://www.w3.org/2000/svg">
<path d="M76.2797 69.4376L69.7089 62.8667C69.3032 62.4607 68.7886 62.1809 68.2272 62.0611C67.6659 61.9413 67.0819 61.9867 66.5458 62.1917L64.1694 59.8153C69.5898 53.367 72.5567 45.2104 72.5458 36.7866C72.5458 17.0194 56.4651 0.9375 36.6992 0.9375C16.932 0.9375 0.850098 17.0194 0.850098 36.7866C0.852454 41.5702 1.81138 46.305 3.67047 50.7126C5.52956 55.1201 8.25128 59.1114 11.6755 62.4517L11.3561 62.863L8.65642 60.2006C8.25912 59.8087 7.78717 59.5007 7.26857 59.2947C6.74997 59.0888 6.19528 58.9891 5.63741 59.0015C5.07954 59.014 4.52986 59.1384 4.02099 59.3674C3.51211 59.5963 3.0544 59.9251 2.67503 60.3343C2.29565 60.7435 2.00232 61.2248 1.81246 61.7495C1.6226 62.2742 1.54006 62.8317 1.56975 63.3889C1.59944 63.9461 1.74075 64.4917 1.9853 64.9933C2.22985 65.4948 2.57265 65.9422 2.99336 66.3088L9.26838 71.7763C9.77158 72.2141 10.3605 72.5423 10.9976 72.7399C11.6347 72.9375 12.306 73.0001 12.9686 72.9238C13.6313 72.8476 14.2708 72.634 14.8463 72.2969C15.4219 71.9597 15.9208 71.5063 16.3114 70.9656L18.6302 67.7506C24.6286 71.248 31.5132 72.9293 38.4485 72.5904C45.3837 72.2515 52.0716 69.907 57.7004 65.8413L60.291 68.4319C60.0792 68.9704 60.0291 69.5591 60.1468 70.1257C60.2646 70.6922 60.545 71.2122 60.9539 71.6217L67.5246 78.1924C67.8003 78.4684 68.1277 78.6874 68.488 78.8368C68.8484 78.9863 69.2347 79.0632 69.6249 79.0632C70.015 79.0632 70.4013 78.9863 70.7617 78.8369C71.1221 78.6875 71.4496 78.4686 71.7253 78.1926L76.2796 73.6381C76.5556 73.3625 76.7746 73.0351 76.924 72.6747C77.0734 72.3143 77.1503 71.928 77.1503 71.5379C77.1503 71.1478 77.0734 70.7615 76.924 70.4011C76.7747 70.0407 76.5557 69.7133 76.2797 69.4376Z" fill="white"/>
<path d="M51.4341 8.4751L60.8393 17.8803L17.8286 60.891L8.42341 51.4858L51.4341 8.4751Z" fill="#EAE5DB"/>
<path d="M35.7878 34.2197L23.9993 36.7545C23.9993 36.7545 20.1831 37.4642 18.6482 41.3411C17.1133 45.218 12.3315 55.4632 12.3315 55.4632C12.3315 55.4632 23.3629 67.8822 30.5584 68.4071C37.7538 68.9319 49.6938 66.7785 52.8927 64.7428C56.0917 62.7071 59.2906 58.5194 59.2906 58.5194L55.3717 42.1938C55.3717 42.1938 53.9103 36.6894 47.7243 36.1028L38.7011 34.4984L35.7878 34.2197Z" fill="#A369F7"/>
<path d="M40.0414 29.1619L40.6045 34.8971C40.6045 34.8971 39.4575 38.4634 36.6211 38.234C33.7848 38.0046 31.8452 35.0223 31.8452 35.0223L33.2008 29.6207L40.0414 29.1619Z" fill="#FFAD92"/>
<path d="M40.0414 29.1619L33.2008 29.6207L32.877 30.9111C32.877 30.9111 34.1547 33.3491 36.5304 33.2155C38.9062 33.0818 40.2229 31.0102 40.2229 31.0102L40.0414 29.1619Z" fill="#ED6C4D"/>
<path d="M40.4697 67.7173L38.6472 40.4384L39.883 38.7748L38.7898 37.1587L34.5595 37.2538L33.6089 38.3945L35.225 40.5334L34.6317 67.2421C34.6317 67.2421 34.3429 70.7736 40.4697 67.7173Z" fill="#FF605B"/>
<path d="M33.0434 44.0109C33.0434 44.0109 33.5636 41.0264 35.1503 40.6722C35.1503 40.6722 37.4238 41.5154 38.6511 40.5426C38.6511 40.5426 39.9176 40.3665 39.6884 41.4502C39.6884 41.4502 40.9426 45.0292 39.267 46.0206C37.5914 47.012 34.9559 46.6689 34.9559 46.6689L28.0515 53.6381C28.0515 53.6381 25.3665 51.3439 24.9634 49.07L33.0434 44.0109Z" fill="#FFAD92"/>
<path d="M40.363 33.4834L38.3794 37.0486L40.4702 40.024L41.5424 35.6011L40.363 33.4834Z" fill="#824CD8"/>
<path d="M32.3485 33.2153L34.9316 37.1511L33.6985 40.0241L31.1689 35.333L32.3485 33.2153Z" fill="#824CD8"/>
<path d="M37.563 25.4872L42.7731 27.2233L44.2826 25.1381C44.6345 23.7362 44.885 22.3108 45.0322 20.873C45.2559 18.5879 43.196 17.2995 43.196 17.2995C43.196 17.2995 42.1132 13.7553 37.2549 13.447C31.834 13.103 26.9327 16.7469 29.1213 24.6211C29.4465 25.6956 29.8597 26.7414 30.3569 27.748L31.8976 27.6531L34.7044 25.4764L37.563 25.4872Z" fill="#1D1D3D"/>
<path d="M31.0573 28.5119C31.0573 28.5119 32.9037 32.4031 37.1923 31.9605C41.481 31.5179 42.5645 28.3184 42.5645 28.3184C42.5645 28.3184 43.7214 28.6712 44.4901 26.5737C45.2589 24.4762 44.43 24.121 43.5336 24.2904L42.6274 26.2611L42.6291 23.0008L42.028 21.8489L41.7934 19.5358C41.5586 20.1971 41.136 20.7754 40.5774 21.2002C40.0188 21.6249 39.3485 21.8776 38.6486 21.9272C38.6486 21.9272 40.5338 20.5125 40.8574 19.1655C40.8574 19.1655 39.0702 20.7256 37.2287 21.1568C37.2287 21.1568 38.3586 20.1986 38.7192 19.1898C38.7192 19.1898 36.1099 21.6303 31.7465 21.1049L30.7361 24.596L30.6822 27.1324L29.6326 24.0768C29.6326 24.0768 27.5995 23.8042 28.5344 26.3156C29.4985 28.9052 30.7843 28.7848 31.0573 28.5119Z" fill="#FFAD92"/>
<path d="M34.0278 27.5286C34.0278 27.5286 36.6907 27.9884 39.033 27.4033C39.033 27.4033 38.988 29.2296 36.3929 29.2296C34.3587 29.2296 34.0278 27.5286 34.0278 27.5286Z" fill="white"/>
<path d="M52.3809 64.158L47.8665 49.6999C47.8512 49.6509 47.8456 49.5994 47.8502 49.5482C47.8547 49.4971 47.8693 49.4474 47.8931 49.4019C47.917 49.3564 47.9495 49.3161 47.9889 49.2831C48.0283 49.2502 48.0738 49.2254 48.1228 49.2101C48.1718 49.1948 48.2234 49.1893 48.2745 49.194C48.3256 49.1986 48.3753 49.2133 48.4208 49.2371C48.4662 49.261 48.5065 49.2936 48.5394 49.333C48.5722 49.3725 48.597 49.418 48.6122 49.467L53.1266 63.9251C53.1573 64.024 53.1476 64.131 53.0995 64.2226C53.0514 64.3143 52.9689 64.3831 52.87 64.4139C52.7712 64.4448 52.6642 64.4351 52.5725 64.3872C52.4808 64.3392 52.4119 64.2567 52.3809 64.158Z" fill="#824CD8"/>
<path d="M16.5894 52.9188C16.568 52.8722 16.556 52.8218 16.554 52.7705C16.552 52.7193 16.5602 52.6681 16.578 52.62C16.5958 52.5719 16.6229 52.5278 16.6578 52.4902C16.6927 52.4525 16.7346 52.4222 16.7812 52.4007L24.8001 48.7151C24.8942 48.6719 25.0017 48.6678 25.0988 48.7037C25.196 48.7397 25.2749 48.8128 25.3181 48.9069C25.3614 49.0011 25.3655 49.1085 25.3295 49.2057C25.2935 49.3028 25.2205 49.3817 25.1263 49.425L17.1075 53.1106C17.0133 53.1538 16.9059 53.1579 16.8087 53.122C16.7116 53.086 16.6327 53.0129 16.5894 52.9188Z" fill="#824CD8"/>
<path d="M20.4215 61.8698C20.3446 61.8698 20.2695 61.8472 20.2055 61.8047C20.1415 61.7623 20.0914 61.7019 20.0615 61.6311C20.0316 61.5604 20.0233 61.4824 20.0375 61.4069C20.0517 61.3314 20.0879 61.2618 20.1415 61.2067L27.7712 53.3655C27.8435 53.2913 27.9423 53.2488 28.0459 53.2474C28.0972 53.2466 28.1481 53.2561 28.1958 53.275C28.2435 53.294 28.2869 53.3222 28.3237 53.358C28.3604 53.3938 28.3898 53.4364 28.4101 53.4836C28.4304 53.5307 28.4412 53.5813 28.4419 53.6326C28.4426 53.6839 28.4332 53.7349 28.4142 53.7825C28.3952 53.8302 28.367 53.8737 28.3312 53.9104L20.7015 61.7516C20.6651 61.7891 20.6216 61.8188 20.5735 61.8391C20.5254 61.8594 20.4737 61.8699 20.4215 61.8698Z" fill="#824CD8"/>
<path d="M46.9585 51.7439H41.2241C41.1205 51.7439 41.0212 51.7027 40.9479 51.6295C40.8747 51.5562 40.8335 51.4569 40.8335 51.3533C40.8335 51.2497 40.8747 51.1503 40.9479 51.0771C41.0212 51.0038 41.1205 50.9626 41.2241 50.9626H46.9585C47.0621 50.9626 47.1615 51.0038 47.2347 51.0771C47.308 51.1503 47.3492 51.2497 47.3492 51.3533C47.3492 51.4569 47.308 51.5562 47.2347 51.6295C47.1615 51.7027 47.0621 51.7439 46.9585 51.7439Z" fill="#824CD8"/>
<path d="M59.0894 57.3467L70.0022 68.2596L66.38 71.8818L55.4671 60.969L59.0894 57.3467Z" fill="#B2ACA3"/>
<path d="M36.6993 2.79346C17.9248 2.79346 2.70605 18.0122 2.70605 36.7867C2.70605 55.5586 17.9248 70.7773 36.6993 70.7773C45.7139 70.7764 54.359 67.195 60.7333 60.8207C67.1076 54.4464 70.689 45.8013 70.6899 36.7867C70.6899 18.0122 55.4712 2.79346 36.6993 2.79346ZM37.0638 66.6389C20.7796 66.6389 7.57619 53.4354 7.57619 37.1512C7.57619 20.867 20.7796 7.66357 37.0638 7.66357C53.348 7.66357 66.5515 20.867 66.5515 37.1512C66.5515 53.4354 53.348 66.6389 37.0638 66.6389Z" fill="#00ABFE"/>
<path d="M75.0912 70.8595L68.2721 64.0405C67.9058 63.6741 67.3119 63.6741 66.9456 64.0405L62.1427 68.8434C61.7764 69.2097 61.7764 69.8036 62.1427 70.1699L68.9617 76.9889C69.328 77.3552 69.9219 77.3552 70.2882 76.9889L75.0912 72.186C75.4575 71.8197 75.4575 71.2258 75.0912 70.8595Z" fill="#FFB020"/>
<path d="M18.0603 22.4504C17.6346 24.1572 16.5593 27.0364 13.97 28.608C13.8907 28.6563 13.8287 28.7285 13.793 28.8143C13.7573 28.9 13.7497 28.9949 13.7713 29.0853C13.7929 29.1756 13.8426 29.2568 13.9133 29.3171C13.9839 29.3775 14.0718 29.4139 14.1645 29.4211C15.893 29.5755 18.1453 30.2203 19.0869 32.413C19.1204 32.4944 19.1777 32.5639 19.2512 32.6124C19.3247 32.6609 19.4111 32.6861 19.4992 32.6848C19.5873 32.6835 19.6729 32.6557 19.745 32.605C19.817 32.5544 19.8721 32.4832 19.9032 32.4008C20.3863 31.109 21.4569 29.412 23.8278 28.36C23.9044 28.327 23.97 28.2728 24.017 28.2038C24.0639 28.1348 24.0902 28.0539 24.0927 27.9705C24.0952 27.887 24.0738 27.8046 24.0311 27.733C23.9884 27.6613 23.9261 27.6032 23.8516 27.5657C22.5946 26.941 20.4181 25.4769 18.8817 22.3704C18.8426 22.2894 18.7796 22.2223 18.7012 22.1782C18.6227 22.1341 18.5327 22.1152 18.4431 22.1239C18.3536 22.1326 18.2688 22.1686 18.2004 22.227C18.1319 22.2853 18.083 22.3633 18.0603 22.4504Z" fill="#FFB020"/>
<path d="M61.97 54.3452C61.6626 53.0457 61.3852 50.7291 62.5844 48.7672C62.6211 48.707 62.6377 48.6367 62.632 48.5664C62.6262 48.4961 62.5983 48.4295 62.5522 48.3761C62.5062 48.3226 62.4444 48.2852 62.3757 48.2691C62.3071 48.253 62.2351 48.2591 62.1701 48.2865C60.9503 48.7843 59.2065 49.1338 57.8077 47.9828C57.7568 47.9395 57.694 47.9125 57.6275 47.9054C57.561 47.8984 57.4939 47.9114 57.435 47.943C57.376 47.9745 57.3279 48.0231 57.297 48.0824C57.266 48.1416 57.2536 48.2089 57.2614 48.2753C57.3854 49.3149 57.2543 50.8324 56.0215 52.3677C55.9812 52.4167 55.9558 52.4761 55.9482 52.539C55.9406 52.6019 55.9511 52.6656 55.9784 52.7227C56.0058 52.7799 56.0489 52.828 56.1027 52.8615C56.1565 52.895 56.2187 52.9124 56.282 52.9118C57.3475 52.8954 59.3255 53.125 61.4437 54.6853C61.4983 54.7263 61.5642 54.7496 61.6325 54.752C61.7007 54.7544 61.7681 54.7359 61.8255 54.6988C61.8828 54.6617 61.9274 54.608 61.9533 54.5447C61.9791 54.4815 61.985 54.4119 61.97 54.3452Z" fill="#FFB020"/>
<path d="M7.35344 61.5219L11.5405 65.6513L19.9473 54.8279C20.1573 54.5576 20.4246 54.3371 20.7299 54.1822C21.0352 54.0274 21.3711 53.9422 21.7133 53.9326C22.0555 53.9229 22.3956 53.9892 22.7091 54.1267C23.0227 54.2641 23.3019 54.4693 23.5267 54.7274C23.8704 55.122 24.0705 55.6212 24.0944 56.1439C24.1184 56.6666 23.9649 57.1821 23.6588 57.6065L14.8063 69.8799C14.567 70.2117 14.2612 70.4899 13.9083 70.6968C13.5554 70.9037 13.1632 71.0347 12.7568 71.0815C12.3504 71.1283 11.9387 71.0898 11.548 70.9685C11.1573 70.8472 10.7962 70.6457 10.4878 70.377L4.21272 64.9095C3.7827 64.5348 3.50644 64.0143 3.43708 63.4482C3.36772 62.8821 3.51017 62.3103 3.83702 61.8429C4.02969 61.5674 4.28017 61.3372 4.57096 61.1685C4.86176 60.9997 5.18587 60.8965 5.52069 60.8659C5.85551 60.8353 6.19296 60.8782 6.50951 60.9915C6.82605 61.1048 7.11406 61.2858 7.35344 61.5219Z" fill="#7AD001"/>
</svg>
