<svg width="81" height="80" viewBox="0 0 81 80" fill="none" xmlns="http://www.w3.org/2000/svg">
<g clip-path="url(#clip0_1_1215)">
<path d="M44.0949 64.7254L39.5928 50.1088L49.9038 46.9324L54.395 61.5136C54.5116 61.8908 54.16 62.2449 53.7822 62.1319L48.9901 60.6969C48.8046 60.6414 48.6037 60.6994 48.4762 60.8459L44.939 64.9043C44.6845 65.196 44.209 65.0953 44.0949 64.7254Z" fill="#FC4E51"/>
<path d="M45.9914 48.1379L43.6836 48.849L47.7585 61.6693L48.4763 60.846C48.6032 60.6995 48.804 60.6415 48.9896 60.697L50.095 61.0278L45.9914 48.1379Z" fill="#EA3942"/>
<path d="M65.3813 43.4391L50.7646 38.937L47.5889 49.2475L62.1695 53.7392C62.5467 53.8552 62.9007 53.5042 62.7878 53.1264L61.3534 48.3337C61.2979 48.1482 61.3559 47.9474 61.5018 47.8204L65.5608 44.2833C65.8519 44.0288 65.7512 43.5533 65.3813 43.4391Z" fill="#FC4E51"/>
<path d="M62.3531 47.0783L49.5144 42.9973L48.8027 45.3064L61.6713 49.3959L61.3533 48.3338C61.2977 48.1483 61.3557 47.9475 61.5016 47.8199L62.3531 47.0783Z" fill="#EA3942"/>
<path d="M79.9954 18.1417L62.5118 0.657471L33.762 33.1013L1.31319 61.8561C-0.594844 63.7642 1.7728 69.2246 6.60026 74.0526C11.4283 78.8807 16.8894 81.2477 18.7974 79.3397L47.5522 46.8909L79.9954 18.1417Z" fill="#F3E8D7"/>
<path d="M73.5835 11.729L41.1403 40.4789L9.33301 76.4788C13.3371 79.6131 17.2441 80.8931 18.7975 79.3396L47.5523 46.8909L79.9955 18.141L73.5835 11.729Z" fill="#DDD1C3"/>
<path d="M74.708 5.94506C69.8806 1.11699 64.4195 -1.25004 62.5115 0.657992C60.6035 2.56603 62.9705 8.02644 67.7986 12.8545C72.6266 17.6826 78.0871 20.0496 79.9951 18.1416C81.9031 16.2335 79.5361 10.7731 74.708 5.94506Z" fill="#DDD1C3"/>
<path d="M62.5791 5.53966C63.5221 7.77364 65.3404 10.3952 67.799 12.8538C70.2576 15.313 72.8792 17.1313 75.1138 18.0737C75.6894 16.3341 73.9785 12.8764 70.8772 9.77567C67.7764 6.67496 64.3193 4.96347 62.5791 5.53966Z" fill="#EFEFEF"/>
<path d="M33.4974 29.2987C34.5534 29.2413 35.5361 28.7402 36.2038 27.9199C37.4117 26.4348 39.5438 26.0973 41.1515 27.1361C42.0402 27.7105 43.1291 27.8826 44.1515 27.6116C46.0016 27.1203 47.9255 28.0999 48.6152 29.8859C48.9961 30.8723 49.7761 31.6523 50.7625 32.0332C52.5484 32.7235 53.5281 34.6468 53.0373 36.4969C52.7657 37.5192 52.9385 38.6088 53.5122 39.4969C54.5511 41.1046 54.2135 43.2366 52.7285 44.4446C51.9082 45.1123 51.407 46.095 51.3497 47.151C51.2453 49.0627 49.7187 50.5886 47.8077 50.6936C46.7511 50.751 45.7684 51.2521 45.1012 52.0724C43.8927 53.5575 41.7607 53.895 40.1529 52.8561C39.2648 52.2818 38.1753 52.1096 37.1529 52.3807C35.3029 52.872 33.3796 51.8924 32.6899 50.1064C32.3084 49.12 31.5283 48.34 30.542 47.9585C28.7566 47.2688 27.7764 45.3455 28.2677 43.4954C28.5393 42.473 28.3666 41.3835 27.7922 40.4954C26.7534 38.8877 27.0915 36.7557 28.576 35.5477C29.3969 34.88 29.8974 33.8973 29.9554 32.8413C30.0598 30.9296 31.5857 29.4031 33.4974 29.2987Z" fill="#FCB038"/>
<path d="M53.5119 39.4969C52.9381 38.6088 52.7654 37.5192 53.037 36.4969C53.5278 34.6468 52.5481 32.7235 50.7622 32.0332C49.7758 31.6523 48.9957 30.8723 48.6149 29.8859C47.9245 28.0999 46.0012 27.1203 44.1512 27.6116C43.1288 27.8826 42.0399 27.7105 41.1512 27.1361C39.5435 26.0973 37.4114 26.4348 36.2035 27.9199C35.5357 28.7402 34.553 29.2413 33.4971 29.2987C31.5854 29.4031 30.0595 30.9296 29.9551 32.8413C29.9471 32.9762 29.9325 33.1099 29.9111 33.2423C34.6843 31.9197 40.0128 33.1306 43.7654 36.8832C47.5174 40.6358 48.729 45.9638 47.4057 50.7375C47.5382 50.7156 47.6718 50.7009 47.8073 50.6936C49.7184 50.5892 51.245 49.0627 51.3493 47.151C51.4067 46.095 51.9078 45.1123 52.7282 44.4446C54.2132 43.2366 54.5508 41.1046 53.5119 39.4969Z" fill="#FD8F31"/>
<path d="M46.3031 34.3445C43.1822 31.2237 38.1216 31.2237 35.0008 34.3445C31.8793 37.466 31.8793 42.526 35.0008 45.6475C38.1216 48.7683 43.1822 48.7683 46.3031 45.6475C49.4245 42.526 49.4245 37.466 46.3031 34.3445Z" fill="#FFE285"/>
</g>
<defs>
<clipPath id="clip0_1_1215">
<rect width="80" height="80" fill="white" transform="translate(0.5)"/>
</clipPath>
</defs>
</svg>
