<svg width="81" height="80" viewBox="0 0 81 80" fill="none" xmlns="http://www.w3.org/2000/svg">
<g clip-path="url(#clip0_1_1241)">
<path d="M77.4823 42.9931C77.4823 63.4313 60.9137 79.9999 40.4755 79.9999C20.0373 79.9999 3.46875 63.4313 3.46875 42.9931C3.46875 22.5549 20.0373 5.98633 40.4755 5.98633C60.9137 5.98633 77.4823 22.5549 77.4823 42.9931Z" fill="#FF5252"/>
<path d="M64.4977 71.1419C63.6774 66.1023 62.7997 60.7251 62.7356 60.401C61.9129 56.1975 58.0597 54.9615 58.0597 54.9615C58.0597 54.9615 47.5886 51.8732 47.1937 51.7566C46.6657 53.2355 45.3498 56.922 44.4721 59.3823C44.1828 60.1935 43.1916 60.4944 42.5001 59.9817L39.4917 57.7496H33.7501L33.7263 57.7319L33.7342 57.7496L30.7252 59.9817C30.0337 60.4944 29.0431 60.1935 28.7538 59.3823L26.0322 51.7566C25.4512 51.9281 15.1368 54.9615 15.1368 54.9615C13.7233 55.4889 11.158 56.9092 10.4603 60.401L9.88721 63.8257C22.4525 82.2393 47.9426 85.2832 64.4977 71.1419Z" fill="#F6E6CB"/>
<path d="M10.4609 60.401L9.88721 63.8257C10.937 65.3638 12.1003 66.8182 13.3638 68.1781L14.7963 59.024C15.384 56.0803 17.2993 54.6094 18.733 53.9038C16.7488 54.4873 15.1368 54.9615 15.1368 54.9615C13.7239 55.4889 11.158 56.9092 10.4609 60.401Z" fill="#EDD4B0"/>
<path d="M21.407 24.0881V21.8744C21.407 20.9179 22.6143 20.8441 22.6143 20.8441L22.613 20.8416C30.6581 20.5224 39.7852 17.1686 43.368 15.7837C44.2866 15.4272 45.3236 15.5609 46.2122 16.2524L51.1707 20.3515C51.1707 20.3515 51.8354 20.946 51.8354 22.0648V24.1565C53.169 24.0399 54.6882 24.4714 55.5347 25.2191V18.9142C55.5347 8.48449 47.0503 0 36.6212 0C26.1921 0 17.707 8.48449 17.707 18.9136V25.1941C18.5524 24.4366 20.0703 23.9917 21.407 24.0881Z" fill="#8C4F25"/>
<path d="M24.5466 20.7086V18.9142C24.5466 9.65209 31.2379 1.92444 40.0404 0.310668C38.9314 0.106811 37.7882 0 36.6212 0C26.1921 0 17.707 8.48449 17.707 18.9135V25.1941C18.5524 24.4366 20.0703 23.9917 21.407 24.0875V21.8744C21.407 20.9173 22.6143 20.8435 22.6143 20.8435L22.613 20.8416C23.2515 20.8166 23.8978 20.7702 24.5466 20.7086Z" fill="#773C15"/>
<path d="M21.2537 23.1849C18.7299 22.9926 16.4941 24.8462 16.4941 27.1076C16.4941 29.358 18.7176 31.2238 21.2537 31.0303V23.1849Z" fill="#F59D6B"/>
<path d="M51.9878 23.2574V30.9576C54.5165 31.1926 56.7479 29.3432 56.7479 27.1075C56.7479 24.8614 54.5043 23.0236 51.9878 23.2574Z" fill="#F59D6B"/>
<path d="M16.9659 25.3613C16.6656 25.8893 16.4941 26.4825 16.4941 27.1075C16.4941 29.3579 18.7176 31.2237 21.2537 31.0303V27.5384C19.4202 27.6788 17.7502 26.7419 16.9659 25.3613Z" fill="#F28B51"/>
<path d="M51.9878 27.4658V30.9576C54.5165 31.192 56.7479 29.3433 56.7479 27.1069C56.7479 26.4813 56.5734 25.8875 56.2676 25.3613C55.4784 26.7218 53.8103 27.6355 51.9878 27.4658Z" fill="#F28B51"/>
<path d="M43.1446 49.0186L39.4917 57.7496L42.5001 59.9817C43.1923 60.4944 44.1829 60.1935 44.4722 59.3823L47.1937 51.7566L43.1446 49.0186Z" fill="#EDD4B0"/>
<path d="M37.3569 46.4276C34.741 46.5497 32.2568 46.0071 30.0522 44.9548V49.0185L32.7115 55.3052L33.751 57.7496H39.4919L43.1449 49.0185C43.1449 47.934 43.1449 46.311 43.1449 45.011C41.3718 45.8337 39.4169 46.3312 37.3569 46.4276Z" fill="#F59D6B"/>
<path d="M34.7019 52.0532C33.9042 50.1672 33.4708 48.1482 33.4232 46.1035C32.2452 45.8502 31.1161 45.4626 30.0522 44.9548V49.0185L32.7115 55.3052L33.751 57.7496H37.1164C33.8077 49.9432 34.9491 52.6355 34.7019 52.0532Z" fill="#F28B51"/>
<path d="M33.7506 57.7495L32.2821 58.8268L32.2803 58.828L34.5001 62.6451H38.656L40.8935 58.7895L39.4916 57.7495C36.0486 57.7495 37.2748 57.7495 33.7506 57.7495Z" fill="#E74242"/>
<path d="M41.2421 79.9902L38.656 62.6453H34.5001L32.019 79.0283C34.9561 79.7149 38.0255 80.0555 41.2421 79.9902Z" fill="#FF5252"/>
<path d="M18.6201 66.01C17.9866 66.01 17.4727 66.5233 17.4727 67.1575V71.9817C18.2155 72.5719 18.9802 73.1352 19.7676 73.6681V67.1575C19.7676 66.5233 19.2543 66.01 18.6201 66.01Z" fill="#EDD4B0"/>
<path d="M54.4957 66.01C53.8616 66.01 53.3477 66.5233 53.3477 67.1575V77.6982C54.1252 77.4095 54.8906 77.0964 55.6426 76.7583V67.1575C55.6432 66.5233 55.1293 66.01 54.4957 66.01Z" fill="#EDD4B0"/>
<path d="M51.477 19.892L46.2121 15.7929C45.3241 15.1014 44.2865 14.9677 43.3679 15.3248V15.3242C39.7857 16.7097 30.3522 20.0636 22.3071 20.3828L22.3083 20.3846C22.3083 20.3846 21.1011 20.4584 21.1011 21.4155V31.1622C21.1011 40.0562 28.4723 47.3011 37.3565 46.886C45.5865 46.5021 52.1411 39.7095 52.1411 31.3831V21.6053C52.1411 20.4871 51.477 19.8927 51.477 19.892Z" fill="#F9AE85"/>
<path d="M24.5428 31.1627V20.2222C23.7897 20.2985 23.0426 20.3534 22.3071 20.3827L22.3083 20.3851C22.3083 20.3851 21.1011 20.4584 21.1011 21.4154V31.1627C21.1011 40.0561 28.4723 47.301 37.3565 46.8866C37.6922 46.8707 38.0243 46.8432 38.3532 46.8066C30.6018 45.9332 24.5428 39.2254 24.5428 31.1627Z" fill="#F59D6B"/>
<path d="M33.7506 57.7495L32.2821 58.8268L32.2803 58.828L34.5001 62.6451H38.656C35.9198 60.429 37.1161 57.7495 37.1161 57.7495C36.3074 57.7495 35.9759 57.7495 33.7506 57.7495Z" fill="#CE3232"/>
<path d="M39.4936 68.2587L38.6569 62.6453H34.5004L33.6465 68.2849C35.2078 70.0732 37.9543 70.0531 39.4936 68.2587Z" fill="#E74242"/>
<path d="M41.7195 52.4248L39.4917 57.7495L42.5001 59.9809C43.1923 60.4943 44.1829 60.1933 44.4722 59.3822L46.0731 54.8967C44.1835 56.2877 41.493 54.8003 41.7195 52.4248Z" fill="#E0C096"/>
<path d="M30.052 49.0186L33.7342 57.7496L30.7258 59.9817C30.0337 60.4944 29.0431 60.1935 28.7538 59.3823L26.0322 51.7566L30.052 49.0186Z" fill="#E0C096"/>
<path d="M52.0488 54.5532V74.2883C52.0488 75.0958 52.9796 75.5475 53.6138 75.0482L60.9361 69.2804C61.2871 69.0039 61.7815 69.0039 62.1324 69.2804L69.4548 75.0482C70.089 75.5475 71.0198 75.0958 71.0198 74.2883V54.5532C66.1217 60.5554 56.9585 60.5688 52.0488 54.5532Z" fill="#5085FE"/>
<path d="M60.2428 58.9917C56.9451 58.645 54.0374 56.9897 52.0488 54.5532V74.2883C52.0488 75.0958 52.9802 75.5475 53.6144 75.0482L60.2428 69.8266V58.9917Z" fill="#3C78EF"/>
<path d="M66.9746 57.7856V73.0945L69.4551 75.0482C70.0892 75.5475 71.02 75.0958 71.02 74.2883V54.5532C69.922 55.8984 68.5438 57.005 66.9746 57.7856Z" fill="#7DA8FF"/>
<path d="M56.0948 57.7856V73.0945L53.6144 75.0482C52.9802 75.5475 52.0488 75.0958 52.0488 74.2883V54.5532C53.1468 55.8984 54.525 57.005 56.0948 57.7856Z" fill="#7DA8FF"/>
<path d="M55.415 37.2938C49.5617 40.6733 47.5561 48.158 50.9356 54.0119C54.3151 59.8651 61.8005 61.8708 67.6537 58.4912C73.507 55.1117 75.5126 47.627 72.1331 41.7731C68.7536 35.9199 61.2688 33.9142 55.415 37.2938Z" fill="#FFDC67"/>
<path d="M58.0309 49.9151C55.3698 45.3064 56.0491 39.6869 59.3151 35.8557C57.9784 36.1023 56.6595 36.5747 55.415 37.2937C49.5617 40.6732 47.5561 48.1579 50.9356 54.0118C55.1598 61.3275 65.3704 62.2595 70.8489 55.8325C65.8977 56.745 60.6914 54.5239 58.0309 49.9151Z" fill="#FFB456"/>
<path d="M68.628 43.7945C66.3654 39.876 61.3551 38.5339 57.4366 40.7958C53.5182 43.0584 52.1754 48.0688 54.438 51.9872C56.7005 55.9057 61.7109 57.2485 65.6293 54.9859C69.5478 52.7239 70.8906 47.7129 68.628 43.7945Z" fill="#FFB456"/>
<path d="M64.784 55.412C58.885 53.4625 55.3859 47.4029 56.6475 41.3184C53.3491 43.764 52.3372 48.3472 54.4392 51.9885C56.5419 55.6299 61.017 57.0453 64.784 55.412Z" fill="#FC974D"/>
<path d="M60.3081 51.1756L57.7593 48.6262C57.3107 48.1782 57.3107 47.4518 57.7593 47.0038C58.2073 46.5552 58.9336 46.5552 59.3816 47.0038L61.1193 48.7415L64.5336 45.3272C64.9816 44.8792 65.7079 44.8792 66.1559 45.3272C66.6039 45.7752 66.6039 46.5021 66.1559 46.9501L61.9304 51.1756C61.4824 51.6236 60.7561 51.6236 60.3081 51.1756Z" fill="#FFDC67"/>
</g>
<defs>
<clipPath id="clip0_1_1241">
<rect width="80" height="80" fill="white" transform="translate(0.5)"/>
</clipPath>
</defs>
</svg>
