<svg width="70" height="70" viewBox="0 0 70 70" fill="none" xmlns="http://www.w3.org/2000/svg">
<g clip-path="url(#clip0_1_609)">
<path d="M65.3061 60.8813C65.5852 58.2496 61.502 43.3613 60.1202 41.3217C58.7383 39.2821 56.7711 39.4644 50.2986 41.7377C43.8262 44.0109 44.1024 51.6571 44.1024 51.6571C44.1024 51.6571 42.4998 55.774 41.7941 56.9955C41.0884 58.217 42.0469 59.0423 43.0687 58.818C44.0904 58.5937 45.2369 57.5492 45.2369 57.5492L45.0561 60.548C45.0561 60.548 45.1828 61.9401 46.6233 61.2595C48.0639 60.5789 48.491 59.2353 48.491 59.2353C48.491 59.2353 48.325 61.7383 51.0446 61.0596C53.7641 60.3809 54.9274 61.053 55.1207 61.5913C55.314 62.1297 57.5574 66.1023 57.7901 66.2367C58.0227 66.3711 63.9019 64.4534 64.7705 64.0242C65.6391 63.595 65.3061 60.8813 65.3061 60.8813Z" fill="#FEAC7C"/>
<path d="M51.3989 48.6962C51.3989 48.6962 52.8586 50.5674 54.0096 51.1936C55.1607 51.8198 57.1406 52.0521 58.2549 54.2862C58.976 55.7321 56.7859 55.6874 56.7859 55.6874C56.7859 55.6874 53.2746 53.7752 51.4765 51.6503C49.6785 49.5254 51.3989 48.6962 51.3989 48.6962Z" fill="#FF4B3D"/>
<path d="M45.1288 51.3578C45.0419 51.6761 47.6472 54.888 48.2829 55.7013C48.9185 56.5146 51.3823 60.5758 52.6129 61.1315C53.8434 61.6873 49.2241 52.6957 47.598 51.2132C45.9718 49.7307 45.2587 51.2001 45.1288 51.3578Z" fill="#FF4B3D"/>
<path d="M7.67975 19.5596C7.67975 19.5596 19.8297 15.7176 29.5005 11.0639C39.1714 6.41028 44.4849 1.64435 46.2313 4.12731C47.9776 6.61026 52.2 26.4278 56.9427 33.1244C61.6854 39.821 61.8134 39.1966 61.9065 40.6469C61.9996 42.0972 48.8455 52.1087 36.746 57.609C21.6892 64.4538 19.9041 63.3953 19.7165 59.0199C19.5289 54.6446 11.359 34.4085 8.07952 28.402C4.80002 22.3956 2.46686 20.6598 7.67975 19.5596Z" fill="#7738C7"/>
<path d="M52.6852 23.7885C52.6823 25.4919 52.4791 35.7718 48.0671 44.7011C43.2447 54.4611 35.0386 58.1441 35.0386 58.1441C35.0386 58.1441 35.1116 58.227 35.1532 58.2745C35.6841 58.0378 36.2272 57.7939 36.7953 57.5348C48.8818 52.0229 62.017 42.0009 61.9222 40.5515C61.8274 39.1021 61.7003 39.7263 56.9521 33.0389C55.4593 30.9365 54.0164 27.5375 52.6852 23.7885Z" fill="#171D8F"/>
<path d="M54.8003 65.906C54.353 65.3373 50.8934 63.067 49.3893 57.8148C47.8851 52.5625 44.1741 49.7203 44.1106 47.2786C44.0472 44.8369 45.8548 44.0581 48.0568 46.2224C50.2588 48.3867 52.517 51.8636 54.4695 52.177C56.4219 52.4904 59.0705 54.486 60.3179 56.7583C61.5653 59.0306 63.2087 61.8635 60.5515 64.6126C57.8944 67.3617 55.7006 66.6977 54.8003 65.906Z" fill="#FEAC7C"/>
<path d="M45.2369 57.549C45.2369 57.549 46.1727 55.2579 46.3862 54.5861C46.5998 53.9143 45.908 55.2796 45.4146 56.1001C44.9212 56.9205 45.2369 57.549 45.2369 57.549Z" fill="#FF4B3D"/>
<path d="M53.8633 51.7573C53.9497 51.5603 54.9041 50.6443 55.8514 50.2864C56.7987 49.9285 55.1821 49.4746 54.3714 50.2131C53.5607 50.9517 53.218 51.1651 53.218 51.1651L53.8633 51.7573Z" fill="#FF4B3D"/>
<path d="M21.1796 25.046C21.1796 25.046 22.2433 16.3427 30.8499 15.279C39.4565 14.2152 48.0631 22.9185 43.4213 30.1713C38.7796 37.424 33.6543 37.1339 32.784 40.4218C31.9136 43.7097 33.4609 46.9009 30.4631 47.191C27.4653 47.4812 26.9818 39.7449 29.8829 36.7471C32.784 33.7493 40.4235 30.3647 39.1664 25.1427C37.9092 19.9207 32.4939 19.7273 29.9796 22.3383C27.4653 24.9493 29.8829 27.1735 27.0785 29.1075C24.2741 31.0416 20.0191 31.1383 21.1796 25.046Z" fill="white"/>
<path d="M28.1658 50.1469C27.1021 51.8875 26.9087 55.3688 30.0999 54.8853C33.2911 54.4018 32.8076 51.8875 32.7109 50.6304C32.6142 49.3732 29.7131 48.1161 28.1658 50.1469Z" fill="white"/>
<path d="M48.8282 9.23284C48.8282 9.23284 51.8704 2.99189 58.5879 4.41652C65.3055 5.84114 69.5026 14.5775 64.1561 18.8093C58.8097 23.041 55.0476 21.5012 53.5476 23.738C52.0476 25.9748 52.3824 28.7631 50.0634 28.2067C47.7443 27.6503 49.3787 21.734 52.3241 20.2384C55.2695 18.7428 61.862 18.1805 62.2685 13.9468C62.6749 9.7131 58.6707 8.17086 56.1147 9.47668C53.5587 10.7825 54.7946 13.0714 52.1961 13.7956C49.5976 14.5198 46.3873 13.4942 48.8282 9.23284Z" fill="#FFC517"/>
<path d="M47.5807 29.8266C46.3352 30.8552 45.292 33.4114 47.8058 33.873C50.3196 34.3345 50.6064 32.3275 50.8584 31.3614C51.1104 30.3953 49.263 28.7056 47.5807 29.8266Z" fill="#FFC517"/>
<path d="M3.7226 49.9076C3.7226 49.9076 1.95705 44.2987 6.91657 41.2611C11.8761 38.2235 19.5458 41.1491 18.7243 46.8651C17.9028 52.5812 14.6931 53.8263 15.0741 56.0752C15.455 58.3241 17.2852 59.8431 15.5354 60.8521C13.7856 61.861 11.3437 57.2719 12.2832 54.6366C13.2226 52.0013 16.9477 47.8151 14.7311 44.9757C12.5146 42.1363 9.15461 43.5208 8.34404 45.8126C7.53346 48.1044 9.62666 48.7915 8.45112 50.7505C7.27559 52.7095 4.70461 53.9492 3.7226 49.9076Z" fill="#FF4B3D"/>
<path d="M14.9529 63.2941C14.7864 64.652 15.6343 66.8311 17.4485 65.6504C19.2627 64.4697 18.2699 63.0688 17.862 62.3281C17.4541 61.5874 15.334 61.6249 14.9529 63.2941Z" fill="#FF4B3D"/>
<path d="M45.8873 46.0065C45.7906 46.0065 44.461 46.1032 45.017 47.8681C45.5731 49.6329 46.0808 49.778 47.0478 49.4153C48.0148 49.0527 48.7884 48.1098 47.9423 47.3604C47.0961 46.6109 46.6126 45.9824 45.8873 46.0065Z" fill="#FECD91"/>
</g>
<defs>
<clipPath id="clip0_1_609">
<rect width="70" height="70" fill="white"/>
</clipPath>
</defs>
</svg>
