<svg width="60" height="61" viewBox="0 0 60 61" fill="none" xmlns="http://www.w3.org/2000/svg">
<path d="M58.2258 21.0667C57.8966 18.7291 57.3601 16.0517 55.4661 14.4551C54.1714 13.363 52.5968 13.1215 50.9696 12.9389C49.8708 12.8147 48.7691 12.7199 47.6656 12.6353C45.1734 5.41814 37.8636 1.33326 30.4645 0.983399C22.5593 0.609642 12.7748 5.07195 10.7136 13.2637C7.99763 13.6481 5.2739 14.3364 3.53899 16.6155C2.09778 18.5072 1.67228 20.8764 1.37162 23.176C0.996452 26.0497 0.881776 28.9568 0.843958 31.8522C0.76202 38.0515 0.996452 44.3185 1.83277 50.4663C2.10615 52.4716 2.37219 54.6545 3.5055 56.3886C5.51445 59.4625 9.3094 59.8616 12.6571 60.2225C20.3253 61.05 28.1092 61.0063 35.8078 60.7436C39.42 60.62 43.0308 60.4261 46.6318 60.1174C48.0583 59.9943 49.4834 59.8535 50.9044 59.6764C52.4438 59.4834 54.043 59.3419 55.3421 58.4064C56.7609 57.3845 57.4591 55.8006 58.0085 54.194C58.641 52.2765 58.7526 50.14 58.897 48.1417C59.1149 45.1174 59.1774 42.0805 59.1808 39.0489C59.1872 33.0659 59.0611 27 58.2258 21.0667ZM38.4067 12.1587C33.6421 12.0217 28.8707 12.0426 24.1145 12.2039C22.7695 12.2498 21.4238 12.3076 20.0799 12.3832C19.1627 12.4347 18.5998 12.313 19.3725 11.4465C23.9711 6.28419 34.4619 6.33565 38.9722 11.5589C39.4419 12.1011 39.1695 12.1797 38.4067 12.1587Z" fill="#68182B"/>
<path d="M13.2115 12.0659C15.8489 5.93411 23.3976 3.2291 29.7311 2.96607C35.8199 2.7132 42.2962 6.11501 45.0758 11.5727C45.4745 12.3584 45.4881 12.4811 44.5977 12.4296C43.6816 12.3745 42.7644 12.326 41.8476 12.2845C37.3658 3.29674 20.348 3.41142 16.2162 12.6589C15.389 12.7298 14.5625 12.8073 13.7365 12.8966C13.0528 12.9706 12.8614 12.8816 13.2115 12.0659Z" fill="#FF7A0D"/>
<path d="M4.38518 19.0287C4.65122 18.4492 4.99111 17.9019 5.42075 17.4371C6.5772 16.1873 8.22933 15.6938 9.86095 15.4093C13.1414 14.8376 16.4836 14.5796 19.8049 14.3848C26.609 13.9865 33.4453 13.9655 40.2579 14.2169C40.4582 14.2242 48.0594 14.595 50.9694 14.9232C52.3034 15.0731 53.6436 15.2759 54.567 16.3479C55.3321 17.2368 55.708 18.4429 55.9598 19.5703C56.2078 20.6801 56.1774 21.756 55.9347 23.0404C55.5452 25.0887 54.8477 27.5678 53.3664 28.5651C51.9362 29.5275 50.0437 30.0046 48.432 30.5638C43.9921 32.1039 39.4328 33.4198 34.8347 34.4072C34.777 34.0798 34.7196 33.7634 34.6679 33.4672C34.4107 31.9874 33.8862 30.8019 32.5527 30.0409C30.7738 29.0259 28.3744 29.4643 26.7462 30.5259C25.6416 31.2458 25.1803 32.7565 24.9985 34.3656C20.7093 33.4315 16.4833 32.1909 12.318 30.8136C10.4964 30.211 8.64175 29.5943 6.92706 28.7249C5.46487 27.9833 4.69723 25.8475 4.25329 23.8837C3.7991 21.8751 3.84642 20.2046 4.38518 19.0287Z" fill="#DDA96B"/>
<path d="M33.0748 38.8367C32.8533 39.6507 32.2035 40.0086 31.4318 40.1347C29.64 40.4265 26.9371 40.3001 26.9111 38.5637C26.8828 36.6422 26.9188 34.6292 27.5023 32.7848C27.9687 31.3127 30.1798 31.3494 31.3613 31.6794C32.5364 32.0079 32.65 33.3915 32.8242 34.3921C33.0046 35.4273 33.4424 37.4793 33.0748 38.8367Z" fill="#FF7A0D"/>
<path d="M56.5717 51.4809C56.4603 52.217 56.3296 52.9578 56.0954 53.6663C55.6074 55.0924 54.9721 56.5752 53.4837 57.1859C52.3115 57.6666 50.868 57.7049 49.6179 57.8426C46.4638 58.1898 43.2958 58.4089 40.1274 58.5735C32.6434 58.9631 25.1156 59.0722 17.6309 58.6393C15.9387 58.5419 14.2468 58.4118 12.5619 58.2281C10.8946 58.0458 9.13667 57.8959 7.57522 57.2455C5.40823 56.343 4.5531 54.4736 4.12901 52.3118C3.09288 47.0359 2.93408 41.5112 2.84001 36.1509C2.78893 33.2787 2.8084 30.4014 2.96898 27.5321C3.02298 26.5465 3.12261 26.6906 3.48931 27.4413C3.82477 28.1293 4.21913 28.7778 4.68837 29.3606C5.63532 30.5351 7.05857 30.9871 8.42895 31.528C13.7181 33.6146 19.3283 35.2021 24.8919 36.3784C24.8857 37.2813 24.9198 38.1235 24.9297 38.7703C24.9756 41.8333 28.7291 42.566 31.505 42.1625C33.0389 41.9398 33.9315 41.5437 34.583 40.392C35.2159 39.2727 35.2614 37.8106 35.1195 36.3785C40.499 35.2374 45.8252 33.6499 50.9838 31.7556C52.2997 31.2723 53.8586 30.7957 54.9291 29.8498C55.4854 29.3588 55.9485 28.7213 56.3354 28.0044C56.7815 27.1805 56.8168 26.8512 56.8973 28.2135C57.0278 30.4206 57.109 32.6298 57.1549 34.8388C57.2677 40.3218 57.3805 46.1242 56.5717 51.4809Z" fill="#FFC522"/>
<path d="M33.0748 38.8368C33.1795 38.4491 33.214 38.0034 33.213 37.5418C32.6152 38.9966 31.3867 39.5534 29.7447 39.4971C29.0252 39.4728 28.2439 39.3464 27.7688 38.7077C27.2943 38.0702 27.3917 36.9122 27.3807 36.1479C27.3645 35.0186 27.4538 33.8897 27.5122 32.762C27.5089 32.7701 27.5045 32.7766 27.5023 32.7847C26.9188 34.6291 26.8828 36.6421 26.9111 38.5637C26.9371 40.3 29.64 40.4265 31.4318 40.1346C32.2036 40.0087 32.8533 39.6507 33.0748 38.8368Z" fill="#EF6200"/>
<path d="M38.2343 7.25917C34.8327 5.13074 30.5784 4.49461 26.6573 5.033C23.155 5.51325 19.1002 7.33339 16.9997 10.2927C16.4559 11.0596 15.9994 11.8578 15.6636 12.7118C15.8477 12.6956 16.0318 12.6746 16.2159 12.6588C20.3478 3.41125 37.3656 3.29658 41.8473 12.2844C42.1721 12.2995 42.4962 12.3193 42.8214 12.3359C41.898 10.2269 40.1084 8.43105 38.2343 7.25917Z" fill="#EF6200"/>
<path d="M29.731 2.96602C24.5672 3.18061 18.5972 5.01985 15.1382 9.01545C16.7356 7.65985 18.6891 6.62428 20.4445 5.82719C24.0064 4.20996 28.0466 3.52859 31.9404 3.74985C37.2555 4.05267 41.5418 6.9763 44.7285 10.9575C41.7882 5.86473 35.5854 2.72312 29.731 2.96602Z" fill="#FFB85A"/>
<path d="M32.1736 34.6122C32.124 34.2135 32.0982 33.745 31.934 33.3573C31.6598 32.7131 30.6883 32.533 30.2355 33.3356C30.0911 33.5918 29.9944 33.9078 29.9477 34.2197C29.7846 35.3086 29.133 37.6465 30.3002 38.359C31.0138 38.7945 32.3361 38.3212 32.3679 37.4315C32.4022 36.4962 32.29 35.5382 32.1736 34.6122Z" fill="#FFB85A"/>
<path d="M55.9598 19.5703C55.7625 18.6865 55.4854 17.7564 55.0077 16.9663C55.5957 18.7622 55.7699 20.5338 55.4729 22.5417C55.2329 24.166 54.8919 25.9581 53.6903 27.1598C52.6669 28.1829 51.0713 28.5959 49.7491 29.0758C48.1028 29.673 46.4422 30.2308 44.7745 30.764C43.194 31.2685 41.6003 31.7344 39.9904 32.1369C38.1511 32.5962 35.9034 33.4311 34.9124 31.3097C34.3277 30.0577 33.9587 29.4293 32.6509 28.8832C31.1255 28.2449 29.2583 28.4992 27.7385 28.9989C26.661 29.3532 25.8669 30.1176 25.205 31.0065C24.5256 31.9185 24.351 33.0125 22.962 32.9927C22.2663 32.982 21.5372 32.7637 20.8636 32.5863C18.4177 31.9432 16.0089 31.1248 13.6063 30.3377C11.0056 29.4859 6.99203 28.7274 5.74339 26.0753C5.09409 24.6962 4.17866 22.3043 4.04526 20.1777C3.86633 21.2074 3.93058 22.4579 4.25326 23.8838C4.69719 25.8476 5.46484 27.9833 6.92703 28.7249C8.64172 29.5943 10.4963 30.211 12.3179 30.8136C16.4833 32.191 20.7093 33.4315 24.9985 34.3657C25.1804 32.7565 25.6416 31.2458 26.7462 30.526C28.3745 29.4643 30.7738 29.0259 32.5527 30.0409C33.8863 30.802 34.4107 31.9874 34.6679 33.4673C34.7197 33.7634 34.777 34.0799 34.8347 34.4073C39.4328 33.4199 43.9921 32.104 48.4319 30.5639C50.0437 30.0046 51.9362 29.5275 53.3664 28.5652C54.8477 27.5678 55.5451 25.0889 55.9347 23.0405C56.1773 21.756 56.2079 20.6801 55.9598 19.5703Z" fill="#C48D51"/>
<path d="M46.1074 16.8231C39.0955 16.725 26.2126 16.7239 22.5036 16.8305C17.0646 16.9855 13.0588 17.2559 10.4691 17.8866C6.25157 18.9122 7.77407 22.9585 9.66467 23.9868C10.6311 24.5126 11.6634 24.9157 12.4219 25.2053C15.5958 26.4146 18.4129 27.2915 21.5681 25.6805C23.8791 24.4997 26.0105 23.57 28.7217 23.4447C31.5216 23.315 34.0704 24.3251 36.4714 25.4868C38.4263 26.4327 40.1171 26.7674 42.3216 26.3878C45.1071 25.9078 47.9757 25.095 50.5832 24.0966C51.9043 23.591 53.4966 22.8168 53.5734 21.3483C53.8053 16.9187 52.4548 16.9116 46.1074 16.8231Z" fill="#F4C38E"/>
<path d="M56.5718 51.4809C57.2542 46.9632 57.2788 42.1294 57.2027 37.437C57.1281 38.7512 57.0381 40.0638 56.9267 41.3749C56.6647 44.4466 56.3038 47.5323 55.5964 50.5375C55.2987 51.8002 54.8849 53.0088 54.2985 54.1678C53.4724 55.7987 52.1399 56.4123 50.4135 56.6928C43.6648 57.7879 36.5612 57.6651 29.7481 57.7298C25.7452 57.7676 21.7412 57.7265 17.7408 57.5865C13.4828 57.4369 7.47828 58.0278 5.59096 53.273C3.99095 49.2432 3.94138 44.3859 3.49857 40.1331C3.24062 37.6563 3.08991 35.1339 2.82208 32.6355C2.81474 33.8074 2.81954 34.9793 2.84005 36.1508C2.93412 41.5111 3.09292 47.0358 4.12915 52.3116C4.55323 54.4735 5.40837 56.3429 7.57536 57.2454C9.1368 57.8958 10.8948 58.0457 12.562 58.228C14.2469 58.4117 15.9388 58.5418 17.631 58.6392C25.1158 59.0721 32.6437 58.9629 40.1275 58.5734C43.2959 58.4088 46.4639 58.1898 49.618 57.8425C50.8681 57.7046 52.3116 57.6664 53.4839 57.1858C54.9721 56.5751 55.6075 55.0923 56.0956 53.6661C56.3296 52.9577 56.4604 52.2169 56.5718 51.4809Z" fill="#FFA222"/>
<path d="M46.8765 39.0175C45.2971 39.5989 43.786 40.3633 42.2933 41.1353C38.7188 42.9845 35.211 45.0743 31.3444 46.2693C23.897 48.5705 18.2772 42.1337 12.4601 38.6586C8.78524 36.4617 5.60479 36.5411 5.83339 40.1604C6.0443 43.4975 6.59332 47.2391 7.02399 49.2187C7.99229 53.6637 9.5956 54.0121 14.1611 54.9322C18.5267 55.8123 23.2146 55.8483 27.6493 55.8954C32.707 55.9483 37.7876 55.6194 42.8426 55.4618C45.6361 55.3747 49.0364 55.6158 51.1329 53.4068C52.3911 52.0809 52.6983 49.62 53.0199 47.9208C53.2984 46.4498 53.8812 43.1955 53.3904 40.8149C52.6753 37.3503 49.8982 37.9059 46.8765 39.0175Z" fill="#FBE134"/>
</svg>
