<svg width="32" height="32" viewBox="0 0 32 32" fill="none" xmlns="http://www.w3.org/2000/svg">
<g clip-path="url(#clip0_4_608)">
<path d="M27.3125 0H4.6875C2.1 0 0 2.1 0 4.6875V27.3125C0 29.9 2.1 32 4.6875 32H27.3125C29.9 32 32 29.9 32 27.3125V4.6875C32 2.1 29.9 0 27.3125 0Z" fill="#4DA6FF"/>
<path d="M32 4.6875V27.3125C32 29.9 29.9 32 27.3125 32H16V0H27.3125C29.9 0 32 2.1 32 4.6875Z" fill="#4596E6"/>
<path d="M26.0126 16.225L25.5438 18.1C25.45 18.5124 25.0751 18.8125 24.6437 18.8125H19.75V32H16V18.8125H12.25C11.7249 18.8125 11.3125 18.3999 11.3125 17.875V16C11.3125 15.4749 11.7249 15.0625 12.25 15.0625H16V11.3125C16 8.19994 18.5126 5.6875 21.625 5.6875H24.4375C24.9626 5.6875 25.375 6.09994 25.375 6.625V8.5C25.375 9.02494 24.9626 9.4375 24.4375 9.4375H21.625C20.5938 9.4375 19.75 10.2812 19.75 11.3125V15.0625H25.1125C25.7125 15.0625 26.1624 15.6438 26.0126 16.225Z" fill="#E6EEFF"/>
<path d="M26.0126 16.225L25.5438 18.1C25.45 18.5124 25.0751 18.8125 24.6437 18.8125H19.75V32H16V11.3125C16 8.19994 18.5126 5.6875 21.625 5.6875H24.4375C24.9626 5.6875 25.375 6.09994 25.375 6.625V8.5C25.375 9.02494 24.9626 9.4375 24.4375 9.4375H21.625C20.5938 9.4375 19.75 10.2812 19.75 11.3125V15.0625H25.1125C25.7125 15.0625 26.1624 15.6438 26.0126 16.225Z" fill="#DAE2F2"/>
</g>
<defs>
<clipPath id="clip0_4_608">
<rect width="32" height="32" fill="white"/>
</clipPath>
</defs>
</svg>
