<svg width="32" height="33" viewBox="0 0 32 33" fill="none" xmlns="http://www.w3.org/2000/svg">
<g clip-path="url(#clip0_132_610)">
<path d="M23.2277 32.6816H8.77231C3.93525 32.6816 0 28.7465 0 23.9093V9.45402C0 4.61689 3.93525 0.681641 8.77231 0.681641H23.2277C28.0648 0.681641 32 4.61689 32 9.45402V23.9093C32 28.7465 28.0648 32.6816 23.2277 32.6816Z" fill="#FF54CC"/>
<path d="M23.2277 0.681641H16V32.6816H23.2277C28.0648 32.6816 32 28.7464 32 23.9093V9.45402C32 4.61689 28.0648 0.681641 23.2277 0.681641Z" fill="#F02093"/>
<path d="M16 25.4587C11.1603 25.4587 7.22308 21.5213 7.22308 16.6817C7.22308 11.8421 11.1604 7.90479 16 7.90479C20.8396 7.90479 24.777 11.842 24.777 16.6817C24.777 21.5213 20.8396 25.4587 16 25.4587ZM16 9.79441C12.2024 9.79441 9.11277 12.884 9.11277 16.6817C9.11277 20.4793 12.2024 23.569 16 23.569C19.7977 23.569 22.8873 20.4793 22.8873 16.6817C22.8873 12.8841 19.7977 9.79441 16 9.79441Z" fill="white"/>
<path d="M25.3019 10.0462C23.8316 10.0462 22.6353 8.84995 22.6353 7.37958C22.6353 5.9092 23.8316 4.71289 25.3019 4.71289C26.7724 4.71289 27.9686 5.90914 27.9686 7.37952C27.9686 8.84989 26.7724 10.0462 25.3019 10.0462Z" fill="#DCE1EB"/>
<path d="M16.0002 7.9043V9.79405C19.7977 9.79417 22.8872 12.8837 22.8872 16.6813C22.8872 20.4789 19.7977 23.5685 16.0002 23.5686V25.4584C20.8397 25.4582 24.7769 21.521 24.7769 16.6814C24.7769 11.8419 20.8397 7.90442 16.0002 7.9043Z" fill="#DCE1EB"/>
</g>
<defs>
<clipPath id="clip0_132_610">
<rect width="32" height="32" fill="white" transform="translate(0 0.681641)"/>
</clipPath>
</defs>
</svg>
