<svg width="32" height="32" viewBox="0 0 32 32" fill="none" xmlns="http://www.w3.org/2000/svg">
<g clip-path="url(#clip0_4_614)">
<path d="M27.25 0H4.75C2.1626 0 0 2.1001 0 4.6875V27.25C0 29.8374 2.1626 31.9375 4.75 31.9375H27.25C29.8374 31.9375 32 29.8374 32 27.25V4.6875C32 2.1001 29.8374 0 27.25 0Z" fill="#0095FF"/>
<path d="M32 4.6875V27.25C32 29.8374 29.8374 31.9375 27.25 31.9375H16V0H27.25C29.8374 0 32 2.1001 32 4.6875Z" fill="#006EFF"/>
<path d="M9.4375 28.1875H5.6875C5.16943 28.1875 4.75 27.7681 4.75 27.25V12.1875C4.75 11.6694 5.16943 11.25 5.6875 11.25H9.4375C9.95557 11.25 10.375 11.6694 10.375 12.1875V27.25C10.375 27.7681 9.95557 28.1875 9.4375 28.1875Z" fill="#EDF5FF"/>
<path d="M7.5625 9.375C6.01172 9.375 4.75 8.11328 4.75 6.5625C4.75 5.01172 6.01172 3.75 7.5625 3.75C9.11328 3.75 10.375 5.01172 10.375 6.5625C10.375 8.11328 9.11328 9.375 7.5625 9.375Z" fill="#EDF5FF"/>
<path d="M26.6311 14.4749C25.7874 12.7876 24.175 11.625 22.2251 11.3062C20.7063 11.0625 19.1311 11.3438 17.875 12.075C17.8186 11.6062 17.425 11.25 16.9375 11.25H13.1875C12.6624 11.25 12.25 11.6624 12.25 12.1875V27.25C12.25 27.7749 12.6624 28.1875 13.1875 28.1875H16.9375C17.4626 28.1875 17.875 27.7749 17.875 27.25V18.75C17.875 17.7188 18.7188 16.875 19.75 16.875C20.7812 16.875 21.625 17.7188 21.625 18.75V27.25C21.625 27.7749 22.0374 28.1875 22.5625 28.1875H26.3125C26.8376 28.1875 27.25 27.7749 27.25 27.25V17.1001C27.25 16.2 27.0437 15.2813 26.6311 14.4749Z" fill="#EDF5FF"/>
<path d="M27.25 17.1001V27.25C27.25 27.7749 26.8376 28.1875 26.3125 28.1875H22.5625C22.0374 28.1875 21.625 27.7749 21.625 27.25V18.75C21.625 17.7187 20.7812 16.875 19.75 16.875C18.7188 16.875 17.875 17.7187 17.875 18.75V27.25C17.875 27.7749 17.4626 28.1875 16.9375 28.1875H16V11.25H16.9375C17.425 11.25 17.8186 11.6062 17.875 12.075C19.1311 11.3437 20.7063 11.0625 22.2251 11.3062C24.175 11.625 25.7874 12.7876 26.6311 14.4749C27.0437 15.2812 27.25 16.2 27.25 17.1001Z" fill="#D7E9FF"/>
</g>
<defs>
<clipPath id="clip0_4_614">
<rect width="32" height="32" fill="white"/>
</clipPath>
</defs>
</svg>
