<svg width="32" height="32" viewBox="0 0 32 32" fill="none" xmlns="http://www.w3.org/2000/svg">
<g clip-path="url(#clip0_5_641)">
<path d="M27.25 0H4.75C2.1626 0 0 2.1001 0 4.6875V27.25C0 29.8374 2.1626 31.9375 4.75 31.9375H27.25C29.8374 31.9375 32 29.8374 32 27.25V4.6875C32 2.1001 29.8374 0 27.25 0Z" fill="#181818"/>
<path d="M32 4.6875V27.25C32 29.8374 29.8374 31.9375 27.25 31.9375H16V0H27.25C29.8374 0 32 2.1001 32 4.6875Z" fill="#111111"/>
<g clip-path="url(#clip1_5_641)">
<path d="M18.8617 14.4686L26.1471 6H24.4207L18.0948 13.3532L13.0424 6H7.21497L14.8553 17.1193L7.21497 26H8.94146L15.6217 18.2348L20.9575 26H26.7849L18.8613 14.4686H18.8617ZM16.4971 17.2173L15.723 16.1101L9.56354 7.29967H12.2153L17.1861 14.4099L17.9602 15.5172L24.4215 24.7594H21.7697L16.4971 17.2177V17.2173Z" fill="white"/>
</g>
</g>
<defs>
<clipPath id="clip0_5_641">
<rect width="32" height="32" fill="white"/>
</clipPath>
<clipPath id="clip1_5_641">
<rect width="20" height="20" fill="white" transform="translate(7 6)"/>
</clipPath>
</defs>
</svg>
